<?xml version="1.0" encoding="utf-8" standalone="no"?>
<!DOCTYPE svg PUBLIC "-//W3C//DTD SVG 1.1//EN"
  "http://www.w3.org/Graphics/SVG/1.1/DTD/svg11.dtd">
<!-- Created with matplotlib (https://matplotlib.org/) -->
<svg height="720pt" version="1.1" viewBox="0 0 288 720" width="288pt" xmlns="http://www.w3.org/2000/svg" xmlns:xlink="http://www.w3.org/1999/xlink">
 <defs>
  <style type="text/css">
*{stroke-linecap:butt;stroke-linejoin:round;}
  </style>
 </defs>
 <g id="figure_1">
  <g id="patch_1">
   <path d="M 0 720 
L 288 720 
L 288 0 
L 0 0 
z
" style="fill:#ffffff;"/>
  </g>
  <g id="axes_1">
   <g id="patch_2">
    <path d="M 36 531.163636 
L 259.2 531.163636 
L 259.2 86.4 
L 36 86.4 
z
" style="fill:#ffffff;"/>
   </g>
   <g id="matplotlib.axis_1">
    <g id="xtick_1">
     <g id="line2d_1">
      <path clip-path="url(#p3b4d708c31)" d="M 62.619558 531.163636 
L 62.619558 86.4 
" style="fill:none;stroke:#b0b0b0;stroke-linecap:square;stroke-width:0.8;"/>
     </g>
     <g id="line2d_2">
      <defs>
       <path d="M 0 0 
L 0 3.5 
" id="m35ea76f250" style="stroke:#000000;stroke-width:0.8;"/>
      </defs>
      <g>
       <use style="stroke:#000000;stroke-width:0.8;" x="62.619558" xlink:href="#m35ea76f250" y="531.163636"/>
      </g>
     </g>
     <g id="text_1">
      <!-- −12.5 -->
      <defs>
       <path d="M 10.59375 35.5 
L 73.1875 35.5 
L 73.1875 27.203125 
L 10.59375 27.203125 
z
" id="DejaVuSans-8722"/>
       <path d="M 12.40625 8.296875 
L 28.515625 8.296875 
L 28.515625 63.921875 
L 10.984375 60.40625 
L 10.984375 69.390625 
L 28.421875 72.90625 
L 38.28125 72.90625 
L 38.28125 8.296875 
L 54.390625 8.296875 
L 54.390625 0 
L 12.40625 0 
z
" id="DejaVuSans-49"/>
       <path d="M 19.1875 8.296875 
L 53.609375 8.296875 
L 53.609375 0 
L 7.328125 0 
L 7.328125 8.296875 
Q 12.9375 14.109375 22.625 23.890625 
Q 32.328125 33.6875 34.8125 36.53125 
Q 39.546875 41.84375 41.421875 45.53125 
Q 43.3125 49.21875 43.3125 52.78125 
Q 43.3125 58.59375 39.234375 62.25 
Q 35.15625 65.921875 28.609375 65.921875 
Q 23.96875 65.921875 18.8125 64.3125 
Q 13.671875 62.703125 7.8125 59.421875 
L 7.8125 69.390625 
Q 13.765625 71.78125 18.9375 73 
Q 24.125 74.21875 28.421875 74.21875 
Q 39.75 74.21875 46.484375 68.546875 
Q 53.21875 62.890625 53.21875 53.421875 
Q 53.21875 48.921875 51.53125 44.890625 
Q 49.859375 40.875 45.40625 35.40625 
Q 44.1875 33.984375 37.640625 27.21875 
Q 31.109375 20.453125 19.1875 8.296875 
z
" id="DejaVuSans-50"/>
       <path d="M 10.6875 12.40625 
L 21 12.40625 
L 21 0 
L 10.6875 0 
z
" id="DejaVuSans-46"/>
       <path d="M 10.796875 72.90625 
L 49.515625 72.90625 
L 49.515625 64.59375 
L 19.828125 64.59375 
L 19.828125 46.734375 
Q 21.96875 47.46875 24.109375 47.828125 
Q 26.265625 48.1875 28.421875 48.1875 
Q 40.625 48.1875 47.75 41.5 
Q 54.890625 34.8125 54.890625 23.390625 
Q 54.890625 11.625 47.5625 5.09375 
Q 40.234375 -1.421875 26.90625 -1.421875 
Q 22.3125 -1.421875 17.546875 -0.640625 
Q 12.796875 0.140625 7.71875 1.703125 
L 7.71875 11.625 
Q 12.109375 9.234375 16.796875 8.0625 
Q 21.484375 6.890625 26.703125 6.890625 
Q 35.15625 6.890625 40.078125 11.328125 
Q 45.015625 15.765625 45.015625 23.390625 
Q 45.015625 31 40.078125 35.4375 
Q 35.15625 39.890625 26.703125 39.890625 
Q 22.75 39.890625 18.8125 39.015625 
Q 14.890625 38.140625 10.796875 36.28125 
z
" id="DejaVuSans-53"/>
      </defs>
      <g transform="translate(47.296902 545.762074)scale(0.1 -0.1)">
       <use xlink:href="#DejaVuSans-8722"/>
       <use x="83.789062" xlink:href="#DejaVuSans-49"/>
       <use x="147.412109" xlink:href="#DejaVuSans-50"/>
       <use x="211.035156" xlink:href="#DejaVuSans-46"/>
       <use x="242.822266" xlink:href="#DejaVuSans-53"/>
      </g>
     </g>
    </g>
    <g id="xtick_2">
     <g id="line2d_3">
      <path clip-path="url(#p3b4d708c31)" d="M 95.830201 531.163636 
L 95.830201 86.4 
" style="fill:none;stroke:#b0b0b0;stroke-linecap:square;stroke-width:0.8;"/>
     </g>
     <g id="line2d_4">
      <g>
       <use style="stroke:#000000;stroke-width:0.8;" x="95.830201" xlink:href="#m35ea76f250" y="531.163636"/>
      </g>
     </g>
     <g id="text_2">
      <!-- −10.0 -->
      <defs>
       <path d="M 31.78125 66.40625 
Q 24.171875 66.40625 20.328125 58.90625 
Q 16.5 51.421875 16.5 36.375 
Q 16.5 21.390625 20.328125 13.890625 
Q 24.171875 6.390625 31.78125 6.390625 
Q 39.453125 6.390625 43.28125 13.890625 
Q 47.125 21.390625 47.125 36.375 
Q 47.125 51.421875 43.28125 58.90625 
Q 39.453125 66.40625 31.78125 66.40625 
z
M 31.78125 74.21875 
Q 44.046875 74.21875 50.515625 64.515625 
Q 56.984375 54.828125 56.984375 36.375 
Q 56.984375 17.96875 50.515625 8.265625 
Q 44.046875 -1.421875 31.78125 -1.421875 
Q 19.53125 -1.421875 13.0625 8.265625 
Q 6.59375 17.96875 6.59375 36.375 
Q 6.59375 54.828125 13.0625 64.515625 
Q 19.53125 74.21875 31.78125 74.21875 
z
" id="DejaVuSans-48"/>
      </defs>
      <g transform="translate(80.507544 545.762074)scale(0.1 -0.1)">
       <use xlink:href="#DejaVuSans-8722"/>
       <use x="83.789062" xlink:href="#DejaVuSans-49"/>
       <use x="147.412109" xlink:href="#DejaVuSans-48"/>
       <use x="211.035156" xlink:href="#DejaVuSans-46"/>
       <use x="242.822266" xlink:href="#DejaVuSans-48"/>
      </g>
     </g>
    </g>
    <g id="xtick_3">
     <g id="line2d_5">
      <path clip-path="url(#p3b4d708c31)" d="M 129.040843 531.163636 
L 129.040843 86.4 
" style="fill:none;stroke:#b0b0b0;stroke-linecap:square;stroke-width:0.8;"/>
     </g>
     <g id="line2d_6">
      <g>
       <use style="stroke:#000000;stroke-width:0.8;" x="129.040843" xlink:href="#m35ea76f250" y="531.163636"/>
      </g>
     </g>
     <g id="text_3">
      <!-- −7.5 -->
      <defs>
       <path d="M 8.203125 72.90625 
L 55.078125 72.90625 
L 55.078125 68.703125 
L 28.609375 0 
L 18.3125 0 
L 43.21875 64.59375 
L 8.203125 64.59375 
z
" id="DejaVuSans-55"/>
      </defs>
      <g transform="translate(116.899437 545.762074)scale(0.1 -0.1)">
       <use xlink:href="#DejaVuSans-8722"/>
       <use x="83.789062" xlink:href="#DejaVuSans-55"/>
       <use x="147.412109" xlink:href="#DejaVuSans-46"/>
       <use x="179.199219" xlink:href="#DejaVuSans-53"/>
      </g>
     </g>
    </g>
    <g id="xtick_4">
     <g id="line2d_7">
      <path clip-path="url(#p3b4d708c31)" d="M 162.251485 531.163636 
L 162.251485 86.4 
" style="fill:none;stroke:#b0b0b0;stroke-linecap:square;stroke-width:0.8;"/>
     </g>
     <g id="line2d_8">
      <g>
       <use style="stroke:#000000;stroke-width:0.8;" x="162.251485" xlink:href="#m35ea76f250" y="531.163636"/>
      </g>
     </g>
     <g id="text_4">
      <!-- −5.0 -->
      <g transform="translate(150.110079 545.762074)scale(0.1 -0.1)">
       <use xlink:href="#DejaVuSans-8722"/>
       <use x="83.789062" xlink:href="#DejaVuSans-53"/>
       <use x="147.412109" xlink:href="#DejaVuSans-46"/>
       <use x="179.199219" xlink:href="#DejaVuSans-48"/>
      </g>
     </g>
    </g>
    <g id="xtick_5">
     <g id="line2d_9">
      <path clip-path="url(#p3b4d708c31)" d="M 195.462127 531.163636 
L 195.462127 86.4 
" style="fill:none;stroke:#b0b0b0;stroke-linecap:square;stroke-width:0.8;"/>
     </g>
     <g id="line2d_10">
      <g>
       <use style="stroke:#000000;stroke-width:0.8;" x="195.462127" xlink:href="#m35ea76f250" y="531.163636"/>
      </g>
     </g>
     <g id="text_5">
      <!-- −2.5 -->
      <g transform="translate(183.320721 545.762074)scale(0.1 -0.1)">
       <use xlink:href="#DejaVuSans-8722"/>
       <use x="83.789062" xlink:href="#DejaVuSans-50"/>
       <use x="147.412109" xlink:href="#DejaVuSans-46"/>
       <use x="179.199219" xlink:href="#DejaVuSans-53"/>
      </g>
     </g>
    </g>
    <g id="xtick_6">
     <g id="line2d_11">
      <path clip-path="url(#p3b4d708c31)" d="M 228.672769 531.163636 
L 228.672769 86.4 
" style="fill:none;stroke:#b0b0b0;stroke-linecap:square;stroke-width:0.8;"/>
     </g>
     <g id="line2d_12">
      <g>
       <use style="stroke:#000000;stroke-width:0.8;" x="228.672769" xlink:href="#m35ea76f250" y="531.163636"/>
      </g>
     </g>
     <g id="text_6">
      <!-- 0.0 -->
      <g transform="translate(220.721207 545.762074)scale(0.1 -0.1)">
       <use xlink:href="#DejaVuSans-48"/>
       <use x="63.623047" xlink:href="#DejaVuSans-46"/>
       <use x="95.410156" xlink:href="#DejaVuSans-48"/>
      </g>
     </g>
    </g>
    <g id="text_7">
     <!-- $\Delta r~[mm \cdot 10^{0}]$ -->
     <defs>
      <path d="M 34.1875 63.1875 
L 14.15625 8.203125 
L 54.25 8.203125 
z
M 0.78125 0 
L 28.609375 72.90625 
L 39.796875 72.90625 
L 67.578125 0 
z
" id="DejaVuSans-916"/>
      <path d="M 44.578125 46.390625 
Q 43.21875 47.125 41.453125 47.515625 
Q 39.703125 47.90625 37.703125 47.90625 
Q 30.515625 47.90625 25.140625 42.453125 
Q 19.78125 37.015625 18.015625 27.875 
L 12.5 0 
L 3.515625 0 
L 14.203125 54.6875 
L 23.1875 54.6875 
L 21.484375 46.1875 
Q 25.046875 50.921875 30 53.453125 
Q 34.96875 56 40.578125 56 
Q 42.046875 56 43.453125 55.828125 
Q 44.875 55.671875 46.296875 55.28125 
z
" id="DejaVuSans-Oblique-114"/>
      <path d="M 8.59375 75.984375 
L 29.296875 75.984375 
L 29.296875 69 
L 17.578125 69 
L 17.578125 -6.203125 
L 29.296875 -6.203125 
L 29.296875 -13.1875 
L 8.59375 -13.1875 
z
" id="DejaVuSans-91"/>
      <path d="M 89.796875 33.015625 
L 83.40625 0 
L 74.421875 0 
L 80.71875 32.71875 
Q 81.109375 34.8125 81.296875 36.328125 
Q 81.5 37.84375 81.5 38.921875 
Q 81.5 43.3125 79.046875 45.75 
Q 76.609375 48.1875 72.21875 48.1875 
Q 65.671875 48.1875 60.546875 43.28125 
Q 55.421875 38.375 53.90625 30.515625 
L 47.90625 0 
L 38.921875 0 
L 45.3125 32.71875 
Q 45.703125 34.515625 45.890625 36.046875 
Q 46.09375 37.59375 46.09375 38.8125 
Q 46.09375 43.265625 43.65625 45.71875 
Q 41.21875 48.1875 36.921875 48.1875 
Q 30.28125 48.1875 25.140625 43.28125 
Q 20.015625 38.375 18.5 30.515625 
L 12.5 0 
L 3.515625 0 
L 14.203125 54.6875 
L 23.1875 54.6875 
L 21.484375 46.1875 
Q 25.140625 50.984375 30.046875 53.484375 
Q 34.96875 56 40.578125 56 
Q 46.53125 56 50.359375 52.875 
Q 54.203125 49.75 54.984375 44.1875 
Q 59.078125 49.953125 64.46875 52.96875 
Q 69.875 56 75.875 56 
Q 82.90625 56 86.734375 51.953125 
Q 90.578125 47.90625 90.578125 40.484375 
Q 90.578125 38.875 90.375 36.9375 
Q 90.1875 35.015625 89.796875 33.015625 
z
" id="DejaVuSans-Oblique-109"/>
      <path d="M 10.6875 40.921875 
L 21 40.921875 
L 21 28.515625 
L 10.6875 28.515625 
z
" id="DejaVuSans-8901"/>
      <path d="M 30.421875 75.984375 
L 30.421875 -13.1875 
L 9.71875 -13.1875 
L 9.71875 -6.203125 
L 21.390625 -6.203125 
L 21.390625 69 
L 9.71875 69 
L 9.71875 75.984375 
z
" id="DejaVuSans-93"/>
     </defs>
     <g transform="translate(114.5 560.262074)scale(0.1 -0.1)">
      <use transform="translate(0 0.765625)" xlink:href="#DejaVuSans-916"/>
      <use transform="translate(68.408203 0.765625)" xlink:href="#DejaVuSans-Oblique-114"/>
      <use transform="translate(141.991863 0.765625)" xlink:href="#DejaVuSans-91"/>
      <use transform="translate(181.005535 0.765625)" xlink:href="#DejaVuSans-Oblique-109"/>
      <use transform="translate(278.417644 0.765625)" xlink:href="#DejaVuSans-Oblique-109"/>
      <use transform="translate(395.312175 0.765625)" xlink:href="#DejaVuSans-8901"/>
      <use transform="translate(446.581707 0.765625)" xlink:href="#DejaVuSans-49"/>
      <use transform="translate(510.204753 0.765625)" xlink:href="#DejaVuSans-48"/>
      <use transform="translate(574.784832 39.046875)scale(0.7)" xlink:href="#DejaVuSans-48"/>
      <use transform="translate(622.055339 0.765625)" xlink:href="#DejaVuSans-93"/>
     </g>
    </g>
   </g>
   <g id="matplotlib.axis_2">
    <g id="ytick_1">
     <g id="line2d_13">
      <path clip-path="url(#p3b4d708c31)" d="M 36 511.242525 
L 259.2 511.242525 
" style="fill:none;stroke:#b0b0b0;stroke-linecap:square;stroke-width:0.8;"/>
     </g>
     <g id="line2d_14">
      <defs>
       <path d="M 0 0 
L -3.5 0 
" id="mbc2d529a1a" style="stroke:#000000;stroke-width:0.8;"/>
      </defs>
      <g>
       <use style="stroke:#000000;stroke-width:0.8;" x="36" xlink:href="#mbc2d529a1a" y="511.242525"/>
      </g>
     </g>
     <g id="text_8">
      <!-- 1500 -->
      <g transform="translate(3.55 515.041744)scale(0.1 -0.1)">
       <use xlink:href="#DejaVuSans-49"/>
       <use x="63.623047" xlink:href="#DejaVuSans-53"/>
       <use x="127.246094" xlink:href="#DejaVuSans-48"/>
       <use x="190.869141" xlink:href="#DejaVuSans-48"/>
      </g>
     </g>
    </g>
    <g id="ytick_2">
     <g id="line2d_15">
      <path clip-path="url(#p3b4d708c31)" d="M 36 455.954143 
L 259.2 455.954143 
" style="fill:none;stroke:#b0b0b0;stroke-linecap:square;stroke-width:0.8;"/>
     </g>
     <g id="line2d_16">
      <g>
       <use style="stroke:#000000;stroke-width:0.8;" x="36" xlink:href="#mbc2d529a1a" y="455.954143"/>
      </g>
     </g>
     <g id="text_9">
      <!-- 1600 -->
      <defs>
       <path d="M 33.015625 40.375 
Q 26.375 40.375 22.484375 35.828125 
Q 18.609375 31.296875 18.609375 23.390625 
Q 18.609375 15.53125 22.484375 10.953125 
Q 26.375 6.390625 33.015625 6.390625 
Q 39.65625 6.390625 43.53125 10.953125 
Q 47.40625 15.53125 47.40625 23.390625 
Q 47.40625 31.296875 43.53125 35.828125 
Q 39.65625 40.375 33.015625 40.375 
z
M 52.59375 71.296875 
L 52.59375 62.3125 
Q 48.875 64.0625 45.09375 64.984375 
Q 41.3125 65.921875 37.59375 65.921875 
Q 27.828125 65.921875 22.671875 59.328125 
Q 17.53125 52.734375 16.796875 39.40625 
Q 19.671875 43.65625 24.015625 45.921875 
Q 28.375 48.1875 33.59375 48.1875 
Q 44.578125 48.1875 50.953125 41.515625 
Q 57.328125 34.859375 57.328125 23.390625 
Q 57.328125 12.15625 50.6875 5.359375 
Q 44.046875 -1.421875 33.015625 -1.421875 
Q 20.359375 -1.421875 13.671875 8.265625 
Q 6.984375 17.96875 6.984375 36.375 
Q 6.984375 53.65625 15.1875 63.9375 
Q 23.390625 74.21875 37.203125 74.21875 
Q 40.921875 74.21875 44.703125 73.484375 
Q 48.484375 72.75 52.59375 71.296875 
z
" id="DejaVuSans-54"/>
      </defs>
      <g transform="translate(3.55 459.753362)scale(0.1 -0.1)">
       <use xlink:href="#DejaVuSans-49"/>
       <use x="63.623047" xlink:href="#DejaVuSans-54"/>
       <use x="127.246094" xlink:href="#DejaVuSans-48"/>
       <use x="190.869141" xlink:href="#DejaVuSans-48"/>
      </g>
     </g>
    </g>
    <g id="ytick_3">
     <g id="line2d_17">
      <path clip-path="url(#p3b4d708c31)" d="M 36 400.665762 
L 259.2 400.665762 
" style="fill:none;stroke:#b0b0b0;stroke-linecap:square;stroke-width:0.8;"/>
     </g>
     <g id="line2d_18">
      <g>
       <use style="stroke:#000000;stroke-width:0.8;" x="36" xlink:href="#mbc2d529a1a" y="400.665762"/>
      </g>
     </g>
     <g id="text_10">
      <!-- 1700 -->
      <g transform="translate(3.55 404.464981)scale(0.1 -0.1)">
       <use xlink:href="#DejaVuSans-49"/>
       <use x="63.623047" xlink:href="#DejaVuSans-55"/>
       <use x="127.246094" xlink:href="#DejaVuSans-48"/>
       <use x="190.869141" xlink:href="#DejaVuSans-48"/>
      </g>
     </g>
    </g>
    <g id="ytick_4">
     <g id="line2d_19">
      <path clip-path="url(#p3b4d708c31)" d="M 36 345.37738 
L 259.2 345.37738 
" style="fill:none;stroke:#b0b0b0;stroke-linecap:square;stroke-width:0.8;"/>
     </g>
     <g id="line2d_20">
      <g>
       <use style="stroke:#000000;stroke-width:0.8;" x="36" xlink:href="#mbc2d529a1a" y="345.37738"/>
      </g>
     </g>
     <g id="text_11">
      <!-- 1800 -->
      <defs>
       <path d="M 31.78125 34.625 
Q 24.75 34.625 20.71875 30.859375 
Q 16.703125 27.09375 16.703125 20.515625 
Q 16.703125 13.921875 20.71875 10.15625 
Q 24.75 6.390625 31.78125 6.390625 
Q 38.8125 6.390625 42.859375 10.171875 
Q 46.921875 13.96875 46.921875 20.515625 
Q 46.921875 27.09375 42.890625 30.859375 
Q 38.875 34.625 31.78125 34.625 
z
M 21.921875 38.8125 
Q 15.578125 40.375 12.03125 44.71875 
Q 8.5 49.078125 8.5 55.328125 
Q 8.5 64.0625 14.71875 69.140625 
Q 20.953125 74.21875 31.78125 74.21875 
Q 42.671875 74.21875 48.875 69.140625 
Q 55.078125 64.0625 55.078125 55.328125 
Q 55.078125 49.078125 51.53125 44.71875 
Q 48 40.375 41.703125 38.8125 
Q 48.828125 37.15625 52.796875 32.3125 
Q 56.78125 27.484375 56.78125 20.515625 
Q 56.78125 9.90625 50.3125 4.234375 
Q 43.84375 -1.421875 31.78125 -1.421875 
Q 19.734375 -1.421875 13.25 4.234375 
Q 6.78125 9.90625 6.78125 20.515625 
Q 6.78125 27.484375 10.78125 32.3125 
Q 14.796875 37.15625 21.921875 38.8125 
z
M 18.3125 54.390625 
Q 18.3125 48.734375 21.84375 45.5625 
Q 25.390625 42.390625 31.78125 42.390625 
Q 38.140625 42.390625 41.71875 45.5625 
Q 45.3125 48.734375 45.3125 54.390625 
Q 45.3125 60.0625 41.71875 63.234375 
Q 38.140625 66.40625 31.78125 66.40625 
Q 25.390625 66.40625 21.84375 63.234375 
Q 18.3125 60.0625 18.3125 54.390625 
z
" id="DejaVuSans-56"/>
      </defs>
      <g transform="translate(3.55 349.176599)scale(0.1 -0.1)">
       <use xlink:href="#DejaVuSans-49"/>
       <use x="63.623047" xlink:href="#DejaVuSans-56"/>
       <use x="127.246094" xlink:href="#DejaVuSans-48"/>
       <use x="190.869141" xlink:href="#DejaVuSans-48"/>
      </g>
     </g>
    </g>
    <g id="ytick_5">
     <g id="line2d_21">
      <path clip-path="url(#p3b4d708c31)" d="M 36 290.088999 
L 259.2 290.088999 
" style="fill:none;stroke:#b0b0b0;stroke-linecap:square;stroke-width:0.8;"/>
     </g>
     <g id="line2d_22">
      <g>
       <use style="stroke:#000000;stroke-width:0.8;" x="36" xlink:href="#mbc2d529a1a" y="290.088999"/>
      </g>
     </g>
     <g id="text_12">
      <!-- 1900 -->
      <defs>
       <path d="M 10.984375 1.515625 
L 10.984375 10.5 
Q 14.703125 8.734375 18.5 7.8125 
Q 22.3125 6.890625 25.984375 6.890625 
Q 35.75 6.890625 40.890625 13.453125 
Q 46.046875 20.015625 46.78125 33.40625 
Q 43.953125 29.203125 39.59375 26.953125 
Q 35.25 24.703125 29.984375 24.703125 
Q 19.046875 24.703125 12.671875 31.3125 
Q 6.296875 37.9375 6.296875 49.421875 
Q 6.296875 60.640625 12.9375 67.421875 
Q 19.578125 74.21875 30.609375 74.21875 
Q 43.265625 74.21875 49.921875 64.515625 
Q 56.59375 54.828125 56.59375 36.375 
Q 56.59375 19.140625 48.40625 8.859375 
Q 40.234375 -1.421875 26.421875 -1.421875 
Q 22.703125 -1.421875 18.890625 -0.6875 
Q 15.09375 0.046875 10.984375 1.515625 
z
M 30.609375 32.421875 
Q 37.25 32.421875 41.125 36.953125 
Q 45.015625 41.5 45.015625 49.421875 
Q 45.015625 57.28125 41.125 61.84375 
Q 37.25 66.40625 30.609375 66.40625 
Q 23.96875 66.40625 20.09375 61.84375 
Q 16.21875 57.28125 16.21875 49.421875 
Q 16.21875 41.5 20.09375 36.953125 
Q 23.96875 32.421875 30.609375 32.421875 
z
" id="DejaVuSans-57"/>
      </defs>
      <g transform="translate(3.55 293.888217)scale(0.1 -0.1)">
       <use xlink:href="#DejaVuSans-49"/>
       <use x="63.623047" xlink:href="#DejaVuSans-57"/>
       <use x="127.246094" xlink:href="#DejaVuSans-48"/>
       <use x="190.869141" xlink:href="#DejaVuSans-48"/>
      </g>
     </g>
    </g>
    <g id="ytick_6">
     <g id="line2d_23">
      <path clip-path="url(#p3b4d708c31)" d="M 36 234.800617 
L 259.2 234.800617 
" style="fill:none;stroke:#b0b0b0;stroke-linecap:square;stroke-width:0.8;"/>
     </g>
     <g id="line2d_24">
      <g>
       <use style="stroke:#000000;stroke-width:0.8;" x="36" xlink:href="#mbc2d529a1a" y="234.800617"/>
      </g>
     </g>
     <g id="text_13">
      <!-- 2000 -->
      <g transform="translate(3.55 238.599836)scale(0.1 -0.1)">
       <use xlink:href="#DejaVuSans-50"/>
       <use x="63.623047" xlink:href="#DejaVuSans-48"/>
       <use x="127.246094" xlink:href="#DejaVuSans-48"/>
       <use x="190.869141" xlink:href="#DejaVuSans-48"/>
      </g>
     </g>
    </g>
    <g id="ytick_7">
     <g id="line2d_25">
      <path clip-path="url(#p3b4d708c31)" d="M 36 179.512236 
L 259.2 179.512236 
" style="fill:none;stroke:#b0b0b0;stroke-linecap:square;stroke-width:0.8;"/>
     </g>
     <g id="line2d_26">
      <g>
       <use style="stroke:#000000;stroke-width:0.8;" x="36" xlink:href="#mbc2d529a1a" y="179.512236"/>
      </g>
     </g>
     <g id="text_14">
      <!-- 2100 -->
      <g transform="translate(3.55 183.311454)scale(0.1 -0.1)">
       <use xlink:href="#DejaVuSans-50"/>
       <use x="63.623047" xlink:href="#DejaVuSans-49"/>
       <use x="127.246094" xlink:href="#DejaVuSans-48"/>
       <use x="190.869141" xlink:href="#DejaVuSans-48"/>
      </g>
     </g>
    </g>
    <g id="ytick_8">
     <g id="line2d_27">
      <path clip-path="url(#p3b4d708c31)" d="M 36 124.223854 
L 259.2 124.223854 
" style="fill:none;stroke:#b0b0b0;stroke-linecap:square;stroke-width:0.8;"/>
     </g>
     <g id="line2d_28">
      <g>
       <use style="stroke:#000000;stroke-width:0.8;" x="36" xlink:href="#mbc2d529a1a" y="124.223854"/>
      </g>
     </g>
     <g id="text_15">
      <!-- 2200 -->
      <g transform="translate(3.55 128.023073)scale(0.1 -0.1)">
       <use xlink:href="#DejaVuSans-50"/>
       <use x="63.623047" xlink:href="#DejaVuSans-50"/>
       <use x="127.246094" xlink:href="#DejaVuSans-48"/>
       <use x="190.869141" xlink:href="#DejaVuSans-48"/>
      </g>
     </g>
    </g>
    <g id="text_16">
     <!-- z [mm] -->
     <defs>
      <path d="M 5.515625 54.6875 
L 48.1875 54.6875 
L 48.1875 46.484375 
L 14.40625 7.171875 
L 48.1875 7.171875 
L 48.1875 0 
L 4.296875 0 
L 4.296875 8.203125 
L 38.09375 47.515625 
L 5.515625 47.515625 
z
" id="DejaVuSans-122"/>
      <path id="DejaVuSans-32"/>
      <path d="M 52 44.1875 
Q 55.375 50.25 60.0625 53.125 
Q 64.75 56 71.09375 56 
Q 79.640625 56 84.28125 50.015625 
Q 88.921875 44.046875 88.921875 33.015625 
L 88.921875 0 
L 79.890625 0 
L 79.890625 32.71875 
Q 79.890625 40.578125 77.09375 44.375 
Q 74.3125 48.1875 68.609375 48.1875 
Q 61.625 48.1875 57.5625 43.546875 
Q 53.515625 38.921875 53.515625 30.90625 
L 53.515625 0 
L 44.484375 0 
L 44.484375 32.71875 
Q 44.484375 40.625 41.703125 44.40625 
Q 38.921875 48.1875 33.109375 48.1875 
Q 26.21875 48.1875 22.15625 43.53125 
Q 18.109375 38.875 18.109375 30.90625 
L 18.109375 0 
L 9.078125 0 
L 9.078125 54.6875 
L 18.109375 54.6875 
L 18.109375 46.1875 
Q 21.1875 51.21875 25.484375 53.609375 
Q 29.78125 56 35.6875 56 
Q 41.65625 56 45.828125 52.96875 
Q 50 49.953125 52 44.1875 
z
" id="DejaVuSans-109"/>
     </defs>
     <g transform="translate(-2.529688 326.637287)rotate(-90)scale(0.1 -0.1)">
      <use xlink:href="#DejaVuSans-122"/>
      <use x="52.490234" xlink:href="#DejaVuSans-32"/>
      <use x="84.277344" xlink:href="#DejaVuSans-91"/>
      <use x="123.291016" xlink:href="#DejaVuSans-109"/>
      <use x="220.703125" xlink:href="#DejaVuSans-109"/>
      <use x="318.115234" xlink:href="#DejaVuSans-93"/>
     </g>
    </g>
   </g>
   <g id="line2d_29">
    <path clip-path="url(#p3b4d708c31)" d="M 207.989723 110.476629 
L 47.876817 110.476629 
" style="fill:none;stroke:#ff0000;stroke-linecap:square;stroke-width:0.5;"/>
   </g>
   <g id="line2d_30">
    <path clip-path="url(#p3b4d708c31)" d="M 227.463063 510.866946 
L 46.145455 106.616529 
" style="fill:none;stroke:#ff0000;stroke-linecap:square;stroke-width:0.5;"/>
   </g>
   <g id="line2d_31">
    <path clip-path="url(#p3b4d708c31)" d="M 227.568885 510.947107 
L 227.463063 510.866946 
L 227.588539 510.753724 
L 227.251352 510.126424 
L 227.42699 510.047838 
L 227.286439 509.658516 
L 227.505879 509.48105 
L 227.425959 509.412755 
L 227.508146 509.004546 
L 227.113257 508.982297 
L 227.262447 508.938933 
L 226.923051 508.680581 
L 227.144618 508.459183 
L 227.701656 508.249356 
L 227.15267 508.088973 
L 227.601255 507.789921 
L 226.801498 507.752571 
L 227.335315 507.6283 
L 226.642464 507.625725 
L 227.080685 507.192953 
L 227.554653 507.142551 
L 226.486303 507.077711 
L 226.887878 506.983371 
L 226.700175 506.92551 
L 227.292773 506.672961 
L 227.421882 506.480101 
L 227.191209 506.460607 
L 227.338816 506.262434 
L 226.823118 506.115759 
L 227.444629 505.814978 
L 226.370499 505.642597 
L 226.643224 505.440454 
L 227.261025 505.136758 
L 226.849044 505.025045 
L 227.146226 504.994041 
L 226.988877 504.735614 
L 226.596971 504.599681 
L 226.800599 504.443251 
L 227.331535 504.412228 
L 226.868015 504.343347 
L 226.299779 504.268498 
L 227.09376 504.243703 
L 226.499886 504.112205 
L 227.268207 503.962057 
L 226.241828 503.854631 
L 226.887001 503.613861 
L 227.283806 503.520036 
L 226.205971 503.516793 
L 226.43271 503.327935 
L 226.090781 503.259722 
L 226.901296 503.133528 
L 225.985281 502.695624 
L 226.966291 502.457584 
L 225.92461 502.391613 
L 226.101449 502.358534 
L 226.960376 502.217759 
L 225.961495 502.062688 
L 226.8332 501.972729 
L 226.682101 501.495396 
L 225.838972 501.215035 
L 226.848528 500.916255 
L 226.036663 500.788672 
L 226.88969 500.615724 
L 226.808227 500.320243 
L 226.349364 500.201549 
L 226.798557 499.980326 
L 225.860215 499.949054 
L 226.613916 499.850009 
L 226.492821 499.804731 
L 225.974253 499.456212 
L 226.486514 499.438575 
L 226.661183 499.296834 
L 226.214716 499.116752 
L 226.692948 498.893449 
L 225.870864 498.754727 
L 226.446314 498.698071 
L 225.5372 498.26836 
L 226.629273 498.147005 
L 226.387895 498.029686 
L 225.861274 498.001562 
L 226.173031 498.000276 
L 226.004114 497.751178 
L 225.532703 497.620102 
L 225.749531 497.466308 
L 226.30086 497.440584 
L 226.117859 497.404598 
L 226.484322 497.238214 
L 225.822479 497.103398 
L 226.656686 496.955637 
L 225.559298 496.947725 
L 226.121601 496.419971 
L 225.740359 496.384377 
L 226.527454 496.272524 
L 225.488183 496.165684 
L 226.038976 496.035505 
L 225.167929 496.010754 
L 225.756734 495.676028 
L 226.602509 495.614498 
L 225.11474 495.477841 
L 226.109993 495.364988 
L 225.242746 495.330959 
L 226.382414 494.844808 
L 225.059898 494.753079 
L 226.421246 494.588959 
L 225.361726 494.424696 
L 225.697465 494.39497 
L 225.910725 494.325209 
L 226.083992 493.975429 
L 224.945905 493.748429 
L 225.88505 493.645571 
L 226.031835 493.452826 
L 224.827654 493.22126 
L 225.866167 493.10087 
L 225.02111 492.86223 
L 225.166309 492.701192 
L 225.611402 492.611597 
L 225.37565 492.581588 
L 224.825754 492.517438 
L 224.891026 492.297584 
L 225.60012 492.290829 
L 225.181712 492.180958 
L 225.228848 492.167285 
L 225.358917 492.082693 
L 224.892375 491.663534 
L 225.695288 491.605249 
L 225.097036 491.505136 
L 225.50229 491.473139 
L 225.429065 491.228839 
L 225.102005 491.061772 
L 225.783245 491.035971 
L 225.556678 490.960868 
L 225.601852 490.724981 
L 225.882648 490.70668 
L 225.352816 490.592278 
L 225.410394 490.463006 
L 225.100628 490.416799 
L 225.674533 490.112978 
L 225.135597 490.085108 
L 225.202785 489.815424 
L 224.938192 489.659582 
L 225.261977 489.499601 
L 224.828541 489.446913 
L 224.886419 489.405111 
L 224.667094 489.11259 
L 225.511144 489.073805 
L 224.853287 489.066288 
L 224.589696 488.881282 
L 225.159854 488.870586 
L 224.592009 488.746697 
L 225.329419 488.682703 
L 224.972807 488.61944 
L 224.439886 488.518049 
L 225.11627 488.418695 
L 224.41087 488.316405 
L 224.766294 488.205428 
L 224.433482 488.155887 
L 225.357151 487.91062 
L 224.319263 487.871576 
L 224.317485 487.758627 
L 225.339443 487.597183 
L 224.419193 487.363189 
L 224.510395 487.162243 
L 224.25311 486.945622 
L 225.290179 486.732634 
L 224.221692 486.71336 
L 224.754453 486.279213 
L 224.406696 486.106209 
L 224.278641 485.753972 
L 225.351392 485.739483 
L 224.196323 485.651389 
L 224.779509 485.592148 
L 224.897413 485.463209 
L 225.105338 485.453136 
L 224.295077 485.310666 
L 224.951717 484.771563 
L 224.336994 484.662527 
L 224.205734 484.460388 
L 224.942694 484.322516 
L 224.650835 484.277863 
L 224.357692 484.186071 
L 224.082394 484.089638 
L 224.548067 483.864895 
L 224.190985 483.845581 
L 224.70148 483.675465 
L 223.887866 483.504491 
L 224.314637 483.393202 
L 224.012527 483.33247 
L 224.059152 483.146595 
L 224.594327 482.96716 
L 224.114364 482.848227 
L 224.961278 482.847247 
L 223.740061 482.810448 
L 223.532733 482.619013 
L 224.606056 482.618018 
L 223.97579 482.325165 
L 224.746499 482.153713 
L 224.457262 482.120167 
L 223.409073 482.032973 
L 223.676555 481.976674 
L 223.817677 481.632224 
L 224.54922 481.585022 
L 224.103593 481.488072 
L 224.688615 481.317038 
L 223.498587 481.296701 
L 224.418455 481.202547 
L 223.955583 481.163493 
L 224.207035 481.013016 
L 224.087183 480.860775 
L 223.674065 480.788268 
L 223.56899 480.650388 
L 223.842127 480.488486 
L 224.411019 480.486126 
L 224.201942 480.366855 
L 223.574336 480.274143 
L 223.63809 480.242449 
L 224.53527 480.006753 
L 224.093998 479.811975 
L 223.621212 479.776562 
L 224.210138 479.72143 
L 223.970736 479.688705 
L 224.269654 479.561223 
L 223.428774 479.494572 
L 224.420135 479.320453 
L 223.283129 479.213435 
L 224.136656 479.101465 
L 223.979726 478.974778 
L 223.408101 478.827213 
L 224.487725 478.66902 
L 223.284871 478.577756 
L 224.749275 478.554553 
L 223.692947 478.467876 
L 223.914312 478.412082 
L 223.353845 478.407721 
L 224.417809 478.153151 
L 224.225573 478.147473 
L 224.580707 477.911604 
L 223.20298 477.85808 
L 224.495407 477.7615 
L 223.574695 477.740102 
L 223.463546 477.519697 
L 223.675156 477.470943 
L 223.108251 477.378667 
L 223.777702 477.272296 
L 223.297693 477.248953 
L 224.157529 477.003646 
L 223.364866 476.959458 
L 223.823515 476.950355 
L 223.509304 476.835541 
L 224.192273 476.747165 
L 223.653634 476.654928 
L 223.016542 476.428527 
L 224.062538 476.264043 
L 223.235454 476.231187 
L 223.93825 475.901801 
L 223.123993 475.678273 
L 223.02234 475.364755 
L 224.077054 475.152003 
L 223.994869 475.134764 
L 223.43504 475.020761 
L 223.925385 474.74246 
L 223.218629 474.68318 
L 224.152156 474.553508 
L 223.623915 474.301223 
L 224.031414 474.179545 
L 224.01574 474.12907 
L 223.20036 473.922429 
L 223.78366 473.71136 
L 223.581118 473.644013 
L 222.976736 473.523909 
L 224.044044 473.409013 
L 223.218771 473.404646 
L 222.978124 473.152396 
L 223.752828 473.126094 
L 223.842775 472.981945 
L 223.159709 472.831344 
L 223.760646 472.777487 
L 223.466177 472.727113 
L 222.92365 472.638355 
L 222.974126 472.43269 
L 223.686578 472.253708 
L 223.229536 472.048745 
L 223.603697 472.019914 
L 223.103562 471.946674 
L 223.272179 471.853229 
L 222.779891 471.632964 
L 222.814507 471.49578 
L 223.283644 471.457701 
L 222.920261 471.400177 
L 223.326728 471.32812 
L 222.843074 471.109805 
L 223.255557 470.914966 
L 222.770788 470.901508 
L 222.994093 470.713498 
L 222.862441 470.706338 
L 223.487205 470.567143 
L 223.115101 470.380337 
L 222.974658 470.316796 
L 223.536191 470.189132 
L 222.775905 470.025626 
L 223.681959 470.019701 
L 222.929289 469.92529 
L 223.134756 469.908028 
L 222.882043 469.902991 
L 223.867588 469.664175 
L 222.676234 469.640939 
L 223.453444 469.620058 
L 223.037019 469.502288 
L 223.341951 469.250445 
L 222.923987 469.217153 
L 223.7956 469.210221 
L 222.662466 468.847635 
L 223.752858 468.811658 
L 222.828217 468.608223 
L 223.631814 468.563958 
L 223.265265 468.502222 
L 223.395089 468.444927 
L 223.129506 468.436777 
L 223.035819 468.299008 
L 223.33851 467.902085 
L 222.952898 467.859716 
L 223.152634 467.795501 
L 222.877799 467.629114 
L 223.169899 467.524919 
L 222.995643 467.470512 
L 222.876632 467.288108 
L 223.467294 467.222261 
L 222.992618 467.102663 
L 223.234796 466.511003 
L 222.653601 466.368632 
L 222.785753 466.319229 
L 223.037857 466.075194 
L 222.566663 465.858216 
L 222.875168 465.645014 
L 223.193151 465.619319 
L 222.436579 465.587425 
L 222.399396 465.441777 
L 222.49329 465.195368 
L 222.99527 465.179151 
L 222.385892 465.12894 
L 222.671273 464.936121 
L 222.516958 464.735769 
L 222.809153 464.642983 
L 223.156684 464.41184 
L 222.366953 464.384598 
L 222.761475 464.356252 
L 222.50938 464.192711 
L 223.095769 464.099268 
L 222.386962 464.049386 
L 223.202847 464.002542 
L 222.490199 463.842947 
L 222.907049 463.771185 
L 222.588994 463.692582 
L 223.080153 463.481597 
L 222.654387 463.465524 
L 223.015028 463.185778 
L 222.618868 463.123786 
L 222.767952 462.825615 
L 222.415506 462.732146 
L 222.80478 462.508652 
L 222.49887 462.457821 
L 223.039825 462.167926 
L 222.445458 462.126787 
L 223.157289 462.057881 
L 222.325825 461.951424 
L 222.427983 461.874563 
L 222.727616 461.845352 
L 222.58819 461.718209 
L 222.753469 461.697171 
L 222.266664 461.572714 
L 222.420639 461.545762 
L 222.236585 461.449436 
L 223.162452 461.396631 
L 222.864431 461.389421 
L 222.359648 461.20905 
L 222.243516 461.018368 
L 222.485923 460.87124 
L 222.233417 460.826308 
L 222.280998 460.409389 
L 223.119159 460.393185 
L 222.236607 460.358012 
L 222.431433 460.282104 
L 222.37561 460.05694 
L 222.612555 459.961435 
L 222.301443 459.929052 
L 222.596697 459.672126 
L 222.493153 459.65408 
L 222.96535 459.64803 
L 222.352132 459.576125 
L 223.149625 459.532899 
L 222.287416 459.150148 
L 222.861105 459.123152 
L 222.638504 459.068789 
L 223.019151 458.95576 
L 222.366903 458.906341 
L 222.470353 458.880051 
L 223.100453 458.568386 
L 222.151435 458.453166 
L 223.003276 458.373461 
L 222.143528 458.227796 
L 222.952314 458.164338 
L 222.44897 458.079466 
L 222.875235 458.074515 
L 222.679214 457.88274 
L 222.793227 457.670154 
L 222.23768 457.566279 
L 222.703811 457.506587 
L 221.969408 457.486919 
L 222.533745 457.451672 
L 222.813791 457.232436 
L 222.765626 457.081358 
L 222.301956 456.786132 
L 222.097822 456.650885 
L 222.799068 456.638927 
L 223.003877 456.495438 
L 222.632553 456.491713 
L 222.97002 456.356264 
L 222.987379 456.171057 
L 222.157704 456.059634 
L 223.202416 456.030156 
L 223.084979 455.794742 
L 222.202853 455.642682 
L 222.525291 455.474442 
L 222.99674 455.47323 
L 223.123925 455.213408 
L 223.084724 455.206707 
L 222.738031 455.125371 
L 222.484915 454.846065 
L 222.243873 454.811318 
L 222.980921 454.66232 
L 222.398608 454.634901 
L 222.831103 454.447278 
L 222.216044 454.287498 
L 222.85121 454.168104 
L 222.280878 454.157608 
L 222.661606 454.030947 
L 222.551313 453.797577 
L 222.209912 453.755397 
L 222.199349 453.480748 
L 222.723454 453.451498 
L 222.192644 453.424699 
L 222.386836 453.386842 
L 222.905186 453.303371 
L 222.28131 453.134342 
L 222.234718 452.940069 
L 223.132899 452.783493 
L 222.231838 452.678292 
L 222.399305 452.407727 
L 223.191435 452.294403 
L 222.392418 452.169018 
L 222.755833 452.134471 
L 222.708548 451.998443 
L 222.41708 451.915482 
L 223.07733 451.90475 
L 222.507117 451.845092 
L 222.743757 451.662845 
L 222.421959 451.61902 
L 223.057324 451.492909 
L 222.546607 451.454226 
L 223.453088 451.280527 
L 222.360442 451.152046 
L 223.501813 451.12152 
L 222.668234 451.069154 
L 222.391748 450.807367 
L 223.424347 450.678967 
L 223.081423 450.584042 
L 222.183094 450.561791 
L 222.058635 450.308485 
L 223.369412 450.231037 
L 222.254392 450.181882 
L 223.095688 450.033855 
L 222.072079 449.980283 
L 222.50865 449.904786 
L 223.374036 449.871438 
L 222.079758 449.781756 
L 222.320634 449.645236 
L 223.250946 449.642814 
L 222.380198 449.632989 
L 222.678034 449.517755 
L 223.074741 449.510212 
L 222.672791 449.312903 
L 222.719404 449.038745 
L 223.199091 448.947072 
L 222.89955 448.696649 
L 222.990196 448.668495 
L 223.282511 448.591696 
L 223.13272 448.541094 
L 223.120254 448.305536 
L 223.242897 448.074101 
L 223.048196 447.771631 
L 223.170075 447.7706 
L 223.23388 447.761248 
L 223.319005 447.446285 
L 223.035614 447.377924 
L 223.279085 447.243498 
L 223.158423 447.142639 
L 223.377234 447.077143 
L 223.068856 446.819127 
L 223.523976 446.817727 
L 223.410039 446.748971 
L 223.179748 446.640939 
L 223.583222 446.507049 
L 223.438644 446.402484 
L 222.940193 446.302173 
L 223.625161 446.292011 
L 223.069081 446.220549 
L 223.743802 446.174294 
L 223.411052 446.111835 
L 223.71701 445.855374 
L 223.454467 445.710147 
L 223.688887 445.685402 
L 223.022927 445.631496 
L 223.853011 445.301113 
L 223.928103 445.049698 
L 223.623846 444.985954 
L 223.742548 444.826631 
L 223.171839 444.762168 
L 223.592239 444.470081 
L 223.311196 444.446083 
L 223.900452 444.373507 
L 223.805804 444.355318 
L 223.139633 444.311518 
L 223.702605 444.292049 
L 223.241122 444.042302 
L 223.848246 443.89374 
L 223.843543 443.760764 
L 223.430516 443.709493 
L 223.870215 443.595742 
L 223.616928 443.430087 
L 223.522916 443.153714 
L 223.909869 442.992726 
L 223.320665 442.983559 
L 224.072026 442.799331 
L 223.762695 442.635308 
L 224.208651 442.362449 
L 223.54108 442.331351 
L 224.080007 442.23862 
L 223.777285 442.238069 
L 224.286129 441.929706 
L 223.968077 441.8543 
L 224.250018 441.555294 
L 223.838913 441.435231 
L 224.424536 441.400721 
L 224.29113 441.037762 
L 223.73022 440.990458 
L 224.47561 440.878696 
L 224.516305 440.601786 
L 224.032327 440.379179 
L 224.574283 440.275603 
L 224.217896 439.907259 
L 224.610528 439.72103 
L 224.110234 439.611626 
L 224.204565 439.594586 
L 224.540648 439.470526 
L 224.205052 439.115389 
L 224.764235 438.858886 
L 224.525695 438.854499 
L 224.505874 438.530181 
L 224.356539 438.527479 
L 224.650665 438.473806 
L 224.650862 438.098668 
L 224.345536 438.037276 
L 224.527532 437.813341 
L 224.892887 437.744315 
L 224.783143 437.722677 
L 224.640829 437.416233 
L 224.922772 437.254287 
L 224.466967 437.021869 
L 224.905251 436.939519 
L 224.62085 436.871254 
L 225.028116 436.536327 
L 224.775666 436.329184 
L 224.485496 436.201713 
L 225.085598 435.919562 
L 224.697919 435.874839 
L 224.980415 435.852907 
L 224.90743 435.646467 
L 225.020314 435.549122 
L 224.902445 435.39352 
L 225.223203 435.178765 
L 224.866653 435.066898 
L 225.308203 434.740053 
L 225.161954 434.701729 
L 225.405482 434.417042 
L 225.080019 434.364322 
L 225.44157 434.290598 
L 225.287654 434.259755 
L 225.526445 434.159172 
L 225.692694 433.925957 
L 225.79646 433.764458 
L 225.75862 433.36019 
L 226.069204 433.049911 
L 226.001546 432.877854 
L 226.194611 432.816094 
L 226.125312 432.773169 
L 226.178147 432.650378 
L 225.866408 432.637856 
L 226.266118 432.510912 
L 226.288538 432.369251 
L 226.346386 431.990957 
L 226.20895 431.858647 
L 226.329411 431.714028 
L 225.907679 431.622647 
L 226.359576 431.497124 
L 226.192818 431.431682 
L 226.404311 431.265287 
L 225.903604 430.990017 
L 226.307577 430.88829 
L 226.462006 430.649782 
L 226.155685 430.586976 
L 226.390294 430.372397 
L 226.05037 430.348717 
L 226.187214 430.261881 
L 226.476372 430.127297 
L 225.76134 429.779018 
L 226.539269 429.700801 
L 226.069674 429.69742 
L 226.491197 429.572601 
L 226.360308 429.346017 
L 225.879662 429.021131 
L 226.4835 428.805028 
L 225.811106 428.78145 
L 226.483474 428.497906 
L 225.929708 427.987559 
L 226.420746 427.802109 
L 225.790313 427.628517 
L 226.220599 427.611899 
L 226.426399 427.067102 
L 226.03993 427.032975 
L 226.242976 426.91523 
L 225.865595 426.91098 
L 226.406912 426.650354 
L 226.193629 426.647971 
L 226.478267 426.534604 
L 226.052969 426.517946 
L 226.47974 426.322987 
L 225.888152 426.303946 
L 226.325396 426.275445 
L 226.582701 425.942982 
L 226.045252 425.771813 
L 226.598581 425.593637 
L 226.021591 425.501256 
L 226.610107 425.220325 
L 226.422878 424.962871 
L 226.7128 424.953384 
L 226.529446 424.724223 
L 226.726192 424.518288 
L 226.188149 424.46165 
L 226.428509 424.262032 
L 226.718908 424.215168 
L 226.592027 423.668869 
L 226.380627 423.466081 
L 226.668924 423.353958 
L 226.617625 423.279997 
L 226.270537 423.222281 
L 226.640761 423.214284 
L 226.460987 423.131999 
L 226.567636 422.825551 
L 226.394681 422.79127 
L 226.603178 422.78788 
L 226.630351 422.70985 
L 226.311243 422.59823 
L 226.580263 422.383106 
L 226.540387 422.366595 
L 226.623401 422.082039 
L 226.515522 422.004388 
L 226.583438 421.783361 
L 226.425178 421.656007 
L 226.669106 421.568601 
L 226.723314 420.833568 
L 226.770611 420.81153 
L 226.66343 420.797332 
L 226.504789 420.669543 
L 226.63225 420.629366 
L 226.44791 420.530938 
L 226.895282 420.271426 
L 226.846284 420.078308 
L 226.505969 419.83994 
L 226.769763 419.573398 
L 226.572324 419.565995 
L 226.996829 419.520598 
L 226.918919 419.346545 
L 226.56402 419.278732 
L 226.689315 419.202656 
L 227.084189 419.110105 
L 226.650576 418.93336 
L 227.244281 418.897732 
L 226.794332 418.754198 
L 227.295263 418.681 
L 227.21943 418.662121 
L 227.124266 418.38563 
L 226.797389 418.356075 
L 227.360381 417.998948 
L 227.307917 417.950634 
L 227.064284 417.838933 
L 227.297602 417.741954 
L 227.057955 417.61123 
L 227.363473 417.243287 
L 227.162936 417.084596 
L 227.366288 416.831769 
L 227.296113 416.486364 
L 227.364344 416.482746 
L 227.338617 416.302046 
L 227.339948 416.235384 
L 227.467428 416.082148 
L 227.351064 416.072541 
L 227.291274 415.940789 
L 227.57378 415.863556 
L 227.356333 415.780867 
L 227.47429 415.664765 
L 227.769085 415.601383 
L 227.422062 415.465978 
L 227.989648 415.381539 
L 227.849664 415.377047 
L 227.362086 415.313296 
L 228.132631 415.193177 
L 228.155139 415.010028 
L 227.412679 414.869842 
L 227.455222 414.776867 
L 227.604818 414.704052 
L 227.895418 414.668235 
L 228.148115 414.214217 
L 227.746472 414.161906 
L 228.182329 414.072178 
L 227.703791 413.708149 
L 228.200755 413.682358 
L 227.595811 413.658184 
L 228.17662 413.463725 
L 227.638222 413.246044 
L 228.174952 412.996762 
L 227.878419 412.826663 
L 228.104682 412.762114 
L 228.184176 412.405337 
L 227.802482 412.386418 
L 228.013712 411.986031 
L 228.437868 411.876687 
L 227.712514 411.778421 
L 228.328603 411.633471 
L 227.916733 411.424125 
L 228.371755 410.949607 
L 227.840457 410.791529 
L 228.527395 410.705616 
L 228.172815 410.611539 
L 228.75254 410.275748 
L 228.021377 410.262129 
L 228.443672 410.140179 
L 228.206346 410.116762 
L 228.75563 409.894561 
L 228.833889 409.484633 
L 228.204789 409.43415 
L 228.749846 409.302512 
L 228.425115 409.301717 
L 228.282349 409.256328 
L 229.209341 409.053134 
L 228.961263 408.82053 
L 228.627123 408.7523 
L 229.283608 408.436776 
L 228.438381 408.42944 
L 229.418719 408.369532 
L 228.440803 408.286911 
L 228.725715 408.220753 
L 229.304452 408.016477 
L 228.994505 407.962153 
L 229.424688 407.916647 
L 229.50411 407.682321 
L 228.526443 407.417373 
L 229.460118 407.102175 
L 229.345692 406.927101 
L 228.59716 406.775053 
L 229.418995 406.714117 
L 228.774584 406.426274 
L 229.426591 406.378253 
L 229.044387 406.378026 
L 228.771844 406.064401 
L 229.666974 406.042435 
L 228.769061 405.99229 
L 229.648209 405.914726 
L 229.37354 405.718794 
L 229.004293 405.662242 
L 229.145216 405.479212 
L 229.742297 405.303999 
L 229.002536 405.248599 
L 228.960598 405.12156 
L 229.720904 405.11086 
L 229.546894 404.793706 
L 229.750027 404.661858 
L 230.028788 404.613851 
L 229.273655 404.461943 
L 230.034594 404.358485 
L 229.112146 404.245249 
L 229.894653 404.19607 
L 229.343646 404.150983 
L 229.21162 403.966973 
L 229.635637 403.719694 
L 229.404302 403.615171 
L 229.981316 403.578047 
L 229.399735 403.359171 
L 229.764549 403.29063 
L 229.539214 403.248977 
L 229.51198 403.069873 
L 229.655603 403.032942 
L 229.623499 402.965143 
L 229.779687 402.63449 
L 229.881194 402.543946 
L 229.740918 402.532007 
L 229.654424 402.503053 
L 229.76812 402.381715 
L 230.037958 402.289493 
L 229.796554 402.235497 
L 230.221628 401.673319 
L 230.137423 401.614738 
L 230.232141 401.56952 
L 230.291343 401.551468 
L 230.489264 401.078779 
L 230.649322 400.998892 
L 230.600502 400.797554 
L 230.832302 400.49695 
L 230.798505 400.354713 
L 231.1713 399.571028 
L 230.898998 399.556784 
L 231.146244 399.450127 
L 231.096414 399.403603 
L 231.278825 398.976809 
L 231.052714 398.936036 
L 231.312453 398.86579 
L 231.206019 398.768737 
L 231.4195 398.699986 
L 231.424046 398.408543 
L 231.21789 398.381851 
L 231.180984 398.263103 
L 231.455177 398.220482 
L 231.499068 397.986253 
L 231.61463 397.939945 
L 231.238608 397.811429 
L 231.45185 397.719114 
L 231.301302 397.712134 
L 231.213886 397.640753 
L 231.436536 397.446524 
L 231.744053 397.407779 
L 231.235002 397.255209 
L 231.677026 397.245308 
L 231.564055 397.20846 
L 231.190994 396.831358 
L 231.790553 396.762454 
L 231.696885 396.624601 
L 231.885764 396.517166 
L 231.416933 396.418394 
L 231.674641 396.093796 
L 231.35156 396.005857 
L 231.426527 395.884467 
L 231.342848 395.779781 
L 231.388861 395.582354 
L 231.639458 395.575781 
L 231.384914 395.428384 
L 231.51202 395.189805 
L 231.400701 395.174076 
L 231.41896 394.679166 
L 231.493465 394.576487 
L 231.492412 394.063444 
L 231.569849 393.07358 
L 231.433444 392.859579 
L 231.523336 392.143372 
L 231.593029 392.016612 
L 231.405702 392.000564 
L 231.636848 391.598165 
L 231.394963 391.538306 
L 231.65491 391.515288 
L 231.588932 391.163109 
L 231.524382 391.069442 
L 231.35803 391.05796 
L 231.717975 390.977573 
L 231.425066 390.87273 
L 231.711781 390.846882 
L 231.488781 390.589809 
L 231.338943 390.498802 
L 231.738628 390.461662 
L 231.688621 390.418856 
L 231.477264 390.20235 
L 231.736796 390.035608 
L 231.210554 390.009964 
L 231.750026 389.675437 
L 231.314253 389.591879 
L 231.822339 389.486641 
L 231.202183 389.390113 
L 231.599945 389.372998 
L 231.864734 389.080189 
L 231.501241 389.058319 
L 231.747537 388.830338 
L 231.447537 388.74778 
L 231.985305 388.692248 
L 231.922588 388.61889 
L 231.378759 388.581594 
L 232.000675 388.526916 
L 231.665489 388.351294 
L 231.783705 388.345971 
L 232.181844 388.092896 
L 231.467889 388.060555 
L 232.177092 387.91175 
L 231.848826 387.834442 
L 232.353017 387.708471 
L 232.341502 387.544349 
L 231.937143 387.459128 
L 232.506018 387.314037 
L 232.326616 387.218653 
L 232.813148 387.150563 
L 232.448136 387.138155 
L 233.882776 386.793868 
L 235.524848 386.586882 
L 235.176688 386.573424 
L 235.437444 386.568984 
L 236.083166 386.428278 
L 237.660665 386.23006 
L 238.79004 385.994273 
L 239.087369 385.922542 
L 240.64662 385.781481 
L 240.200151 385.75679 
L 240.272771 385.736851 
L 241.958892 385.534288 
L 241.889193 385.512777 
L 241.757464 385.428679 
L 243.539441 385.224014 
L 242.451251 385.161584 
L 244.038458 385.089082 
L 244.822312 384.856317 
L 244.049071 384.7282 
L 245.259412 384.725703 
L 244.031381 384.663773 
L 245.957931 384.510235 
L 244.381685 384.480861 
L 245.150386 384.420527 
L 246.338574 384.35984 
L 246.802366 384.189579 
L 246.210373 384.154597 
L 246.92304 383.99933 
L 245.923248 383.871448 
L 247.946548 383.636621 
L 247.374222 383.613649 
L 246.847492 383.392789 
L 248.272446 383.386337 
L 246.58328 383.330797 
L 248.447109 383.117332 
L 247.214852 383.11529 
L 248.731494 383.057923 
L 246.818057 382.950377 
L 248.820759 382.933916 
L 248.517131 382.914209 
L 248.062267 382.79362 
L 248.969064 382.602789 
L 247.405704 382.581047 
L 249.020204 382.564578 
L 247.906619 382.518211 
L 249.033533 382.358441 
L 249.001147 382.306573 
L 248.300361 382.115106 
L 247.798152 382.097659 
L 249.054545 382.066439 
L 249.036092 381.994672 
L 247.82439 381.907059 
L 248.794877 381.762666 
L 246.336769 381.684854 
L 248.806786 381.671908 
L 248.067846 381.567745 
L 246.646692 381.555813 
L 248.350001 381.53551 
L 247.523423 381.466112 
L 247.995307 381.429518 
L 244.742569 381.378397 
L 248.331388 381.357437 
L 244.855094 381.301858 
L 248.00094 381.282612 
L 247.670723 381.175364 
L 243.743781 381.140125 
L 243.889801 381.002332 
L 247.534364 380.98769 
L 246.764438 380.859228 
L 243.111268 380.838935 
L 244.838887 380.75073 
L 246.674232 380.731266 
L 242.969741 380.685742 
L 245.961927 380.591195 
L 245.920359 380.502029 
L 243.459331 380.453353 
L 245.501882 380.292462 
L 241.757899 380.206098 
L 242.697597 379.914419 
L 244.293354 379.879148 
L 244.244997 379.816901 
L 240.838421 379.743946 
L 243.176235 379.658195 
L 241.452108 379.647913 
L 240.613625 379.617971 
L 243.326433 379.449983 
L 240.593224 379.320904 
L 242.679466 379.285759 
L 241.837746 379.172326 
L 239.724932 379.058378 
L 242.254896 379.043092 
L 239.380432 378.897756 
L 240.411419 378.877431 
L 241.17316 378.836465 
L 240.773459 378.734904 
L 241.138256 378.636557 
L 238.922209 378.579632 
L 240.479359 378.414343 
L 240.376833 378.364415 
L 238.828985 378.363304 
L 240.622068 378.336489 
L 240.094058 378.094766 
L 238.978547 377.98128 
L 239.494295 377.869966 
L 237.800263 377.821859 
L 239.291806 377.632034 
L 237.759135 377.616057 
L 239.301904 377.602117 
L 238.327286 377.545761 
L 238.495883 377.247303 
L 236.702027 377.131236 
L 236.761551 377.094081 
L 238.63162 377.008455 
L 238.541522 376.939843 
L 236.839692 376.930081 
L 237.836596 376.630957 
L 235.723086 376.532143 
L 237.976713 376.445432 
L 235.415137 376.320095 
L 236.247821 376.266124 
L 237.601488 376.263872 
L 235.269964 376.184848 
L 235.779973 376.175945 
L 236.941322 376.115327 
L 236.761581 376.026563 
L 234.389391 375.956718 
L 234.488576 375.915923 
L 236.719354 375.834244 
L 234.27762 375.782151 
L 236.454315 375.742326 
L 234.473979 375.664494 
L 235.575689 375.55577 
L 234.523959 375.430627 
L 234.640028 375.233829 
L 232.268521 375.074228 
L 233.057789 375.022893 
L 231.867089 374.913838 
L 233.54849 374.778085 
L 233.433987 374.742938 
L 231.658859 374.610083 
L 232.133607 374.484419 
L 231.546026 374.319408 
L 231.677981 374.221931 
L 231.378605 374.165775 
L 231.756251 374.157181 
L 231.340713 373.887678 
L 231.508715 373.837115 
L 231.441009 373.645805 
L 231.181377 373.450945 
L 231.259775 373.260314 
L 231.06904 373.151399 
L 231.078321 372.998037 
L 231.225648 372.886683 
L 231.022821 372.69598 
L 230.968845 372.642831 
L 230.9118 372.177103 
L 231.074753 372.164954 
L 230.977214 372.1132 
L 231.036045 371.4223 
L 230.792223 371.346011 
L 230.838205 371.332067 
L 230.737697 370.539148 
L 231.095057 370.508224 
L 230.728502 370.295793 
L 230.765844 369.979489 
L 231.042328 369.802942 
L 230.798403 369.732484 
L 230.851318 369.529667 
L 230.723803 369.339937 
L 230.760994 368.943537 
L 231.080099 368.798778 
L 230.767571 368.46585 
L 230.789845 368.28969 
L 230.986357 368.261053 
L 230.936019 368.169725 
L 230.839551 367.795583 
L 230.875468 367.232952 
L 230.719076 367.211663 
L 230.87819 367.167126 
L 230.948282 366.52488 
L 230.827779 366.378392 
L 230.649035 366.362427 
L 230.529778 366.187431 
L 230.959381 366.093265 
L 230.926994 365.934271 
L 230.714414 365.915319 
L 231.02355 365.352319 
L 230.844995 365.327404 
L 230.69171 365.060221 
L 230.999938 365.033755 
L 230.593148 364.907849 
L 231.011051 364.68957 
L 230.849062 364.673302 
L 230.719841 364.63491 
L 230.930181 364.181046 
L 230.61327 364.034259 
L 230.859903 363.924879 
L 230.728945 363.355325 
L 230.745021 363.351941 
L 230.485858 363.326469 
L 230.556336 363.208813 
L 230.572732 362.710621 
L 230.499272 362.695465 
L 230.536408 362.543555 
L 230.2259 362.432788 
L 230.452229 362.299731 
L 230.38107 362.156683 
L 230.212246 361.903217 
L 230.187426 361.772993 
L 229.977319 361.450634 
L 229.723343 361.358488 
L 229.858508 361.349766 
L 229.841799 361.207259 
L 229.677749 360.948017 
L 229.499267 360.932253 
L 229.388624 360.810416 
L 229.472106 360.686613 
L 229.113352 360.534355 
L 229.249605 360.385554 
L 228.834409 360.030029 
L 229.106101 359.858347 
L 228.381199 359.272039 
L 228.890998 359.18586 
L 228.774829 359.079068 
L 228.255894 359.044368 
L 228.800296 358.827745 
L 227.787456 358.467741 
L 228.352159 358.443221 
L 227.831909 358.11529 
L 228.12455 357.976824 
L 227.652482 357.939836 
L 228.204981 357.857172 
L 227.743618 357.680292 
L 227.290402 357.232431 
L 227.903532 357.225715 
L 227.890501 357.031459 
L 227.593579 356.974844 
L 227.880363 356.788257 
L 227.558678 356.598648 
L 227.387373 356.362036 
L 226.588012 356.032675 
L 227.479316 356.031188 
L 227.248736 355.897589 
L 227.314489 355.727296 
L 226.180097 355.518938 
L 226.733037 355.413071 
L 226.088837 355.124269 
L 226.867199 355.004827 
L 226.697864 354.999318 
L 226.808482 354.703234 
L 226.069409 354.615341 
L 226.92552 354.596643 
L 226.375498 354.123311 
L 226.017779 354.065039 
L 225.660186 353.997839 
L 226.783092 353.914553 
L 226.27783 353.715973 
L 226.217881 353.30866 
L 225.434433 353.246943 
L 225.781888 353.22014 
L 226.406001 352.812101 
L 226.141544 352.599009 
L 225.543807 352.414992 
L 225.844779 352.223789 
L 225.36024 351.885521 
L 226.002904 351.630978 
L 226.094304 351.440041 
L 225.47957 351.389273 
L 225.813942 351.33263 
L 225.393134 351.160532 
L 226.113924 350.846422 
L 225.778883 350.540492 
L 225.90086 350.472577 
L 225.627171 350.364867 
L 225.351438 349.924089 
L 225.939853 349.860793 
L 225.587119 349.782288 
L 225.721536 349.732031 
L 225.217865 349.37206 
L 225.377642 349.325499 
L 225.928207 349.293879 
L 225.223203 348.901441 
L 225.344228 348.850281 
L 225.75637 348.68824 
L 225.926781 348.343125 
L 225.085898 348.020184 
L 225.607561 347.901055 
L 225.209892 347.831425 
L 225.405639 347.783489 
L 226.030221 347.686987 
L 225.088605 347.40315 
L 225.821862 347.378422 
L 225.370539 347.339248 
L 225.694903 347.029654 
L 225.972204 347.007918 
L 225.224637 346.954451 
L 225.91136 346.722028 
L 225.613306 346.502031 
L 226.032311 346.384025 
L 225.716086 346.374087 
L 225.434078 346.354213 
L 225.841471 346.351185 
L 225.587802 345.851233 
L 226.031871 345.735796 
L 225.976899 345.709592 
L 225.910228 345.625067 
L 225.923588 345.410961 
L 226.112081 345.382899 
L 226.228854 344.831541 
L 226.157518 344.730951 
L 226.201575 344.724051 
L 226.304746 344.652763 
L 226.62311 343.326215 
L 226.898297 343.181926 
L 226.823131 342.863276 
L 227.123421 342.626127 
L 227.020119 342.409773 
L 226.89028 342.314844 
L 226.9314 342.287602 
L 227.328781 342.213735 
L 227.28519 342.128544 
L 226.813064 342.107504 
L 227.097307 341.89137 
L 226.98601 341.818921 
L 227.299605 341.530505 
L 226.828061 341.498971 
L 227.437591 341.489098 
L 226.942598 341.483574 
L 227.624918 341.316138 
L 227.096222 341.096336 
L 226.944718 340.762375 
L 227.469145 340.754438 
L 227.33684 340.714572 
L 227.052916 340.472051 
L 227.71756 340.315605 
L 227.52035 340.074291 
L 226.771083 339.779528 
L 227.111642 339.671949 
L 227.706942 339.601892 
L 227.471347 339.320408 
L 226.459953 339.0993 
L 227.490821 338.976303 
L 226.503458 338.693546 
L 227.265156 338.641675 
L 227.114635 338.623166 
L 226.691156 338.543128 
L 226.328167 338.33947 
L 226.503838 337.773977 
L 226.930609 337.737589 
L 226.411545 337.712313 
L 226.752618 337.568624 
L 226.755547 337.309407 
L 226.418014 337.033998 
L 226.53664 336.943274 
L 226.195959 336.746191 
L 226.586285 336.505467 
L 226.111192 336.292195 
L 226.373852 335.829309 
L 226.10065 335.767145 
L 226.256147 335.467734 
L 226.179486 335.245435 
L 226.397255 335.230385 
L 226.180319 335.17363 
L 226.211222 334.997977 
L 225.985682 334.777077 
L 226.289382 334.68667 
L 226.109967 334.575208 
L 226.164116 334.529292 
L 226.117814 334.163945 
L 225.901451 334.122477 
L 226.082547 334.072231 
L 226.09539 333.797633 
L 225.866566 333.62072 
L 226.018798 333.365671 
L 226.030889 333.200723 
L 225.746408 333.025286 
L 225.872774 332.629729 
L 225.62386 332.224969 
L 225.852831 332.09662 
L 225.713732 332.057979 
L 225.962648 331.885205 
L 225.692828 331.448509 
L 225.898381 331.387705 
L 225.774632 331.361355 
L 225.654983 331.226695 
L 225.627819 330.819837 
L 225.79702 330.725843 
L 225.536634 330.631891 
L 225.672792 330.334651 
L 225.457121 329.951408 
L 225.603864 329.945728 
L 225.738971 329.739258 
L 225.27877 329.501128 
L 225.328973 329.274112 
L 225.208785 328.949412 
L 225.558071 328.760345 
L 225.321841 328.73737 
L 225.000692 328.466807 
L 225.594012 328.447881 
L 225.028683 328.417578 
L 225.09236 328.293257 
L 225.452962 328.266897 
L 225.179884 327.845562 
L 225.482938 327.734244 
L 224.866247 327.5777 
L 224.776136 327.450975 
L 225.296391 327.363191 
L 224.704298 326.818456 
L 225.252413 326.744703 
L 225.136393 326.612614 
L 224.610667 326.335351 
L 224.947782 326.32364 
L 225.152909 326.036205 
L 225.101447 325.904501 
L 224.649245 325.580754 
L 224.931988 325.434221 
L 224.726044 325.400352 
L 225.064309 325.349088 
L 224.559447 325.207804 
L 224.835193 324.833602 
L 224.719102 324.825714 
L 224.931776 324.478023 
L 224.259436 324.455731 
L 224.863961 324.44095 
L 224.399775 323.97168 
L 224.499493 323.921454 
L 224.751103 323.877627 
L 224.603734 323.770855 
L 224.863704 323.726245 
L 224.79408 323.653352 
L 224.128066 323.619531 
L 224.780201 322.804827 
L 224.666369 322.792713 
L 224.324489 322.7129 
L 224.475176 322.439939 
L 224.776788 322.272317 
L 224.654446 322.139007 
L 224.215352 321.829378 
L 224.545973 321.729425 
L 224.367848 321.554614 
L 224.643169 321.549456 
L 224.194457 321.386303 
L 224.621526 321.235455 
L 224.243505 320.911178 
L 224.525581 320.894663 
L 224.548806 320.744607 
L 224.300446 320.469298 
L 224.354602 320.170049 
L 223.928743 320.021216 
L 224.450023 320.004844 
L 224.047922 319.956794 
L 224.399703 319.70992 
L 224.285 319.646669 
L 224.277648 319.369074 
L 223.89394 319.307821 
L 224.319681 319.136235 
L 223.942797 318.904442 
L 224.227153 318.473567 
L 224.059124 318.427452 
L 224.108252 318.351055 
L 223.963756 318.142046 
L 224.099168 317.93137 
L 223.636564 317.916747 
L 224.113734 317.531283 
L 223.730802 317.480992 
L 223.978647 317.261437 
L 223.782712 317.235819 
L 224.000763 317.146394 
L 223.633043 317.111284 
L 223.996559 316.82201 
L 223.782817 316.339518 
L 223.919895 316.325323 
L 223.605443 316.145964 
L 223.884116 315.905889 
L 223.803543 315.84201 
L 223.5991 315.348001 
L 223.708024 315.26972 
L 223.753969 315.018845 
L 223.72459 314.731299 
L 223.53372 314.616252 
L 223.768769 314.567628 
L 223.259589 314.548397 
L 223.598576 314.492062 
L 223.715552 314.100002 
L 223.634928 314.08403 
L 223.113393 313.823535 
L 223.555179 313.806667 
L 223.336633 313.604466 
L 223.756908 313.435943 
L 223.354549 313.364845 
L 223.575322 313.352726 
L 223.241902 312.718915 
L 223.403907 312.684499 
L 223.07067 312.565167 
L 223.58207 312.483987 
L 223.455139 312.189245 
L 223.599947 311.681498 
L 222.989847 311.625865 
L 223.160927 311.542752 
L 223.073252 311.457318 
L 223.504341 311.410991 
L 223.310521 311.39566 
L 223.51233 310.923431 
L 223.043048 310.797579 
L 223.190216 310.662858 
L 223.09467 310.355523 
L 223.455079 310.318045 
L 223.328689 310.238579 
L 223.010198 310.152132 
L 223.122755 309.920061 
L 223.400147 309.685596 
L 223.110601 309.496035 
L 223.265618 309.388581 
L 223.08995 309.381366 
L 223.041068 309.321975 
L 223.106724 309.099022 
L 223.390836 308.983085 
L 223.031853 308.794204 
L 223.158141 308.647582 
L 223.028413 308.610974 
L 223.32601 308.408218 
L 223.00562 307.966353 
L 222.998977 307.766352 
L 223.14624 307.561632 
L 222.9287 307.436771 
L 223.01537 307.368537 
L 222.838223 307.104332 
L 222.98636 306.761019 
L 222.782792 306.534769 
L 223.204508 306.526301 
L 222.970615 306.355288 
L 223.068836 306.349889 
L 223.15552 305.908804 
L 223.268731 305.774656 
L 222.722836 305.484033 
L 223.142735 305.316941 
L 222.920879 305.312609 
L 223.044376 305.20377 
L 222.614541 304.924696 
L 223.24492 304.876737 
L 223.145322 304.837064 
L 222.619748 304.658448 
L 223.163093 304.208312 
L 222.640911 304.021158 
L 222.540079 303.528686 
L 222.986768 303.390404 
L 222.42421 303.355578 
L 222.870933 303.141892 
L 222.819122 303.046004 
L 222.491151 302.790112 
L 222.835505 302.692985 
L 222.615643 302.513549 
L 222.260882 302.399048 
L 222.403753 302.338035 
L 222.87824 302.27706 
L 222.222056 302.0491 
L 222.678532 301.953076 
L 222.56531 301.840231 
L 222.734913 301.56706 
L 222.305958 301.438873 
L 222.59296 301.436473 
L 222.480619 301.28088 
L 222.19103 301.222907 
L 222.419327 300.923519 
L 222.769284 300.864776 
L 222.265364 300.672294 
L 222.631196 300.666402 
L 222.11305 300.604957 
L 222.175989 300.213973 
L 222.764782 299.937391 
L 222.298595 299.869529 
L 222.580472 299.820665 
L 222.145028 299.281236 
L 222.813374 299.121142 
L 222.336304 298.964621 
L 222.741224 298.942354 
L 222.331554 298.393117 
L 222.810372 298.314948 
L 222.167649 298.237318 
L 222.351858 297.78324 
L 222.566443 297.668047 
L 222.414765 297.645677 
L 222.520275 297.412563 
L 222.34826 297.172431 
L 222.697566 297.11866 
L 222.240177 297.079766 
L 222.513251 296.872853 
L 222.399964 296.61993 
L 222.230797 296.561948 
L 222.580848 296.441481 
L 222.306048 296.20563 
L 222.414515 296.172664 
L 222.425079 296.035889 
L 222.243258 295.889919 
L 222.414863 295.735152 
L 222.125349 295.099636 
L 222.31139 294.909976 
L 222.239209 294.879923 
L 221.975336 294.671074 
L 222.343343 294.644406 
L 222.073092 294.60897 
L 222.250964 294.509798 
L 222.30047 294.140825 
L 222.086196 294.088411 
L 222.360347 293.818756 
L 222.05931 293.578875 
L 222.404383 293.455569 
L 222.347862 293.43886 
L 221.866155 293.065373 
L 222.480938 292.745876 
L 222.421875 292.596537 
L 221.812733 292.477208 
L 222.166923 292.181094 
L 221.819565 291.967721 
L 221.909999 291.909114 
L 222.322816 291.848697 
L 222.430716 291.681036 
L 222.357894 291.278021 
L 222.045894 291.213327 
L 222.450485 290.855932 
L 221.7573 290.544226 
L 221.920015 290.316109 
L 222.274475 290.238054 
L 222.136959 290.032847 
L 221.660768 289.66548 
L 221.913509 289.636035 
L 222.192282 289.256578 
L 221.679993 289.096712 
L 221.767141 288.979903 
L 222.023769 288.940672 
L 222.101492 288.786685 
L 221.49404 288.679176 
L 221.628736 288.440211 
L 221.523189 288.230334 
L 221.686122 288.086246 
L 222.052128 288.033508 
L 221.861358 287.790657 
L 221.997073 287.597924 
L 221.486212 287.443154 
L 221.876351 287.392743 
L 221.565467 287.32486 
L 221.683191 287.289394 
L 221.599787 286.860423 
L 221.976549 286.581705 
L 221.54934 286.457781 
L 221.937353 286.381409 
L 221.648967 286.317909 
L 221.701187 286.066978 
L 221.470161 286.007758 
L 221.929644 285.694703 
L 221.805504 285.655722 
L 221.423946 285.539598 
L 221.472731 285.402724 
L 221.879507 285.274763 
L 221.342073 284.999331 
L 221.377227 284.95989 
L 221.688478 284.909702 
L 221.272951 284.523765 
L 221.830407 284.439139 
L 221.453189 284.435159 
L 221.215537 284.105599 
L 221.275022 283.835193 
L 221.753945 283.714141 
L 221.450205 283.127634 
L 221.195263 283.078846 
L 221.595505 282.704007 
L 221.352454 282.064137 
L 221.494463 281.844607 
L 221.325408 281.762921 
L 221.510526 281.434179 
L 221.417445 281.298791 
L 221.500675 281.064598 
L 221.456913 280.561802 
L 221.351663 280.543121 
L 221.484739 280.504016 
L 221.511053 280.456326 
L 221.179574 278.309057 
L 221.162497 277.295089 
L 221.100831 277.127888 
L 221.196285 276.874029 
L 221.047838 276.616258 
L 221.048169 276.305924 
L 220.953005 275.870203 
L 221.18555 275.784474 
L 220.969874 275.546479 
L 221.174431 275.187166 
L 220.87122 275.024203 
L 220.756329 274.852026 
L 220.985 274.815791 
L 220.761487 274.722556 
L 220.849432 274.61099 
L 220.773226 274.519926 
L 220.908067 274.147991 
L 220.627952 273.998826 
L 220.813364 273.906143 
L 220.638044 273.75372 
L 220.551384 273.188286 
L 220.675365 272.951643 
L 220.528918 272.949787 
L 220.698306 272.904006 
L 220.576726 272.887781 
L 220.576284 272.485946 
L 220.504249 272.176594 
L 220.674563 272.08219 
L 220.502961 271.830812 
L 220.676868 271.251569 
L 220.476865 271.206686 
L 220.763805 271.20197 
L 220.469927 270.894034 
L 220.589917 270.716131 
L 220.646306 270.26784 
L 220.39538 270.072051 
L 220.535718 269.790502 
L 220.447059 269.626692 
L 220.652602 269.598633 
L 220.560445 269.279105 
L 220.281585 269.118034 
L 220.487253 269.075219 
L 220.35176 269.040564 
L 220.106142 268.741095 
L 220.521749 268.375711 
L 220.149673 268.266977 
L 220.410497 268.160404 
L 220.226295 267.763566 
L 220.257632 267.350949 
L 220.422934 267.307916 
L 220.126942 267.252435 
L 220.291228 267.140592 
L 220.32281 266.955254 
L 220.200589 266.797846 
L 220.326732 266.067926 
L 220.09377 265.919646 
L 220.148999 264.981769 
L 220.098599 264.589214 
L 220.183127 264.231762 
L 219.978557 264.15572 
L 220.043686 264.101558 
L 219.983565 263.953934 
L 220.136739 263.888925 
L 219.914981 263.392767 
L 220.014734 263.265522 
L 219.722499 262.898754 
L 219.824997 262.799786 
L 219.722639 262.414505 
L 219.919059 262.22825 
L 219.641548 262.03685 
L 219.863778 261.734725 
L 219.551357 261.374335 
L 219.90821 261.27078 
L 219.556861 260.893653 
L 219.897891 260.741105 
L 219.598129 260.487014 
L 219.825939 260.321052 
L 219.72879 260.191912 
L 219.471598 260.189336 
L 219.654689 259.799174 
L 219.331115 259.733101 
L 219.511237 259.698032 
L 219.616827 259.349405 
L 219.251563 258.859967 
L 219.45204 258.82158 
L 219.205119 258.070222 
L 219.337797 257.84629 
L 219.10582 257.670868 
L 219.186202 257.41706 
L 219.146638 256.98231 
L 219.051204 256.728493 
L 219.220056 256.653141 
L 219.090919 256.255705 
L 218.942658 256.236861 
L 219.097323 256.063285 
L 218.965587 255.756267 
L 219.071267 255.480451 
L 218.854527 255.047094 
L 218.936531 254.844821 
L 218.656089 254.483673 
L 218.795566 254.302356 
L 218.679943 254.179496 
L 218.743471 253.982807 
L 218.562521 253.367023 
L 218.652297 253.314611 
L 218.467853 252.607712 
L 218.663264 252.326774 
L 218.365932 252.249852 
L 218.636026 251.934519 
L 218.387081 251.737752 
L 218.456527 251.708465 
L 218.68465 251.398121 
L 218.544445 250.956849 
L 218.106222 250.95228 
L 218.485631 250.66909 
L 218.041121 250.298259 
L 218.573273 250.207293 
L 218.580532 249.849708 
L 218.313963 249.818542 
L 218.395901 249.356309 
L 217.896016 249.197355 
L 218.44053 248.99188 
L 218.020571 248.723284 
L 218.254144 248.124556 
L 217.911327 248.07296 
L 218.127645 248.02141 
L 217.968447 247.844943 
L 218.146414 247.694849 
L 217.774464 247.303486 
L 218.150639 247.158204 
L 217.746065 246.886629 
L 218.039751 246.723262 
L 217.79093 246.327753 
L 217.988199 246.113019 
L 217.631746 245.825488 
L 217.632464 245.681359 
L 217.757542 245.5694 
L 217.652354 245.32018 
L 217.822507 245.236994 
L 217.515933 245.030261 
L 217.571092 244.951651 
L 217.854051 244.77091 
L 217.864699 244.312677 
L 217.59709 244.201726 
L 217.431127 243.821517 
L 217.850785 243.67844 
L 217.470517 243.458431 
L 217.840231 243.295886 
L 217.793245 243.101885 
L 217.314626 242.838902 
L 217.755681 242.779191 
L 217.217266 242.456197 
L 217.619075 242.196561 
L 217.458783 241.903588 
L 217.562815 241.763266 
L 217.209694 241.64376 
L 217.524582 241.612265 
L 217.49208 241.563722 
L 217.032016 241.243271 
L 217.389874 240.981267 
L 217.320939 240.88579 
L 217.301324 240.609769 
L 216.880148 240.400055 
L 217.234605 240.196635 
L 216.999375 240.186804 
L 217.106029 239.60913 
L 216.893831 239.53032 
L 217.089944 239.38235 
L 216.916374 239.261186 
L 216.974929 239.223736 
L 216.704802 237.916033 
L 216.864498 237.900099 
L 216.63157 237.803475 
L 216.702231 237.799645 
L 216.616172 237.47323 
L 216.780848 237.402537 
L 216.571305 237.325369 
L 216.672124 237.220569 
L 216.487712 237.191854 
L 216.584777 236.93707 
L 216.720685 236.901505 
L 216.465676 236.828398 
L 216.512086 236.751314 
L 216.541265 236.713596 
L 216.765038 236.613579 
L 216.601408 236.561548 
L 216.419838 236.219069 
L 216.585241 236.147523 
L 216.613107 235.927582 
L 216.414811 235.712686 
L 216.461308 235.343039 
L 216.642139 235.141521 
L 216.37171 234.889734 
L 216.129136 234.801296 
L 216.131224 234.465491 
L 216.424099 234.46298 
L 216.015415 234.083104 
L 216.106575 233.933003 
L 216.430997 233.914714 
L 215.887101 233.572493 
L 216.070189 233.54837 
L 215.79501 233.172427 
L 216.234153 233.07296 
L 215.767212 232.475452 
L 216.120762 231.877609 
L 215.847273 231.846156 
L 215.616897 231.700837 
L 215.916279 231.549232 
L 215.68616 231.397697 
L 216.086052 231.223019 
L 215.590591 231.01445 
L 215.877858 230.97989 
L 216.003321 230.453478 
L 215.52574 230.437593 
L 215.614144 230.375916 
L 215.914956 230.153157 
L 215.845407 229.633326 
L 215.633215 229.453852 
L 215.835507 229.370885 
L 215.631785 228.927712 
L 215.663209 228.919375 
L 215.730282 228.038319 
L 215.446738 228.016369 
L 215.547714 227.922749 
L 215.301802 227.801605 
L 215.58817 227.549491 
L 215.295733 227.455078 
L 215.40622 227.329252 
L 215.116597 227.146209 
L 215.228546 227.103937 
L 215.699039 227.042312 
L 215.344896 226.482846 
L 215.510464 226.449596 
L 215.556234 226.177466 
L 215.152102 226.015618 
L 215.342404 225.931611 
L 215.426457 225.483547 
L 215.20974 225.448704 
L 215.467839 225.230359 
L 215.059985 224.921702 
L 215.341306 224.817206 
L 215.05936 224.662955 
L 214.967643 224.386814 
L 215.296315 224.230965 
L 215.074579 224.036704 
L 214.936528 223.710415 
L 215.114115 223.498022 
L 215.204633 223.43129 
L 214.904696 223.353056 
L 214.946388 223.088143 
L 215.104333 222.978954 
L 214.854896 222.81383 
L 214.955636 222.761604 
L 215.010524 222.717352 
L 214.871322 222.12884 
L 214.964087 221.823327 
L 214.82018 221.704273 
L 214.87877 221.679718 
L 214.83142 221.277786 
L 214.406846 214.649427 
L 214.197842 214.637149 
L 214.287769 214.556262 
L 214.103991 212.447259 
L 214.054754 212.410193 
L 214.182136 212.168872 
L 214.006563 212.15458 
L 213.896396 211.15221 
L 214.129907 211.141081 
L 214.04005 211.106239 
L 213.923872 210.966362 
L 214.06484 210.47031 
L 213.84545 210.32637 
L 214.068766 210.022623 
L 213.931719 209.938547 
L 213.861633 209.052918 
L 213.998747 208.90412 
L 213.850574 208.774422 
L 213.797499 208.140569 
L 213.868371 208.127698 
L 213.950411 207.886834 
L 213.625606 206.811763 
L 213.707383 206.792355 
L 213.79451 206.59359 
L 213.66049 206.583206 
L 213.596 206.288405 
L 213.786346 206.102002 
L 213.709354 206.018034 
L 213.59283 205.70695 
L 213.616649 205.70573 
L 213.66028 205.454123 
L 213.540179 205.452807 
L 213.633563 204.840555 
L 213.508183 204.562717 
L 213.481771 204.287304 
L 213.444054 204.188364 
L 213.351636 203.643651 
L 213.564638 203.430895 
L 213.332675 203.20786 
L 213.462029 203.043911 
L 213.253625 202.552225 
L 213.487241 202.526059 
L 213.259072 202.421633 
L 213.375879 202.074142 
L 213.213729 201.785826 
L 213.17185 201.413952 
L 213.297257 201.082507 
L 213.231122 201.007521 
L 213.309401 200.87519 
L 213.162781 200.706745 
L 213.200057 200.415544 
L 213.044672 197.476793 
L 212.895879 197.378215 
L 213.127991 197.281288 
L 212.980513 197.018176 
L 213.038505 196.995304 
L 213.013487 196.63724 
L 212.938161 196.410761 
L 212.888739 195.813543 
L 212.669016 195.667232 
L 213.004578 195.353694 
L 212.904763 195.340583 
L 212.643597 194.684431 
L 212.947153 194.498948 
L 212.652224 194.2305 
L 212.767893 194.214105 
L 212.850729 194.026721 
L 212.563418 193.719926 
L 212.915614 193.566838 
L 212.650552 193.565779 
L 212.818294 193.397576 
L 212.51087 192.99734 
L 212.78291 192.552884 
L 212.699897 192.537709 
L 212.512032 192.071613 
L 212.557214 191.483142 
L 212.444111 191.463599 
L 212.819815 191.398133 
L 212.431141 191.11438 
L 212.515298 190.399246 
L 212.734717 190.36538 
L 212.360332 189.465453 
L 212.336052 188.828503 
L 212.563538 188.708221 
L 212.429439 188.631931 
L 212.497632 188.336237 
L 212.277481 188.057565 
L 212.554359 187.600862 
L 212.332567 187.234923 
L 212.441221 187.050349 
L 212.252044 187.005775 
L 212.404993 186.471896 
L 212.372621 186.349874 
L 212.380094 185.964975 
L 212.288213 184.374764 
L 212.238172 183.887002 
L 212.240749 183.233034 
L 212.223478 182.949509 
L 212.131789 182.653406 
L 212.229945 181.969036 
L 212.159411 181.707918 
L 212.249053 181.432646 
L 212.082383 181.401336 
L 212.247487 181.226764 
L 212.205466 181.219554 
L 212.123022 180.890768 
L 212.284909 180.112651 
L 212.10961 179.660479 
L 212.255073 179.16531 
L 212.10159 179.025118 
L 212.182834 178.336215 
L 211.933232 178.206387 
L 212.220746 178.185275 
L 212.08562 178.002772 
L 212.080429 177.592705 
L 211.809209 177.482641 
L 212.133602 177.378471 
L 211.901582 177.214096 
L 212.081868 177.205824 
L 211.949589 176.624931 
L 212.089651 176.45407 
L 211.994744 176.251421 
L 211.780967 175.972455 
L 211.912079 175.952224 
L 211.667107 175.741849 
L 212.005778 175.675876 
L 212.065052 175.527411 
L 211.944035 175.431391 
L 211.726087 174.899525 
L 211.88542 174.890363 
L 211.955371 174.83979 
L 211.92795 174.378006 
L 211.733445 174.21777 
L 211.846881 174.20714 
L 211.618858 173.75944 
L 211.843301 173.735792 
L 211.690294 173.660308 
L 211.897708 173.40447 
L 211.658297 173.288772 
L 211.81655 172.738632 
L 211.614486 172.696052 
L 211.872287 172.553721 
L 211.699726 172.413164 
L 211.773976 172.339939 
L 211.634226 172.050859 
L 211.820948 171.980403 
L 211.736894 170.887956 
L 211.790943 170.738277 
L 211.674285 170.526976 
L 211.760613 170.095661 
L 211.623071 170.047452 
L 211.571842 169.743813 
L 211.646531 169.577585 
L 211.737876 169.358861 
L 211.530478 169.355549 
L 211.645457 168.892218 
L 211.485066 168.843867 
L 211.687537 168.498296 
L 211.471054 168.401279 
L 211.647533 168.358065 
L 211.52372 167.796056 
L 211.633959 167.492287 
L 211.572879 167.474396 
L 211.372298 165.2301 
L 211.476586 165.149667 
L 211.284955 164.116526 
L 211.417912 163.785483 
L 211.22397 161.22244 
L 210.889122 155.797633 
L 210.767973 154.624406 
L 210.718067 154.096418 
L 210.350225 146.11363 
L 210.17434 146.096476 
L 210.23761 145.672468 
L 210.281999 145.509007 
L 210.1633 145.186254 
L 210.27262 144.814146 
L 210.080936 144.363091 
L 210.071905 143.874203 
L 210.231787 143.86743 
L 210.009215 143.385283 
L 210.169599 143.10164 
L 209.919909 142.996795 
L 209.979637 142.417069 
L 209.841353 142.079767 
L 210.013942 141.831437 
L 209.914587 141.692833 
L 209.92861 141.521441 
L 209.785569 141.093384 
L 209.934131 141.077054 
L 209.725406 140.930663 
L 209.952903 140.582069 
L 209.71829 140.020098 
L 209.92774 139.771734 
L 209.861844 139.564889 
L 209.86668 139.035791 
L 209.776566 139.033863 
L 209.558119 138.714736 
L 209.47989 138.69305 
L 209.866745 138.666333 
L 209.729101 137.734169 
L 209.371956 137.599024 
L 209.638053 137.295475 
L 209.4986 137.165436 
L 209.669815 137.086363 
L 209.543496 137.08123 
L 209.325282 136.864744 
L 209.302955 136.45813 
L 209.62342 136.411983 
L 209.366347 136.408689 
L 209.483331 136.297303 
L 209.200208 136.015623 
L 209.289595 135.768196 
L 209.466453 135.688243 
L 209.322874 135.373223 
L 209.48022 135.245224 
L 209.066407 134.833395 
L 209.177212 134.817232 
L 209.326868 134.706604 
L 209.22076 134.63714 
L 209.334487 133.9125 
L 209.047968 133.795067 
L 208.953756 133.441148 
L 209.152022 133.28854 
L 209.242537 133.051608 
L 208.948302 132.671229 
L 208.994685 132.304783 
L 208.90436 132.111651 
L 209.159433 131.741925 
L 208.882239 131.496313 
L 209.084723 131.282184 
L 209.002609 131.085204 
L 208.717173 131.016472 
L 209.06011 130.770881 
L 208.655092 130.29054 
L 208.92944 130.093559 
L 208.865054 129.984681 
L 208.970979 129.841161 
L 208.724282 129.73816 
L 208.9096 129.536059 
L 208.768837 129.213013 
L 208.826262 129.020135 
L 208.508725 128.935942 
L 208.786026 128.924205 
L 208.579587 128.788586 
L 208.759998 128.692538 
L 208.625344 128.234186 
L 208.288258 127.985787 
L 208.590384 127.902758 
L 208.324909 127.210246 
L 208.058062 127.145036 
L 208.246974 126.898795 
L 206.89262 124.106814 
L 206.732386 123.806475 
L 206.64303 123.763616 
L 206.733299 123.671533 
L 206.612689 123.655859 
L 206.398001 123.360554 
L 206.644877 123.192798 
L 206.245826 122.997111 
L 206.560569 122.839438 
L 206.143765 122.67823 
L 206.026865 122.623577 
L 206.633965 122.552923 
L 205.985117 122.494132 
L 206.470363 122.376785 
L 205.910695 122.34158 
L 205.971652 122.307553 
L 206.734404 122.073708 
L 205.765136 122.066589 
L 205.863707 121.995504 
L 205.862943 121.58165 
L 205.676038 121.556714 
L 206.484766 121.416551 
L 205.501431 121.327437 
L 205.926034 121.298215 
L 206.490776 121.15899 
L 205.600071 121.035631 
L 206.163762 121.006765 
L 205.93654 120.848611 
L 205.44039 120.789596 
L 206.327915 120.782266 
L 205.920857 120.584395 
L 205.964943 120.477829 
L 205.256673 120.471708 
L 205.597289 120.236704 
L 205.427102 120.168665 
L 205.867267 119.982859 
L 204.947462 119.862025 
L 205.544616 119.531785 
L 205.619008 119.340332 
L 204.985192 119.339543 
L 205.204857 119.310671 
L 205.621074 119.175014 
L 205.415567 118.864086 
L 204.781384 118.716898 
L 205.161334 118.481278 
L 204.887567 118.454678 
L 205.268747 118.450533 
L 205.263767 118.437743 
L 205.231968 117.969294 
L 204.987061 117.603314 
L 205.216919 117.443287 
L 204.652436 117.404234 
L 205.220319 117.092104 
L 205.157624 116.970862 
L 204.804184 116.87416 
L 205.329828 116.575786 
L 205.279122 116.40188 
L 204.990867 116.362633 
L 205.294342 116.334355 
L 205.516966 115.626994 
L 205.405324 115.497256 
L 205.128701 115.41054 
L 205.766181 115.297707 
L 205.90611 114.909586 
L 205.796268 114.611485 
L 205.437305 114.556388 
L 205.606665 114.497851 
L 206.210273 114.433195 
L 206.191688 114.351055 
L 205.358445 114.21988 
L 206.255401 114.01451 
L 206.545192 113.921408 
L 205.947404 113.900588 
L 205.776959 113.742402 
L 206.179581 113.730518 
L 206.772129 113.468935 
L 206.748585 113.436238 
L 205.923192 113.273834 
L 206.51203 113.141051 
L 205.831396 112.897493 
L 207.141033 112.75492 
L 206.254234 112.58833 
L 207.289273 112.438382 
L 206.587529 112.403621 
L 207.100515 112.392315 
L 206.877294 112.267953 
L 207.42755 112.194545 
L 206.51283 111.980598 
L 207.526932 111.778799 
L 207.697802 111.486547 
L 207.146233 111.296592 
L 207.890836 111.145713 
L 207.627308 111.130175 
L 207.438822 111.002853 
L 207.956309 110.896234 
L 207.338874 110.853627 
L 207.54426 110.649575 
L 207.989723 110.476629 
L 207.579261 110.323425 
L 207.774865 110.29862 
L 206.293098 110.143078 
L 206.386747 110.112167 
L 201.154806 109.867718 
L 201.57355 109.855875 
L 199.732361 109.827188 
L 199.799263 109.815214 
L 175.77274 109.236656 
L 86.584424 107.069555 
L 71.002483 106.787115 
L 72.391549 106.774926 
L 51.540886 106.64772 
L 46.145455 106.616529 
L 46.145455 106.616529 
" style="fill:none;stroke:#000000;stroke-linecap:square;stroke-width:1.5;"/>
   </g>
   <g id="patch_3">
    <path d="M 36 531.163636 
L 36 86.4 
" style="fill:none;stroke:#000000;stroke-linecap:square;stroke-linejoin:miter;stroke-width:0.8;"/>
   </g>
   <g id="patch_4">
    <path d="M 259.2 531.163636 
L 259.2 86.4 
" style="fill:none;stroke:#000000;stroke-linecap:square;stroke-linejoin:miter;stroke-width:0.8;"/>
   </g>
   <g id="patch_5">
    <path d="M 36 531.163636 
L 259.2 531.163636 
" style="fill:none;stroke:#000000;stroke-linecap:square;stroke-linejoin:miter;stroke-width:0.8;"/>
   </g>
   <g id="patch_6">
    <path d="M 36 86.4 
L 259.2 86.4 
" style="fill:none;stroke:#000000;stroke-linecap:square;stroke-linejoin:miter;stroke-width:0.8;"/>
   </g>
   <g id="text_17">
    <!-- at-90 ° -->
    <defs>
     <path d="M 34.28125 27.484375 
Q 23.390625 27.484375 19.1875 25 
Q 14.984375 22.515625 14.984375 16.5 
Q 14.984375 11.71875 18.140625 8.90625 
Q 21.296875 6.109375 26.703125 6.109375 
Q 34.1875 6.109375 38.703125 11.40625 
Q 43.21875 16.703125 43.21875 25.484375 
L 43.21875 27.484375 
z
M 52.203125 31.203125 
L 52.203125 0 
L 43.21875 0 
L 43.21875 8.296875 
Q 40.140625 3.328125 35.546875 0.953125 
Q 30.953125 -1.421875 24.3125 -1.421875 
Q 15.921875 -1.421875 10.953125 3.296875 
Q 6 8.015625 6 15.921875 
Q 6 25.140625 12.171875 29.828125 
Q 18.359375 34.515625 30.609375 34.515625 
L 43.21875 34.515625 
L 43.21875 35.40625 
Q 43.21875 41.609375 39.140625 45 
Q 35.0625 48.390625 27.6875 48.390625 
Q 23 48.390625 18.546875 47.265625 
Q 14.109375 46.140625 10.015625 43.890625 
L 10.015625 52.203125 
Q 14.9375 54.109375 19.578125 55.046875 
Q 24.21875 56 28.609375 56 
Q 40.484375 56 46.34375 49.84375 
Q 52.203125 43.703125 52.203125 31.203125 
z
" id="DejaVuSans-97"/>
     <path d="M 18.3125 70.21875 
L 18.3125 54.6875 
L 36.8125 54.6875 
L 36.8125 47.703125 
L 18.3125 47.703125 
L 18.3125 18.015625 
Q 18.3125 11.328125 20.140625 9.421875 
Q 21.96875 7.515625 27.59375 7.515625 
L 36.8125 7.515625 
L 36.8125 0 
L 27.59375 0 
Q 17.1875 0 13.234375 3.875 
Q 9.28125 7.765625 9.28125 18.015625 
L 9.28125 47.703125 
L 2.6875 47.703125 
L 2.6875 54.6875 
L 9.28125 54.6875 
L 9.28125 70.21875 
z
" id="DejaVuSans-116"/>
     <path d="M 4.890625 31.390625 
L 31.203125 31.390625 
L 31.203125 23.390625 
L 4.890625 23.390625 
z
" id="DejaVuSans-45"/>
     <path d="M 25 67.921875 
Q 21.09375 67.921875 18.40625 65.203125 
Q 15.71875 62.5 15.71875 58.59375 
Q 15.71875 54.734375 18.40625 52.078125 
Q 21.09375 49.421875 25 49.421875 
Q 28.90625 49.421875 31.59375 52.078125 
Q 34.28125 54.734375 34.28125 58.59375 
Q 34.28125 62.453125 31.5625 65.1875 
Q 28.859375 67.921875 25 67.921875 
z
M 25 74.21875 
Q 28.125 74.21875 31 73.015625 
Q 33.890625 71.828125 35.984375 69.578125 
Q 38.234375 67.390625 39.359375 64.59375 
Q 40.484375 61.8125 40.484375 58.59375 
Q 40.484375 52.15625 35.96875 47.6875 
Q 31.453125 43.21875 24.90625 43.21875 
Q 18.3125 43.21875 13.90625 47.609375 
Q 9.515625 52 9.515625 58.59375 
Q 9.515625 65.140625 14 69.671875 
Q 18.5 74.21875 25 74.21875 
z
" id="DejaVuSans-176"/>
    </defs>
    <g transform="translate(126.864375 80.4)scale(0.12 -0.12)">
     <use xlink:href="#DejaVuSans-97"/>
     <use x="61.279297" xlink:href="#DejaVuSans-116"/>
     <use x="100.488281" xlink:href="#DejaVuSans-45"/>
     <use x="136.572266" xlink:href="#DejaVuSans-57"/>
     <use x="200.195312" xlink:href="#DejaVuSans-48"/>
     <use x="263.818359" xlink:href="#DejaVuSans-32"/>
     <use x="295.605469" xlink:href="#DejaVuSans-176"/>
    </g>
   </g>
  </g>
  <g id="axes_2">
   <g id="patch_7">
    <path d="M 36 630 
L 259.2 630 
L 259.2 580.581818 
L 36 580.581818 
z
" style="fill:#ffffff;"/>
   </g>
   <g id="matplotlib.axis_3"/>
   <g id="matplotlib.axis_4"/>
   <g id="patch_8">
    <path d="M 36 630 
L 36 580.581818 
" style="fill:none;"/>
   </g>
   <g id="patch_9">
    <path d="M 259.2 630 
L 259.2 580.581818 
" style="fill:none;"/>
   </g>
   <g id="patch_10">
    <path d="M 36 630 
L 259.2 630 
" style="fill:none;"/>
   </g>
   <g id="patch_11">
    <path d="M 36 580.581818 
L 259.2 580.581818 
" style="fill:none;"/>
   </g>
   <g id="text_18">
    <g id="patch_12">
     <path d="M 100.5 639.810327 
L 194.7 639.810327 
Q 197.7 639.810327 197.7 636.810327 
L 197.7 593.538764 
Q 197.7 590.538764 194.7 590.538764 
L 100.5 590.538764 
Q 97.5 590.538764 97.5 593.538764 
L 97.5 636.810327 
Q 97.5 639.810327 100.5 639.810327 
z
" style="fill:#ffffff;stroke:#000000;stroke-linejoin:miter;"/>
    </g>
    <!-- $L_{chord} = 731.3~mm $  -->
    <defs>
     <path d="M 16.796875 72.90625 
L 26.703125 72.90625 
L 14.203125 8.203125 
L 49.703125 8.203125 
L 48.09375 0 
L 2.6875 0 
z
" id="DejaVuSans-Oblique-76"/>
     <path d="M 53.609375 52.59375 
L 51.8125 43.703125 
Q 48.578125 46.046875 44.9375 47.21875 
Q 41.3125 48.390625 37.40625 48.390625 
Q 33.109375 48.390625 29.21875 46.875 
Q 25.34375 45.359375 22.703125 42.578125 
Q 18.5 38.328125 16.203125 32.609375 
Q 13.921875 26.90625 13.921875 20.796875 
Q 13.921875 13.421875 17.609375 9.8125 
Q 21.296875 6.203125 28.8125 6.203125 
Q 32.515625 6.203125 36.6875 7.328125 
Q 40.875 8.453125 45.40625 10.6875 
L 43.703125 1.8125 
Q 39.796875 0.203125 35.671875 -0.609375 
Q 31.546875 -1.421875 27.203125 -1.421875 
Q 16.3125 -1.421875 10.453125 4.015625 
Q 4.59375 9.46875 4.59375 19.578125 
Q 4.59375 28.078125 7.640625 35.234375 
Q 10.6875 42.390625 16.703125 48.09375 
Q 20.796875 52 26.3125 54 
Q 31.84375 56 38.375 56 
Q 42.1875 56 45.9375 55.140625 
Q 49.703125 54.296875 53.609375 52.59375 
z
" id="DejaVuSans-Oblique-99"/>
     <path d="M 55.71875 33.015625 
L 49.3125 0 
L 40.28125 0 
L 46.6875 32.671875 
Q 47.125 34.96875 47.359375 36.71875 
Q 47.609375 38.484375 47.609375 39.5 
Q 47.609375 43.609375 45.015625 45.890625 
Q 42.4375 48.1875 37.796875 48.1875 
Q 30.5625 48.1875 25.265625 43.296875 
Q 19.96875 38.421875 18.40625 30.328125 
L 12.5 0 
L 3.515625 0 
L 18.3125 75.984375 
L 27.296875 75.984375 
L 21.484375 46.09375 
Q 24.90625 50.6875 30.21875 53.34375 
Q 35.546875 56 41.40625 56 
Q 48.640625 56 52.609375 52.09375 
Q 56.59375 48.1875 56.59375 41.109375 
Q 56.59375 39.359375 56.375 37.359375 
Q 56.15625 35.359375 55.71875 33.015625 
z
" id="DejaVuSans-Oblique-104"/>
     <path d="M 25.390625 -1.421875 
Q 15.765625 -1.421875 10.171875 4.515625 
Q 4.59375 10.453125 4.59375 20.703125 
Q 4.59375 26.65625 6.515625 32.828125 
Q 8.453125 39.015625 11.53125 43.21875 
Q 16.359375 49.75 22.3125 52.875 
Q 28.265625 56 35.796875 56 
Q 45.125 56 50.859375 50.1875 
Q 56.59375 44.390625 56.59375 35.015625 
Q 56.59375 28.515625 54.6875 22.0625 
Q 52.78125 15.625 49.703125 11.375 
Q 44.921875 4.828125 38.96875 1.703125 
Q 33.015625 -1.421875 25.390625 -1.421875 
z
M 13.921875 21 
Q 13.921875 13.578125 17.015625 9.890625 
Q 20.125 6.203125 26.421875 6.203125 
Q 35.453125 6.203125 41.375 14.078125 
Q 47.3125 21.96875 47.3125 34.078125 
Q 47.3125 41.15625 44.140625 44.765625 
Q 40.96875 48.390625 34.8125 48.390625 
Q 29.734375 48.390625 25.78125 46.015625 
Q 21.828125 43.65625 18.703125 38.8125 
Q 16.40625 35.203125 15.15625 30.5625 
Q 13.921875 25.921875 13.921875 21 
z
" id="DejaVuSans-Oblique-111"/>
     <path d="M 41.796875 8.203125 
Q 38.1875 3.46875 33.25 1.015625 
Q 28.328125 -1.421875 22.3125 -1.421875 
Q 14.109375 -1.421875 9.34375 4.171875 
Q 4.59375 9.765625 4.59375 19.484375 
Q 4.59375 27.59375 7.46875 34.9375 
Q 10.359375 42.28125 15.828125 48.09375 
Q 19.4375 51.953125 23.96875 53.96875 
Q 28.515625 56 33.5 56 
Q 38.765625 56 42.796875 53.453125 
Q 46.828125 50.921875 49.03125 46.1875 
L 54.890625 75.984375 
L 63.921875 75.984375 
L 49.125 0 
L 40.09375 0 
z
M 13.921875 21.09375 
Q 13.921875 14.015625 17.109375 10.0625 
Q 20.3125 6.109375 25.984375 6.109375 
Q 30.171875 6.109375 33.765625 8.125 
Q 37.359375 10.15625 40.09375 14.109375 
Q 42.96875 18.21875 44.625 23.578125 
Q 46.296875 28.953125 46.296875 34.1875 
Q 46.296875 40.96875 43.09375 44.765625 
Q 39.890625 48.578125 34.28125 48.578125 
Q 30.03125 48.578125 26.359375 46.578125 
Q 22.703125 44.578125 20.125 40.828125 
Q 17.28125 36.765625 15.59375 31.390625 
Q 13.921875 26.03125 13.921875 21.09375 
z
" id="DejaVuSans-Oblique-100"/>
     <path d="M 10.59375 45.40625 
L 73.1875 45.40625 
L 73.1875 37.203125 
L 10.59375 37.203125 
z
M 10.59375 25.484375 
L 73.1875 25.484375 
L 73.1875 17.1875 
L 10.59375 17.1875 
z
" id="DejaVuSans-61"/>
     <path d="M 40.578125 39.3125 
Q 47.65625 37.796875 51.625 33 
Q 55.609375 28.21875 55.609375 21.1875 
Q 55.609375 10.40625 48.1875 4.484375 
Q 40.765625 -1.421875 27.09375 -1.421875 
Q 22.515625 -1.421875 17.65625 -0.515625 
Q 12.796875 0.390625 7.625 2.203125 
L 7.625 11.71875 
Q 11.71875 9.328125 16.59375 8.109375 
Q 21.484375 6.890625 26.8125 6.890625 
Q 36.078125 6.890625 40.9375 10.546875 
Q 45.796875 14.203125 45.796875 21.1875 
Q 45.796875 27.640625 41.28125 31.265625 
Q 36.765625 34.90625 28.71875 34.90625 
L 20.21875 34.90625 
L 20.21875 43.015625 
L 29.109375 43.015625 
Q 36.375 43.015625 40.234375 45.921875 
Q 44.09375 48.828125 44.09375 54.296875 
Q 44.09375 59.90625 40.109375 62.90625 
Q 36.140625 65.921875 28.71875 65.921875 
Q 24.65625 65.921875 20.015625 65.03125 
Q 15.375 64.15625 9.8125 62.3125 
L 9.8125 71.09375 
Q 15.4375 72.65625 20.34375 73.4375 
Q 25.25 74.21875 29.59375 74.21875 
Q 40.828125 74.21875 47.359375 69.109375 
Q 53.90625 64.015625 53.90625 55.328125 
Q 53.90625 49.265625 50.4375 45.09375 
Q 46.96875 40.921875 40.578125 39.3125 
z
" id="DejaVuSans-51"/>
    </defs>
    <g transform="translate(101.3 601.137202)scale(0.1 -0.1)">
     <use transform="translate(0 0.78125)" xlink:href="#DejaVuSans-Oblique-76"/>
     <use transform="translate(55.712891 -15.625)scale(0.7)" xlink:href="#DejaVuSans-Oblique-99"/>
     <use transform="translate(94.199219 -15.625)scale(0.7)" xlink:href="#DejaVuSans-Oblique-104"/>
     <use transform="translate(138.564453 -15.625)scale(0.7)" xlink:href="#DejaVuSans-Oblique-111"/>
     <use transform="translate(181.391602 -15.625)scale(0.7)" xlink:href="#DejaVuSans-Oblique-114"/>
     <use transform="translate(210.170898 -15.625)scale(0.7)" xlink:href="#DejaVuSans-Oblique-100"/>
     <use transform="translate(276.821289 0.78125)" xlink:href="#DejaVuSans-61"/>
     <use transform="translate(380.092773 0.78125)" xlink:href="#DejaVuSans-55"/>
     <use transform="translate(443.71582 0.78125)" xlink:href="#DejaVuSans-51"/>
     <use transform="translate(507.338867 0.78125)" xlink:href="#DejaVuSans-49"/>
     <use transform="translate(570.961914 0.78125)" xlink:href="#DejaVuSans-46"/>
     <use transform="translate(602.749023 0.78125)" xlink:href="#DejaVuSans-51"/>
     <use transform="translate(698.842449 0.78125)" xlink:href="#DejaVuSans-Oblique-109"/>
     <use transform="translate(796.254558 0.78125)" xlink:href="#DejaVuSans-Oblique-109"/>
     <use transform="translate(893.666667 0.78125)" xlink:href="#DejaVuSans-32"/>
    </g>
    <!-- $\Delta w_{max} = 12.1~mm $   -->
    <defs>
     <path d="M 8.5 54.6875 
L 17.390625 54.6875 
L 19.671875 10.6875 
L 40.09375 54.6875 
L 50.484375 54.6875 
L 53.515625 10.6875 
L 72.90625 54.6875 
L 81.890625 54.6875 
L 56.890625 0 
L 46.390625 0 
L 43.703125 45.3125 
L 22.796875 0 
L 12.203125 0 
z
" id="DejaVuSans-Oblique-119"/>
     <path d="M 53.71875 31.203125 
L 47.609375 0 
L 38.625 0 
L 40.28125 8.296875 
Q 36.328125 3.421875 31.265625 1 
Q 26.21875 -1.421875 20.015625 -1.421875 
Q 13.03125 -1.421875 8.5625 2.84375 
Q 4.109375 7.125 4.109375 13.8125 
Q 4.109375 23.390625 11.75 28.953125 
Q 19.390625 34.515625 32.8125 34.515625 
L 45.3125 34.515625 
L 45.796875 36.921875 
Q 45.90625 37.3125 45.953125 37.765625 
Q 46 38.234375 46 39.203125 
Q 46 43.5625 42.453125 45.96875 
Q 38.921875 48.390625 32.515625 48.390625 
Q 28.125 48.390625 23.5 47.265625 
Q 18.890625 46.140625 14.015625 43.890625 
L 15.578125 52.203125 
Q 20.65625 54.109375 25.515625 55.046875 
Q 30.375 56 34.90625 56 
Q 44.578125 56 49.625 51.796875 
Q 54.6875 47.609375 54.6875 39.59375 
Q 54.6875 37.984375 54.4375 35.8125 
Q 54.203125 33.640625 53.71875 31.203125 
z
M 44 27.484375 
L 35.015625 27.484375 
Q 23.96875 27.484375 18.671875 24.53125 
Q 13.375 21.578125 13.375 15.375 
Q 13.375 11.078125 16.078125 8.640625 
Q 18.796875 6.203125 23.578125 6.203125 
Q 30.90625 6.203125 36.375 11.453125 
Q 41.84375 16.703125 43.609375 25.484375 
z
" id="DejaVuSans-Oblique-97"/>
     <path d="M 60.015625 54.6875 
L 34.90625 27.875 
L 50.296875 0 
L 39.984375 0 
L 28.421875 21.6875 
L 8.296875 0 
L -2.59375 0 
L 24.3125 28.8125 
L 10.015625 54.6875 
L 20.3125 54.6875 
L 30.8125 34.90625 
L 49.125 54.6875 
z
" id="DejaVuSans-Oblique-120"/>
    </defs>
    <g transform="translate(100.5 612.335014)scale(0.1 -0.1)">
     <use transform="translate(0 0.78125)" xlink:href="#DejaVuSans-916"/>
     <use transform="translate(68.408203 0.78125)" xlink:href="#DejaVuSans-Oblique-119"/>
     <use transform="translate(150.195312 -15.625)scale(0.7)" xlink:href="#DejaVuSans-Oblique-109"/>
     <use transform="translate(218.383789 -15.625)scale(0.7)" xlink:href="#DejaVuSans-Oblique-97"/>
     <use transform="translate(261.279297 -15.625)scale(0.7)" xlink:href="#DejaVuSans-Oblique-120"/>
     <use transform="translate(324.921875 0.78125)" xlink:href="#DejaVuSans-61"/>
     <use transform="translate(428.193359 0.78125)" xlink:href="#DejaVuSans-49"/>
     <use transform="translate(491.816406 0.78125)" xlink:href="#DejaVuSans-50"/>
     <use transform="translate(555.439453 0.78125)" xlink:href="#DejaVuSans-46"/>
     <use transform="translate(587.226562 0.78125)" xlink:href="#DejaVuSans-49"/>
     <use transform="translate(683.319988 0.78125)" xlink:href="#DejaVuSans-Oblique-109"/>
     <use transform="translate(780.732097 0.78125)" xlink:href="#DejaVuSans-Oblique-109"/>
     <use transform="translate(878.144207 0.78125)" xlink:href="#DejaVuSans-32"/>
     <use transform="translate(909.931316 0.78125)" xlink:href="#DejaVuSans-32"/>
    </g>
    <!--  -->
    <g transform="translate(147.6 623.532827)scale(0.1 -0.1)"/>
    <!--  $U_{x} = 0.016$ -->
    <defs>
     <path d="M 15.484375 72.90625 
L 25.390625 72.90625 
L 16.796875 28.609375 
Q 16.265625 25.640625 16.046875 23.703125 
Q 15.828125 21.78125 15.828125 20.3125 
Q 15.828125 13.578125 19.578125 10.078125 
Q 23.34375 6.59375 30.609375 6.59375 
Q 40.046875 6.59375 45.28125 11.765625 
Q 50.53125 16.9375 52.78125 28.609375 
L 61.375 72.90625 
L 71.296875 72.90625 
L 62.5 27.390625 
Q 59.625 12.640625 51.5625 5.609375 
Q 43.5 -1.421875 29.5 -1.421875 
Q 18.5625 -1.421875 12.1875 4.078125 
Q 5.8125 9.578125 5.8125 19 
Q 5.8125 20.703125 6.046875 22.828125 
Q 6.296875 24.953125 6.78125 27.390625 
z
" id="DejaVuSans-Oblique-85"/>
    </defs>
    <g transform="translate(119.65 634.730639)scale(0.1 -0.1)">
     <use transform="translate(0 0.78125)" xlink:href="#DejaVuSans-32"/>
     <use transform="translate(31.787109 0.78125)" xlink:href="#DejaVuSans-Oblique-85"/>
     <use transform="translate(104.980469 -15.625)scale(0.7)" xlink:href="#DejaVuSans-Oblique-120"/>
     <use transform="translate(168.623047 0.78125)" xlink:href="#DejaVuSans-61"/>
     <use transform="translate(271.894531 0.78125)" xlink:href="#DejaVuSans-48"/>
     <use transform="translate(335.517578 0.78125)" xlink:href="#DejaVuSans-46"/>
     <use transform="translate(367.304688 0.78125)" xlink:href="#DejaVuSans-48"/>
     <use transform="translate(430.927734 0.78125)" xlink:href="#DejaVuSans-49"/>
     <use transform="translate(494.550781 0.78125)" xlink:href="#DejaVuSans-54"/>
    </g>
   </g>
  </g>
 </g>
 <defs>
  <clipPath id="p3b4d708c31">
   <rect height="444.763636" width="223.2" x="36" y="86.4"/>
  </clipPath>
 </defs>
</svg>
