<?xml version="1.0" encoding="utf-8" standalone="no"?>
<!DOCTYPE svg PUBLIC "-//W3C//DTD SVG 1.1//EN"
  "http://www.w3.org/Graphics/SVG/1.1/DTD/svg11.dtd">
<!-- Created with matplotlib (https://matplotlib.org/) -->
<svg height="720pt" version="1.1" viewBox="0 0 288 720" width="288pt" xmlns="http://www.w3.org/2000/svg" xmlns:xlink="http://www.w3.org/1999/xlink">
 <defs>
  <style type="text/css">
*{stroke-linecap:butt;stroke-linejoin:round;}
  </style>
 </defs>
 <g id="figure_1">
  <g id="patch_1">
   <path d="M 0 720 
L 288 720 
L 288 0 
L 0 0 
z
" style="fill:#ffffff;"/>
  </g>
  <g id="axes_1">
   <g id="patch_2">
    <path d="M 36 531.163636 
L 259.2 531.163636 
L 259.2 86.4 
L 36 86.4 
z
" style="fill:#ffffff;"/>
   </g>
   <g id="matplotlib.axis_1">
    <g id="xtick_1">
     <g id="line2d_1">
      <path clip-path="url(#p1b61454345)" d="M 63.601064 531.163636 
L 63.601064 86.4 
" style="fill:none;stroke:#b0b0b0;stroke-linecap:square;stroke-width:0.8;"/>
     </g>
     <g id="line2d_2">
      <defs>
       <path d="M 0 0 
L 0 3.5 
" id="m7a0879a4b6" style="stroke:#000000;stroke-width:0.8;"/>
      </defs>
      <g>
       <use style="stroke:#000000;stroke-width:0.8;" x="63.601064" xlink:href="#m7a0879a4b6" y="531.163636"/>
      </g>
     </g>
     <g id="text_1">
      <!-- −14 -->
      <defs>
       <path d="M 10.59375 35.5 
L 73.1875 35.5 
L 73.1875 27.203125 
L 10.59375 27.203125 
z
" id="DejaVuSans-8722"/>
       <path d="M 12.40625 8.296875 
L 28.515625 8.296875 
L 28.515625 63.921875 
L 10.984375 60.40625 
L 10.984375 69.390625 
L 28.421875 72.90625 
L 38.28125 72.90625 
L 38.28125 8.296875 
L 54.390625 8.296875 
L 54.390625 0 
L 12.40625 0 
z
" id="DejaVuSans-49"/>
       <path d="M 37.796875 64.3125 
L 12.890625 25.390625 
L 37.796875 25.390625 
z
M 35.203125 72.90625 
L 47.609375 72.90625 
L 47.609375 25.390625 
L 58.015625 25.390625 
L 58.015625 17.1875 
L 47.609375 17.1875 
L 47.609375 0 
L 37.796875 0 
L 37.796875 17.1875 
L 4.890625 17.1875 
L 4.890625 26.703125 
z
" id="DejaVuSans-52"/>
      </defs>
      <g transform="translate(53.04872 545.762074)scale(0.1 -0.1)">
       <use xlink:href="#DejaVuSans-8722"/>
       <use x="83.789062" xlink:href="#DejaVuSans-49"/>
       <use x="147.412109" xlink:href="#DejaVuSans-52"/>
      </g>
     </g>
    </g>
    <g id="xtick_2">
     <g id="line2d_3">
      <path clip-path="url(#p1b61454345)" d="M 98.203065 531.163636 
L 98.203065 86.4 
" style="fill:none;stroke:#b0b0b0;stroke-linecap:square;stroke-width:0.8;"/>
     </g>
     <g id="line2d_4">
      <g>
       <use style="stroke:#000000;stroke-width:0.8;" x="98.203065" xlink:href="#m7a0879a4b6" y="531.163636"/>
      </g>
     </g>
     <g id="text_2">
      <!-- −12 -->
      <defs>
       <path d="M 19.1875 8.296875 
L 53.609375 8.296875 
L 53.609375 0 
L 7.328125 0 
L 7.328125 8.296875 
Q 12.9375 14.109375 22.625 23.890625 
Q 32.328125 33.6875 34.8125 36.53125 
Q 39.546875 41.84375 41.421875 45.53125 
Q 43.3125 49.21875 43.3125 52.78125 
Q 43.3125 58.59375 39.234375 62.25 
Q 35.15625 65.921875 28.609375 65.921875 
Q 23.96875 65.921875 18.8125 64.3125 
Q 13.671875 62.703125 7.8125 59.421875 
L 7.8125 69.390625 
Q 13.765625 71.78125 18.9375 73 
Q 24.125 74.21875 28.421875 74.21875 
Q 39.75 74.21875 46.484375 68.546875 
Q 53.21875 62.890625 53.21875 53.421875 
Q 53.21875 48.921875 51.53125 44.890625 
Q 49.859375 40.875 45.40625 35.40625 
Q 44.1875 33.984375 37.640625 27.21875 
Q 31.109375 20.453125 19.1875 8.296875 
z
" id="DejaVuSans-50"/>
      </defs>
      <g transform="translate(87.650721 545.762074)scale(0.1 -0.1)">
       <use xlink:href="#DejaVuSans-8722"/>
       <use x="83.789062" xlink:href="#DejaVuSans-49"/>
       <use x="147.412109" xlink:href="#DejaVuSans-50"/>
      </g>
     </g>
    </g>
    <g id="xtick_3">
     <g id="line2d_5">
      <path clip-path="url(#p1b61454345)" d="M 132.805066 531.163636 
L 132.805066 86.4 
" style="fill:none;stroke:#b0b0b0;stroke-linecap:square;stroke-width:0.8;"/>
     </g>
     <g id="line2d_6">
      <g>
       <use style="stroke:#000000;stroke-width:0.8;" x="132.805066" xlink:href="#m7a0879a4b6" y="531.163636"/>
      </g>
     </g>
     <g id="text_3">
      <!-- −10 -->
      <defs>
       <path d="M 31.78125 66.40625 
Q 24.171875 66.40625 20.328125 58.90625 
Q 16.5 51.421875 16.5 36.375 
Q 16.5 21.390625 20.328125 13.890625 
Q 24.171875 6.390625 31.78125 6.390625 
Q 39.453125 6.390625 43.28125 13.890625 
Q 47.125 21.390625 47.125 36.375 
Q 47.125 51.421875 43.28125 58.90625 
Q 39.453125 66.40625 31.78125 66.40625 
z
M 31.78125 74.21875 
Q 44.046875 74.21875 50.515625 64.515625 
Q 56.984375 54.828125 56.984375 36.375 
Q 56.984375 17.96875 50.515625 8.265625 
Q 44.046875 -1.421875 31.78125 -1.421875 
Q 19.53125 -1.421875 13.0625 8.265625 
Q 6.59375 17.96875 6.59375 36.375 
Q 6.59375 54.828125 13.0625 64.515625 
Q 19.53125 74.21875 31.78125 74.21875 
z
" id="DejaVuSans-48"/>
      </defs>
      <g transform="translate(122.252722 545.762074)scale(0.1 -0.1)">
       <use xlink:href="#DejaVuSans-8722"/>
       <use x="83.789062" xlink:href="#DejaVuSans-49"/>
       <use x="147.412109" xlink:href="#DejaVuSans-48"/>
      </g>
     </g>
    </g>
    <g id="xtick_4">
     <g id="line2d_7">
      <path clip-path="url(#p1b61454345)" d="M 167.407067 531.163636 
L 167.407067 86.4 
" style="fill:none;stroke:#b0b0b0;stroke-linecap:square;stroke-width:0.8;"/>
     </g>
     <g id="line2d_8">
      <g>
       <use style="stroke:#000000;stroke-width:0.8;" x="167.407067" xlink:href="#m7a0879a4b6" y="531.163636"/>
      </g>
     </g>
     <g id="text_4">
      <!-- −8 -->
      <defs>
       <path d="M 31.78125 34.625 
Q 24.75 34.625 20.71875 30.859375 
Q 16.703125 27.09375 16.703125 20.515625 
Q 16.703125 13.921875 20.71875 10.15625 
Q 24.75 6.390625 31.78125 6.390625 
Q 38.8125 6.390625 42.859375 10.171875 
Q 46.921875 13.96875 46.921875 20.515625 
Q 46.921875 27.09375 42.890625 30.859375 
Q 38.875 34.625 31.78125 34.625 
z
M 21.921875 38.8125 
Q 15.578125 40.375 12.03125 44.71875 
Q 8.5 49.078125 8.5 55.328125 
Q 8.5 64.0625 14.71875 69.140625 
Q 20.953125 74.21875 31.78125 74.21875 
Q 42.671875 74.21875 48.875 69.140625 
Q 55.078125 64.0625 55.078125 55.328125 
Q 55.078125 49.078125 51.53125 44.71875 
Q 48 40.375 41.703125 38.8125 
Q 48.828125 37.15625 52.796875 32.3125 
Q 56.78125 27.484375 56.78125 20.515625 
Q 56.78125 9.90625 50.3125 4.234375 
Q 43.84375 -1.421875 31.78125 -1.421875 
Q 19.734375 -1.421875 13.25 4.234375 
Q 6.78125 9.90625 6.78125 20.515625 
Q 6.78125 27.484375 10.78125 32.3125 
Q 14.796875 37.15625 21.921875 38.8125 
z
M 18.3125 54.390625 
Q 18.3125 48.734375 21.84375 45.5625 
Q 25.390625 42.390625 31.78125 42.390625 
Q 38.140625 42.390625 41.71875 45.5625 
Q 45.3125 48.734375 45.3125 54.390625 
Q 45.3125 60.0625 41.71875 63.234375 
Q 38.140625 66.40625 31.78125 66.40625 
Q 25.390625 66.40625 21.84375 63.234375 
Q 18.3125 60.0625 18.3125 54.390625 
z
" id="DejaVuSans-56"/>
      </defs>
      <g transform="translate(160.035974 545.762074)scale(0.1 -0.1)">
       <use xlink:href="#DejaVuSans-8722"/>
       <use x="83.789062" xlink:href="#DejaVuSans-56"/>
      </g>
     </g>
    </g>
    <g id="xtick_5">
     <g id="line2d_9">
      <path clip-path="url(#p1b61454345)" d="M 202.009068 531.163636 
L 202.009068 86.4 
" style="fill:none;stroke:#b0b0b0;stroke-linecap:square;stroke-width:0.8;"/>
     </g>
     <g id="line2d_10">
      <g>
       <use style="stroke:#000000;stroke-width:0.8;" x="202.009068" xlink:href="#m7a0879a4b6" y="531.163636"/>
      </g>
     </g>
     <g id="text_5">
      <!-- −6 -->
      <defs>
       <path d="M 33.015625 40.375 
Q 26.375 40.375 22.484375 35.828125 
Q 18.609375 31.296875 18.609375 23.390625 
Q 18.609375 15.53125 22.484375 10.953125 
Q 26.375 6.390625 33.015625 6.390625 
Q 39.65625 6.390625 43.53125 10.953125 
Q 47.40625 15.53125 47.40625 23.390625 
Q 47.40625 31.296875 43.53125 35.828125 
Q 39.65625 40.375 33.015625 40.375 
z
M 52.59375 71.296875 
L 52.59375 62.3125 
Q 48.875 64.0625 45.09375 64.984375 
Q 41.3125 65.921875 37.59375 65.921875 
Q 27.828125 65.921875 22.671875 59.328125 
Q 17.53125 52.734375 16.796875 39.40625 
Q 19.671875 43.65625 24.015625 45.921875 
Q 28.375 48.1875 33.59375 48.1875 
Q 44.578125 48.1875 50.953125 41.515625 
Q 57.328125 34.859375 57.328125 23.390625 
Q 57.328125 12.15625 50.6875 5.359375 
Q 44.046875 -1.421875 33.015625 -1.421875 
Q 20.359375 -1.421875 13.671875 8.265625 
Q 6.984375 17.96875 6.984375 36.375 
Q 6.984375 53.65625 15.1875 63.9375 
Q 23.390625 74.21875 37.203125 74.21875 
Q 40.921875 74.21875 44.703125 73.484375 
Q 48.484375 72.75 52.59375 71.296875 
z
" id="DejaVuSans-54"/>
      </defs>
      <g transform="translate(194.637975 545.762074)scale(0.1 -0.1)">
       <use xlink:href="#DejaVuSans-8722"/>
       <use x="83.789062" xlink:href="#DejaVuSans-54"/>
      </g>
     </g>
    </g>
    <g id="xtick_6">
     <g id="line2d_11">
      <path clip-path="url(#p1b61454345)" d="M 236.61107 531.163636 
L 236.61107 86.4 
" style="fill:none;stroke:#b0b0b0;stroke-linecap:square;stroke-width:0.8;"/>
     </g>
     <g id="line2d_12">
      <g>
       <use style="stroke:#000000;stroke-width:0.8;" x="236.61107" xlink:href="#m7a0879a4b6" y="531.163636"/>
      </g>
     </g>
     <g id="text_6">
      <!-- −4 -->
      <g transform="translate(229.239976 545.762074)scale(0.1 -0.1)">
       <use xlink:href="#DejaVuSans-8722"/>
       <use x="83.789062" xlink:href="#DejaVuSans-52"/>
      </g>
     </g>
    </g>
    <g id="text_7">
     <!-- $\Delta r~[mm \cdot 10^{0}]$ -->
     <defs>
      <path d="M 34.1875 63.1875 
L 14.15625 8.203125 
L 54.25 8.203125 
z
M 0.78125 0 
L 28.609375 72.90625 
L 39.796875 72.90625 
L 67.578125 0 
z
" id="DejaVuSans-916"/>
      <path d="M 44.578125 46.390625 
Q 43.21875 47.125 41.453125 47.515625 
Q 39.703125 47.90625 37.703125 47.90625 
Q 30.515625 47.90625 25.140625 42.453125 
Q 19.78125 37.015625 18.015625 27.875 
L 12.5 0 
L 3.515625 0 
L 14.203125 54.6875 
L 23.1875 54.6875 
L 21.484375 46.1875 
Q 25.046875 50.921875 30 53.453125 
Q 34.96875 56 40.578125 56 
Q 42.046875 56 43.453125 55.828125 
Q 44.875 55.671875 46.296875 55.28125 
z
" id="DejaVuSans-Oblique-114"/>
      <path d="M 8.59375 75.984375 
L 29.296875 75.984375 
L 29.296875 69 
L 17.578125 69 
L 17.578125 -6.203125 
L 29.296875 -6.203125 
L 29.296875 -13.1875 
L 8.59375 -13.1875 
z
" id="DejaVuSans-91"/>
      <path d="M 89.796875 33.015625 
L 83.40625 0 
L 74.421875 0 
L 80.71875 32.71875 
Q 81.109375 34.8125 81.296875 36.328125 
Q 81.5 37.84375 81.5 38.921875 
Q 81.5 43.3125 79.046875 45.75 
Q 76.609375 48.1875 72.21875 48.1875 
Q 65.671875 48.1875 60.546875 43.28125 
Q 55.421875 38.375 53.90625 30.515625 
L 47.90625 0 
L 38.921875 0 
L 45.3125 32.71875 
Q 45.703125 34.515625 45.890625 36.046875 
Q 46.09375 37.59375 46.09375 38.8125 
Q 46.09375 43.265625 43.65625 45.71875 
Q 41.21875 48.1875 36.921875 48.1875 
Q 30.28125 48.1875 25.140625 43.28125 
Q 20.015625 38.375 18.5 30.515625 
L 12.5 0 
L 3.515625 0 
L 14.203125 54.6875 
L 23.1875 54.6875 
L 21.484375 46.1875 
Q 25.140625 50.984375 30.046875 53.484375 
Q 34.96875 56 40.578125 56 
Q 46.53125 56 50.359375 52.875 
Q 54.203125 49.75 54.984375 44.1875 
Q 59.078125 49.953125 64.46875 52.96875 
Q 69.875 56 75.875 56 
Q 82.90625 56 86.734375 51.953125 
Q 90.578125 47.90625 90.578125 40.484375 
Q 90.578125 38.875 90.375 36.9375 
Q 90.1875 35.015625 89.796875 33.015625 
z
" id="DejaVuSans-Oblique-109"/>
      <path d="M 10.6875 40.921875 
L 21 40.921875 
L 21 28.515625 
L 10.6875 28.515625 
z
" id="DejaVuSans-8901"/>
      <path d="M 30.421875 75.984375 
L 30.421875 -13.1875 
L 9.71875 -13.1875 
L 9.71875 -6.203125 
L 21.390625 -6.203125 
L 21.390625 69 
L 9.71875 69 
L 9.71875 75.984375 
z
" id="DejaVuSans-93"/>
     </defs>
     <g transform="translate(114.5 560.262074)scale(0.1 -0.1)">
      <use transform="translate(0 0.765625)" xlink:href="#DejaVuSans-916"/>
      <use transform="translate(68.408203 0.765625)" xlink:href="#DejaVuSans-Oblique-114"/>
      <use transform="translate(141.991863 0.765625)" xlink:href="#DejaVuSans-91"/>
      <use transform="translate(181.005535 0.765625)" xlink:href="#DejaVuSans-Oblique-109"/>
      <use transform="translate(278.417644 0.765625)" xlink:href="#DejaVuSans-Oblique-109"/>
      <use transform="translate(395.312175 0.765625)" xlink:href="#DejaVuSans-8901"/>
      <use transform="translate(446.581707 0.765625)" xlink:href="#DejaVuSans-49"/>
      <use transform="translate(510.204753 0.765625)" xlink:href="#DejaVuSans-48"/>
      <use transform="translate(574.784832 39.046875)scale(0.7)" xlink:href="#DejaVuSans-48"/>
      <use transform="translate(622.055339 0.765625)" xlink:href="#DejaVuSans-93"/>
     </g>
    </g>
   </g>
   <g id="matplotlib.axis_2">
    <g id="ytick_1">
     <g id="line2d_13">
      <path clip-path="url(#p1b61454345)" d="M 36 511.141636 
L 259.2 511.141636 
" style="fill:none;stroke:#b0b0b0;stroke-linecap:square;stroke-width:0.8;"/>
     </g>
     <g id="line2d_14">
      <defs>
       <path d="M 0 0 
L -3.5 0 
" id="m9519209785" style="stroke:#000000;stroke-width:0.8;"/>
      </defs>
      <g>
       <use style="stroke:#000000;stroke-width:0.8;" x="36" xlink:href="#m9519209785" y="511.141636"/>
      </g>
     </g>
     <g id="text_8">
      <!-- 1500 -->
      <defs>
       <path d="M 10.796875 72.90625 
L 49.515625 72.90625 
L 49.515625 64.59375 
L 19.828125 64.59375 
L 19.828125 46.734375 
Q 21.96875 47.46875 24.109375 47.828125 
Q 26.265625 48.1875 28.421875 48.1875 
Q 40.625 48.1875 47.75 41.5 
Q 54.890625 34.8125 54.890625 23.390625 
Q 54.890625 11.625 47.5625 5.09375 
Q 40.234375 -1.421875 26.90625 -1.421875 
Q 22.3125 -1.421875 17.546875 -0.640625 
Q 12.796875 0.140625 7.71875 1.703125 
L 7.71875 11.625 
Q 12.109375 9.234375 16.796875 8.0625 
Q 21.484375 6.890625 26.703125 6.890625 
Q 35.15625 6.890625 40.078125 11.328125 
Q 45.015625 15.765625 45.015625 23.390625 
Q 45.015625 31 40.078125 35.4375 
Q 35.15625 39.890625 26.703125 39.890625 
Q 22.75 39.890625 18.8125 39.015625 
Q 14.890625 38.140625 10.796875 36.28125 
z
" id="DejaVuSans-53"/>
      </defs>
      <g transform="translate(3.55 514.940855)scale(0.1 -0.1)">
       <use xlink:href="#DejaVuSans-49"/>
       <use x="63.623047" xlink:href="#DejaVuSans-53"/>
       <use x="127.246094" xlink:href="#DejaVuSans-48"/>
       <use x="190.869141" xlink:href="#DejaVuSans-48"/>
      </g>
     </g>
    </g>
    <g id="ytick_2">
     <g id="line2d_15">
      <path clip-path="url(#p1b61454345)" d="M 36 455.918006 
L 259.2 455.918006 
" style="fill:none;stroke:#b0b0b0;stroke-linecap:square;stroke-width:0.8;"/>
     </g>
     <g id="line2d_16">
      <g>
       <use style="stroke:#000000;stroke-width:0.8;" x="36" xlink:href="#m9519209785" y="455.918006"/>
      </g>
     </g>
     <g id="text_9">
      <!-- 1600 -->
      <g transform="translate(3.55 459.717224)scale(0.1 -0.1)">
       <use xlink:href="#DejaVuSans-49"/>
       <use x="63.623047" xlink:href="#DejaVuSans-54"/>
       <use x="127.246094" xlink:href="#DejaVuSans-48"/>
       <use x="190.869141" xlink:href="#DejaVuSans-48"/>
      </g>
     </g>
    </g>
    <g id="ytick_3">
     <g id="line2d_17">
      <path clip-path="url(#p1b61454345)" d="M 36 400.694375 
L 259.2 400.694375 
" style="fill:none;stroke:#b0b0b0;stroke-linecap:square;stroke-width:0.8;"/>
     </g>
     <g id="line2d_18">
      <g>
       <use style="stroke:#000000;stroke-width:0.8;" x="36" xlink:href="#m9519209785" y="400.694375"/>
      </g>
     </g>
     <g id="text_10">
      <!-- 1700 -->
      <defs>
       <path d="M 8.203125 72.90625 
L 55.078125 72.90625 
L 55.078125 68.703125 
L 28.609375 0 
L 18.3125 0 
L 43.21875 64.59375 
L 8.203125 64.59375 
z
" id="DejaVuSans-55"/>
      </defs>
      <g transform="translate(3.55 404.493594)scale(0.1 -0.1)">
       <use xlink:href="#DejaVuSans-49"/>
       <use x="63.623047" xlink:href="#DejaVuSans-55"/>
       <use x="127.246094" xlink:href="#DejaVuSans-48"/>
       <use x="190.869141" xlink:href="#DejaVuSans-48"/>
      </g>
     </g>
    </g>
    <g id="ytick_4">
     <g id="line2d_19">
      <path clip-path="url(#p1b61454345)" d="M 36 345.470745 
L 259.2 345.470745 
" style="fill:none;stroke:#b0b0b0;stroke-linecap:square;stroke-width:0.8;"/>
     </g>
     <g id="line2d_20">
      <g>
       <use style="stroke:#000000;stroke-width:0.8;" x="36" xlink:href="#m9519209785" y="345.470745"/>
      </g>
     </g>
     <g id="text_11">
      <!-- 1800 -->
      <g transform="translate(3.55 349.269964)scale(0.1 -0.1)">
       <use xlink:href="#DejaVuSans-49"/>
       <use x="63.623047" xlink:href="#DejaVuSans-56"/>
       <use x="127.246094" xlink:href="#DejaVuSans-48"/>
       <use x="190.869141" xlink:href="#DejaVuSans-48"/>
      </g>
     </g>
    </g>
    <g id="ytick_5">
     <g id="line2d_21">
      <path clip-path="url(#p1b61454345)" d="M 36 290.247115 
L 259.2 290.247115 
" style="fill:none;stroke:#b0b0b0;stroke-linecap:square;stroke-width:0.8;"/>
     </g>
     <g id="line2d_22">
      <g>
       <use style="stroke:#000000;stroke-width:0.8;" x="36" xlink:href="#m9519209785" y="290.247115"/>
      </g>
     </g>
     <g id="text_12">
      <!-- 1900 -->
      <defs>
       <path d="M 10.984375 1.515625 
L 10.984375 10.5 
Q 14.703125 8.734375 18.5 7.8125 
Q 22.3125 6.890625 25.984375 6.890625 
Q 35.75 6.890625 40.890625 13.453125 
Q 46.046875 20.015625 46.78125 33.40625 
Q 43.953125 29.203125 39.59375 26.953125 
Q 35.25 24.703125 29.984375 24.703125 
Q 19.046875 24.703125 12.671875 31.3125 
Q 6.296875 37.9375 6.296875 49.421875 
Q 6.296875 60.640625 12.9375 67.421875 
Q 19.578125 74.21875 30.609375 74.21875 
Q 43.265625 74.21875 49.921875 64.515625 
Q 56.59375 54.828125 56.59375 36.375 
Q 56.59375 19.140625 48.40625 8.859375 
Q 40.234375 -1.421875 26.421875 -1.421875 
Q 22.703125 -1.421875 18.890625 -0.6875 
Q 15.09375 0.046875 10.984375 1.515625 
z
M 30.609375 32.421875 
Q 37.25 32.421875 41.125 36.953125 
Q 45.015625 41.5 45.015625 49.421875 
Q 45.015625 57.28125 41.125 61.84375 
Q 37.25 66.40625 30.609375 66.40625 
Q 23.96875 66.40625 20.09375 61.84375 
Q 16.21875 57.28125 16.21875 49.421875 
Q 16.21875 41.5 20.09375 36.953125 
Q 23.96875 32.421875 30.609375 32.421875 
z
" id="DejaVuSans-57"/>
      </defs>
      <g transform="translate(3.55 294.046333)scale(0.1 -0.1)">
       <use xlink:href="#DejaVuSans-49"/>
       <use x="63.623047" xlink:href="#DejaVuSans-57"/>
       <use x="127.246094" xlink:href="#DejaVuSans-48"/>
       <use x="190.869141" xlink:href="#DejaVuSans-48"/>
      </g>
     </g>
    </g>
    <g id="ytick_6">
     <g id="line2d_23">
      <path clip-path="url(#p1b61454345)" d="M 36 235.023484 
L 259.2 235.023484 
" style="fill:none;stroke:#b0b0b0;stroke-linecap:square;stroke-width:0.8;"/>
     </g>
     <g id="line2d_24">
      <g>
       <use style="stroke:#000000;stroke-width:0.8;" x="36" xlink:href="#m9519209785" y="235.023484"/>
      </g>
     </g>
     <g id="text_13">
      <!-- 2000 -->
      <g transform="translate(3.55 238.822703)scale(0.1 -0.1)">
       <use xlink:href="#DejaVuSans-50"/>
       <use x="63.623047" xlink:href="#DejaVuSans-48"/>
       <use x="127.246094" xlink:href="#DejaVuSans-48"/>
       <use x="190.869141" xlink:href="#DejaVuSans-48"/>
      </g>
     </g>
    </g>
    <g id="ytick_7">
     <g id="line2d_25">
      <path clip-path="url(#p1b61454345)" d="M 36 179.799854 
L 259.2 179.799854 
" style="fill:none;stroke:#b0b0b0;stroke-linecap:square;stroke-width:0.8;"/>
     </g>
     <g id="line2d_26">
      <g>
       <use style="stroke:#000000;stroke-width:0.8;" x="36" xlink:href="#m9519209785" y="179.799854"/>
      </g>
     </g>
     <g id="text_14">
      <!-- 2100 -->
      <g transform="translate(3.55 183.599073)scale(0.1 -0.1)">
       <use xlink:href="#DejaVuSans-50"/>
       <use x="63.623047" xlink:href="#DejaVuSans-49"/>
       <use x="127.246094" xlink:href="#DejaVuSans-48"/>
       <use x="190.869141" xlink:href="#DejaVuSans-48"/>
      </g>
     </g>
    </g>
    <g id="ytick_8">
     <g id="line2d_27">
      <path clip-path="url(#p1b61454345)" d="M 36 124.576224 
L 259.2 124.576224 
" style="fill:none;stroke:#b0b0b0;stroke-linecap:square;stroke-width:0.8;"/>
     </g>
     <g id="line2d_28">
      <g>
       <use style="stroke:#000000;stroke-width:0.8;" x="36" xlink:href="#m9519209785" y="124.576224"/>
      </g>
     </g>
     <g id="text_15">
      <!-- 2200 -->
      <g transform="translate(3.55 128.375443)scale(0.1 -0.1)">
       <use xlink:href="#DejaVuSans-50"/>
       <use x="63.623047" xlink:href="#DejaVuSans-50"/>
       <use x="127.246094" xlink:href="#DejaVuSans-48"/>
       <use x="190.869141" xlink:href="#DejaVuSans-48"/>
      </g>
     </g>
    </g>
    <g id="text_16">
     <!-- z [mm] -->
     <defs>
      <path d="M 5.515625 54.6875 
L 48.1875 54.6875 
L 48.1875 46.484375 
L 14.40625 7.171875 
L 48.1875 7.171875 
L 48.1875 0 
L 4.296875 0 
L 4.296875 8.203125 
L 38.09375 47.515625 
L 5.515625 47.515625 
z
" id="DejaVuSans-122"/>
      <path id="DejaVuSans-32"/>
      <path d="M 52 44.1875 
Q 55.375 50.25 60.0625 53.125 
Q 64.75 56 71.09375 56 
Q 79.640625 56 84.28125 50.015625 
Q 88.921875 44.046875 88.921875 33.015625 
L 88.921875 0 
L 79.890625 0 
L 79.890625 32.71875 
Q 79.890625 40.578125 77.09375 44.375 
Q 74.3125 48.1875 68.609375 48.1875 
Q 61.625 48.1875 57.5625 43.546875 
Q 53.515625 38.921875 53.515625 30.90625 
L 53.515625 0 
L 44.484375 0 
L 44.484375 32.71875 
Q 44.484375 40.625 41.703125 44.40625 
Q 38.921875 48.1875 33.109375 48.1875 
Q 26.21875 48.1875 22.15625 43.53125 
Q 18.109375 38.875 18.109375 30.90625 
L 18.109375 0 
L 9.078125 0 
L 9.078125 54.6875 
L 18.109375 54.6875 
L 18.109375 46.1875 
Q 21.1875 51.21875 25.484375 53.609375 
Q 29.78125 56 35.6875 56 
Q 41.65625 56 45.828125 52.96875 
Q 50 49.953125 52 44.1875 
z
" id="DejaVuSans-109"/>
     </defs>
     <g transform="translate(-2.529688 326.637287)rotate(-90)scale(0.1 -0.1)">
      <use xlink:href="#DejaVuSans-122"/>
      <use x="52.490234" xlink:href="#DejaVuSans-32"/>
      <use x="84.277344" xlink:href="#DejaVuSans-91"/>
      <use x="123.291016" xlink:href="#DejaVuSans-109"/>
      <use x="220.703125" xlink:href="#DejaVuSans-109"/>
      <use x="318.115234" xlink:href="#DejaVuSans-93"/>
     </g>
    </g>
   </g>
   <g id="line2d_29">
    <path clip-path="url(#p1b61454345)" d="M 249.054545 110.977777 
L 47.783708 110.977777 
" style="fill:none;stroke:#ff0000;stroke-linecap:square;stroke-width:0.5;"/>
   </g>
   <g id="line2d_30">
    <path clip-path="url(#p1b61454345)" d="M 198.027628 510.947107 
L 46.145455 106.616529 
" style="fill:none;stroke:#ff0000;stroke-linecap:square;stroke-width:0.5;"/>
   </g>
   <g id="line2d_31">
    <path clip-path="url(#p1b61454345)" d="M 198.027628 510.947107 
L 198.047233 510.53383 
L 197.882362 509.905919 
L 198.01361 509.732865 
L 197.916437 509.714064 
L 197.792028 508.910983 
L 197.80618 508.388009 
L 197.714523 506.615002 
L 197.66637 503.796579 
L 197.596435 503.136487 
L 197.591618 502.453442 
L 197.626686 500.929934 
L 197.402914 498.789125 
L 197.497651 496.286923 
L 197.564938 495.949296 
L 197.549476 495.370617 
L 197.670894 494.491181 
L 197.607627 493.929976 
L 197.724936 493.379081 
L 197.620869 493.327341 
L 197.564153 492.769568 
L 197.621219 492.294609 
L 197.663789 491.678169 
L 197.522505 491.552648 
L 197.678621 490.953142 
L 197.500304 490.419315 
L 197.624011 489.409839 
L 197.750941 488.871714 
L 197.637404 488.518333 
L 197.690205 488.241542 
L 197.86962 488.120903 
L 197.758363 487.518079 
L 197.899917 487.37641 
L 197.752762 487.166454 
L 198.093888 484.005498 
L 198.251901 483.712841 
L 198.211296 483.266558 
L 198.562041 481.789063 
L 199.348078 477.289338 
L 199.329353 477.127508 
L 199.581472 475.963015 
L 199.818299 475.400883 
L 199.812152 475.106776 
L 200.0056 474.365941 
L 200.257393 473.148087 
L 200.545813 472.398785 
L 200.583673 471.906205 
L 200.811429 471.63352 
L 200.90892 470.64274 
L 201.138931 470.448001 
L 201.276369 469.037358 
L 201.480325 468.855206 
L 201.586144 468.026322 
L 201.790768 467.608948 
L 201.719891 467.43859 
L 202.283822 465.924215 
L 202.35067 465.532158 
L 202.902626 464.283068 
L 203.02131 463.759504 
L 204.215988 460.509919 
L 204.990552 458.990205 
L 204.92557 458.653835 
L 205.194711 458.239053 
L 205.224275 457.863764 
L 205.448059 457.118755 
L 205.697939 457.043108 
L 205.936405 456.28058 
L 205.943232 455.876836 
L 206.43279 454.559042 
L 206.619588 454.464507 
L 206.936964 453.306033 
L 207.16719 453.274568 
L 207.3354 452.560926 
L 207.549617 452.469119 
L 207.874965 451.467614 
L 208.102858 451.28758 
L 208.062838 450.641792 
L 208.387272 450.557738 
L 208.313715 450.160412 
L 208.783563 449.56321 
L 208.41125 449.398319 
L 209.169431 448.220328 
L 208.918506 448.079535 
L 209.221464 447.77953 
L 209.518581 447.266222 
L 209.34237 447.144308 
L 209.665685 446.739419 
L 209.695597 446.405344 
L 210.101541 446.128675 
L 209.972462 445.607719 
L 210.297704 445.26757 
L 210.592093 445.207529 
L 210.699995 444.53735 
L 211.274732 443.843531 
L 211.019596 443.721134 
L 211.282014 443.124955 
L 211.639286 442.915706 
L 211.806321 441.930532 
L 212.247914 440.812098 
L 212.397989 440.494078 
L 212.622891 440.278081 
L 212.623947 440.044054 
L 212.74675 439.564766 
L 213.057571 439.241538 
L 213.169119 438.804722 
L 213.342654 438.611739 
L 213.317658 438.421076 
L 213.565108 438.125398 
L 213.662334 437.712339 
L 214.352597 436.532861 
L 214.28933 436.427662 
L 214.888261 435.390096 
L 214.744869 435.218232 
L 215.426524 433.630504 
L 215.537755 433.478932 
L 216.300279 431.755374 
L 216.305429 431.564237 
L 217.101075 429.73899 
L 217.305057 429.415569 
L 217.277754 429.245024 
L 217.495579 428.696613 
L 217.763339 428.178137 
L 217.880332 427.469761 
L 218.074225 426.995801 
L 218.170819 426.751842 
L 218.076325 426.498783 
L 218.328711 424.849621 
L 218.578075 424.310315 
L 218.557905 423.904631 
L 219.050943 422.425767 
L 219.046718 422.391325 
L 219.83743 419.759766 
L 219.989927 419.619105 
L 220.603802 418.409673 
L 221.717253 416.872997 
L 221.792883 416.562221 
L 222.427738 415.608842 
L 222.643251 414.87612 
L 222.865774 414.485157 
L 223.87798 411.953251 
L 223.858406 411.903612 
L 224.089965 411.520662 
L 224.13142 411.209199 
L 224.302841 411.008429 
L 224.503043 410.298873 
L 224.769657 410.127135 
L 225.015319 409.667495 
L 225.008086 409.266924 
L 225.220364 409.17832 
L 225.236672 408.702123 
L 225.689912 408.051425 
L 225.517484 407.823567 
L 225.785605 407.724939 
L 225.883435 407.301399 
L 226.132452 407.003493 
L 226.406967 406.092546 
L 226.817243 405.414043 
L 230.408817 398.006183 
L 230.308077 397.723985 
L 230.446441 397.664731 
L 230.727689 396.831059 
L 230.624055 396.700067 
L 230.864627 396.658923 
L 230.801243 396.425466 
L 231.15533 395.435508 
L 231.041534 395.364625 
L 231.151148 395.341191 
L 231.270183 394.970972 
L 231.254426 394.23151 
L 231.438692 394.107483 
L 231.231912 393.843191 
L 231.491159 393.710192 
L 231.397505 393.640449 
L 231.383737 391.694508 
L 231.217414 391.477629 
L 231.382378 390.785363 
L 231.128796 390.446283 
L 231.208649 389.893636 
L 231.096917 389.856975 
L 231.198181 389.627396 
L 231.205748 388.896742 
L 231.412393 388.411699 
L 232.146693 388.165247 
L 235.883566 387.660518 
L 236.288058 387.58413 
L 242.005034 386.752073 
L 244.97668 385.956789 
L 246.160957 385.530221 
L 247.256736 385.118385 
L 247.64567 384.868565 
L 247.782998 384.83362 
L 247.496223 384.806193 
L 247.514014 384.758278 
L 241.328817 383.78116 
L 238.647387 383.113559 
L 238.753887 382.990049 
L 238.390031 382.814904 
L 238.532395 382.627157 
L 238.046463 382.50612 
L 237.868696 382.111886 
L 237.40536 381.949876 
L 236.890888 381.603406 
L 236.114078 381.355682 
L 233.282504 380.650234 
L 233.473682 380.552042 
L 233.017522 380.351146 
L 233.177128 380.242493 
L 232.852368 379.801325 
L 232.803824 379.448969 
L 232.953077 379.409916 
L 233.004771 378.528474 
L 233.385576 376.608296 
L 233.41313 376.007832 
L 232.806001 371.501153 
L 232.898505 366.773401 
L 232.958916 366.68702 
L 233.130296 364.687853 
L 233.235788 363.739205 
L 233.149182 363.556289 
L 233.270963 363.466151 
L 233.196156 363.285668 
L 233.242205 363.093484 
L 233.278787 362.364061 
L 233.136305 362.298685 
L 233.242291 362.04895 
L 233.136526 361.847846 
L 233.189497 361.282429 
L 233.04098 360.407925 
L 232.461401 358.00253 
L 232.398123 357.363894 
L 232.162205 356.794863 
L 232.303096 356.397805 
L 231.966574 356.00633 
L 232.092798 355.120629 
L 231.722068 354.985982 
L 231.94964 354.500599 
L 231.589116 354.334117 
L 231.968912 354.242583 
L 231.213204 353.537394 
L 231.63737 353.294111 
L 231.278696 353.037264 
L 231.152052 352.453489 
L 231.50014 352.415043 
L 231.390707 351.516639 
L 230.783941 351.454762 
L 231.508298 351.301452 
L 230.876388 350.942992 
L 231.462286 350.166263 
L 230.586812 350.095752 
L 231.061458 349.392391 
L 231.37416 349.370537 
L 230.757286 348.80725 
L 231.43052 348.520634 
L 231.602863 347.839886 
L 231.190977 347.772927 
L 231.548548 347.590816 
L 230.739805 347.48416 
L 231.172773 347.261106 
L 231.455807 347.257912 
L 231.64561 346.750494 
L 230.966226 346.532721 
L 231.937889 345.890918 
L 231.88693 345.644807 
L 231.590139 345.594326 
L 232.012064 344.843002 
L 231.580424 344.387756 
L 232.047947 344.38575 
L 231.745435 344.183524 
L 231.951537 343.923559 
L 231.693388 343.659158 
L 231.898329 343.415076 
L 231.837352 343.172162 
L 231.515476 340.235521 
L 231.307726 338.382518 
L 231.359252 337.979361 
L 231.175413 335.980316 
L 231.145869 335.531333 
L 230.544351 329.570295 
L 230.42557 327.099235 
L 230.314546 327.064463 
L 230.184269 326.668932 
L 230.35921 325.969156 
L 230.153545 325.530864 
L 230.266508 325.357334 
L 230.244003 324.918115 
L 230.360674 324.754766 
L 230.202316 324.361588 
L 230.260431 323.561865 
L 230.151429 323.141571 
L 230.099728 321.895031 
L 229.847844 320.376463 
L 229.215847 318.257261 
L 229.378203 318.14686 
L 229.266401 318.078556 
L 229.421797 317.494132 
L 229.372048 316.501413 
L 229.412363 316.489737 
L 229.425881 315.765143 
L 229.149369 313.909561 
L 228.960239 313.505058 
L 229.015146 313.080024 
L 228.929075 312.605091 
L 228.7187 311.294986 
L 228.57514 310.527448 
L 228.317193 308.730621 
L 228.234897 306.248948 
L 228.026754 306.076779 
L 228.110975 305.835849 
L 228.138271 305.365484 
L 227.903937 304.909216 
L 227.872568 304.389046 
L 227.635416 303.23769 
L 227.699438 303.127856 
L 227.463385 302.050029 
L 227.534772 301.698978 
L 227.243515 301.423173 
L 227.454835 301.019551 
L 227.436091 300.312226 
L 227.255595 300.28149 
L 227.151536 299.776289 
L 227.288979 299.496726 
L 226.885634 299.173572 
L 226.970904 298.501967 
L 226.786586 298.49707 
L 226.831851 298.233111 
L 226.660783 298.056914 
L 226.577949 295.835782 
L 226.550446 295.767974 
L 226.581389 294.856251 
L 226.482308 294.835763 
L 226.491892 294.793005 
L 226.459098 294.448608 
L 226.526902 294.284457 
L 226.29151 293.785081 
L 226.106593 293.016487 
L 226.216002 292.093282 
L 226.013942 291.642662 
L 226.097121 291.458303 
L 226.007194 290.996058 
L 226.247716 290.81806 
L 226.006952 290.662558 
L 225.770872 290.272521 
L 226.197329 290.08081 
L 225.757365 289.983386 
L 225.858536 289.453434 
L 225.561191 289.107505 
L 226.003082 288.983975 
L 226.046143 288.615798 
L 225.571802 288.227621 
L 225.370889 287.814526 
L 225.620764 287.642472 
L 225.364575 287.345707 
L 225.786523 287.22368 
L 225.418861 286.683036 
L 225.586106 285.989245 
L 225.231007 285.934689 
L 225.716315 285.06818 
L 225.459922 285.065169 
L 225.242567 284.812028 
L 225.217356 284.300301 
L 225.989299 284.01437 
L 225.654962 283.912103 
L 225.690203 283.339524 
L 225.483076 283.274943 
L 225.647805 282.641469 
L 225.295648 282.303851 
L 225.802721 282.133497 
L 225.26478 281.881838 
L 225.852297 281.83099 
L 225.459301 281.819109 
L 225.315947 280.989988 
L 225.666147 280.566227 
L 225.225948 279.411083 
L 225.438148 279.245955 
L 225.362467 278.462859 
L 225.149685 278.398327 
L 225.156066 278.397028 
L 224.992285 277.829765 
L 225.135051 277.506365 
L 224.935939 277.3075 
L 225.176043 277.17939 
L 224.97323 276.784413 
L 224.797269 276.734838 
L 225.471737 276.723535 
L 225.081271 276.478284 
L 224.778564 276.013021 
L 224.733826 275.602052 
L 225.039681 275.294086 
L 224.852684 275.264928 
L 224.760915 275.131783 
L 224.802886 274.943135 
L 225.183541 274.926546 
L 224.877339 274.704532 
L 224.813254 274.332889 
L 225.044539 274.06849 
L 224.828753 274.016071 
L 224.946687 273.933324 
L 225.383569 272.521663 
L 225.008573 272.31935 
L 225.184571 272.182921 
L 225.704039 272.137115 
L 225.276717 272.062954 
L 225.524113 271.910099 
L 225.167324 271.733023 
L 225.629477 271.583378 
L 225.361608 271.345995 
L 225.833502 271.344804 
L 224.720277 271.035321 
L 224.894773 270.589246 
L 225.243429 270.327382 
L 224.569963 270.141924 
L 224.656062 269.943813 
L 225.210477 269.838569 
L 224.87822 269.554608 
L 224.60625 268.845697 
L 224.85482 268.520027 
L 224.443534 267.887922 
L 224.574086 267.583142 
L 224.768019 267.442356 
L 224.881061 267.173327 
L 224.786711 266.780492 
L 224.473258 266.224334 
L 224.721005 266.190581 
L 225.045911 265.777113 
L 224.673734 265.6146 
L 224.950447 265.576995 
L 224.527458 265.198911 
L 224.446788 264.621477 
L 224.727476 264.460186 
L 224.574635 264.060077 
L 224.877235 263.859427 
L 224.409941 263.307778 
L 224.208099 263.266376 
L 224.72551 262.772422 
L 224.283789 262.490417 
L 224.248648 262.007857 
L 224.620739 261.99662 
L 224.695996 261.396158 
L 224.457345 261.336417 
L 224.220387 260.793026 
L 224.818144 260.461842 
L 224.302313 260.375431 
L 224.713551 259.82229 
L 224.800902 259.354906 
L 224.737865 258.994108 
L 224.485395 258.876391 
L 224.452125 258.226139 
L 224.838925 257.723234 
L 224.149673 257.546522 
L 224.590966 257.020432 
L 224.274979 256.781596 
L 224.077961 256.156467 
L 224.326595 255.796347 
L 224.265979 255.584384 
L 224.612322 255.076611 
L 224.289154 254.850351 
L 224.689123 254.276374 
L 224.485694 254.082027 
L 224.64649 253.10623 
L 224.842861 252.990379 
L 225.123753 252.509816 
L 224.844962 252.204245 
L 225.111993 251.575535 
L 224.84155 251.556206 
L 225.029334 251.004957 
L 224.856731 250.739141 
L 225.112745 250.149936 
L 225.094241 249.600504 
L 225.373931 249.369337 
L 225.10937 248.551215 
L 225.64283 248.197212 
L 225.312987 248.107882 
L 225.225556 247.793198 
L 225.335028 247.520529 
L 225.637018 247.211468 
L 225.299982 247.139917 
L 225.285584 246.841558 
L 225.557834 246.5398 
L 225.369027 246.492727 
L 225.322317 246.128012 
L 225.715834 245.258297 
L 225.390169 245.103651 
L 225.753272 244.4371 
L 225.332327 244.056933 
L 225.644764 243.757759 
L 225.993148 243.595204 
L 225.343719 243.245816 
L 225.567766 243.104143 
L 226.069951 242.948501 
L 225.935165 242.904347 
L 225.240145 242.61291 
L 225.920362 242.243467 
L 225.621276 241.9308 
L 225.874708 241.339775 
L 225.64892 241.050147 
L 226.179114 240.465743 
L 225.844196 240.265575 
L 226.52249 239.967187 
L 225.988803 239.943685 
L 226.319075 239.80162 
L 226.318517 239.534199 
L 225.999272 239.431622 
L 226.761405 239.108518 
L 226.171635 238.738495 
L 226.341556 238.670754 
L 226.084986 238.588632 
L 226.901481 238.341195 
L 226.901955 237.574017 
L 226.298622 237.533815 
L 226.361767 237.458307 
L 226.725728 237.238459 
L 226.459441 236.782131 
L 227.1957 236.731613 
L 226.938744 236.694248 
L 226.815049 236.460772 
L 226.488808 236.275056 
L 226.58484 236.032507 
L 227.228798 235.937454 
L 227.100516 235.929536 
L 226.558487 235.470296 
L 227.192259 235.271941 
L 226.41103 234.970302 
L 227.030119 234.940897 
L 226.712962 234.605681 
L 227.443188 234.556763 
L 226.477339 234.555439 
L 227.235878 234.013372 
L 226.523185 233.831408 
L 226.763827 233.689681 
L 226.527753 233.250048 
L 226.849189 232.54967 
L 227.075022 232.492047 
L 226.780812 232.342721 
L 227.451539 231.881927 
L 226.857418 231.693861 
L 227.131756 230.795718 
L 227.462352 230.629976 
L 227.267005 229.8659 
L 227.706803 229.770168 
L 227.263374 229.561295 
L 227.483848 228.828749 
L 227.720907 228.695916 
L 227.815718 227.982243 
L 228.200606 227.73544 
L 228.020061 227.396576 
L 228.499678 227.334519 
L 227.95052 227.093829 
L 228.4307 226.930033 
L 228.434666 226.426981 
L 228.254688 226.155662 
L 228.731575 226.005165 
L 228.500155 225.652816 
L 228.89157 225.539195 
L 228.142142 225.175305 
L 228.805124 224.893128 
L 228.432869 224.830432 
L 228.696403 224.300207 
L 228.273529 224.124693 
L 228.393681 223.75579 
L 228.752917 223.655399 
L 228.499911 223.421687 
L 228.158912 223.403977 
L 228.527347 223.129093 
L 228.181387 222.936206 
L 229.056485 222.175664 
L 228.445385 221.807875 
L 229.177042 221.68005 
L 228.829466 220.828387 
L 228.567874 220.73251 
L 228.752836 220.216516 
L 229.11469 220.20692 
L 228.737263 219.51311 
L 229.105084 219.17919 
L 229.521581 219.0523 
L 229.183275 218.607659 
L 229.495864 218.349847 
L 229.244348 217.717636 
L 229.594644 217.630684 
L 229.632509 216.990686 
L 229.354105 216.802296 
L 229.519155 216.416005 
L 229.46398 215.985025 
L 229.237298 215.909425 
L 229.319646 215.630749 
L 229.792255 215.532213 
L 229.583016 215.232485 
L 229.921058 215.018423 
L 229.628697 214.881365 
L 230.1543 214.719545 
L 229.941439 214.446914 
L 230.230029 214.326231 
L 229.829005 214.080676 
L 229.994949 213.86353 
L 229.893759 213.582287 
L 229.927543 213.150327 
L 230.318965 212.972286 
L 230.037129 212.655264 
L 229.78795 212.590538 
L 230.414233 212.574029 
L 230.090749 211.661527 
L 229.759803 211.506594 
L 230.429019 211.418497 
L 230.029392 210.964898 
L 230.457896 210.695571 
L 229.928112 210.393798 
L 230.333463 210.055708 
L 230.197524 209.377788 
L 230.722054 209.366641 
L 230.914881 209.01313 
L 230.312492 208.89809 
L 230.499294 208.075874 
L 230.718886 207.653105 
L 231.107493 207.60624 
L 230.772214 206.569622 
L 231.316868 206.412781 
L 230.905505 205.759766 
L 231.343697 205.439995 
L 231.055604 205.230845 
L 231.071805 204.716681 
L 231.745462 204.295392 
L 230.840194 203.975135 
L 231.272511 203.651645 
L 231.678785 203.518734 
L 231.043311 203.314238 
L 231.685519 202.864107 
L 231.445475 202.266643 
L 231.914043 202.013191 
L 231.866441 201.813257 
L 232.121585 201.196233 
L 231.708927 201.043048 
L 232.174636 200.823149 
L 232.278005 200.287791 
L 231.868317 200.131353 
L 232.043909 199.792234 
L 232.580094 199.701929 
L 232.310168 199.379871 
L 232.597688 199.332246 
L 232.518092 199.015269 
L 232.109117 198.8176 
L 232.75456 198.781177 
L 232.712514 198.530267 
L 232.34919 198.410202 
L 232.963582 197.900967 
L 232.839487 197.858329 
L 232.503709 197.29575 
L 233.110731 196.856045 
L 232.720113 196.821993 
L 232.957688 196.776943 
L 233.020422 196.367664 
L 232.196584 196.083577 
L 232.870962 196.043693 
L 232.082522 195.294504 
L 232.816676 194.634194 
L 232.056964 194.556359 
L 232.515474 194.479946 
L 232.332515 194.201542 
L 233.099218 194.144412 
L 232.22581 193.774143 
L 232.909291 193.551691 
L 233.216402 193.048867 
L 232.48654 192.885506 
L 232.948213 192.411774 
L 232.639109 192.21345 
L 233.203266 191.974227 
L 233.16688 191.48081 
L 233.493023 191.384044 
L 233.283527 191.086761 
L 233.137645 190.430843 
L 232.849186 190.397217 
L 233.557198 190.395259 
L 233.579043 190.015234 
L 233.272219 189.958311 
L 233.219502 189.096768 
L 232.948603 189.027372 
L 233.278906 187.542986 
L 233.632102 187.059969 
L 233.111368 186.819923 
L 233.549053 186.216379 
L 233.169199 186.100323 
L 233.728377 185.749913 
L 233.439867 185.287741 
L 233.264131 185.237818 
L 233.898209 185.086228 
L 233.285157 184.887076 
L 233.523446 184.74684 
L 233.695223 184.196077 
L 233.157877 183.729174 
L 233.328434 183.723099 
L 233.267614 183.448829 
L 233.504229 182.826373 
L 233.377588 182.347477 
L 233.516706 181.992352 
L 233.446144 181.831328 
L 233.989399 180.646296 
L 233.76035 180.533309 
L 233.849852 180.015437 
L 234.042725 180.012546 
L 233.98124 179.187114 
L 234.261838 178.699311 
L 234.257989 178.296938 
L 234.615179 177.739196 
L 234.656896 177.415298 
L 234.996347 177.156086 
L 234.666399 177.104295 
L 235.201512 176.988595 
L 235.041167 176.953014 
L 234.8756 176.607245 
L 235.44713 176.346564 
L 234.807306 176.286298 
L 235.247269 176.282671 
L 235.844273 176.166722 
L 235.772932 175.7067 
L 236.03804 175.688558 
L 235.439009 175.521687 
L 235.917804 175.424179 
L 235.453651 175.06041 
L 235.099548 175.057214 
L 236.080117 174.568565 
L 235.571719 174.407048 
L 235.90249 174.133396 
L 235.522063 173.848907 
L 236.202055 173.704558 
L 235.918667 173.451115 
L 236.035034 172.750256 
L 235.69605 172.593646 
L 236.013615 172.046891 
L 236.213808 172.041481 
L 235.528834 171.931593 
L 235.782047 171.81798 
L 236.088201 171.455924 
L 235.56819 170.856519 
L 236.132252 170.699564 
L 236.177802 170.298695 
L 235.876544 170.293635 
L 236.127577 169.78336 
L 236.477049 169.526196 
L 235.624414 169.511673 
L 235.972582 168.817869 
L 236.528674 168.621143 
L 236.419596 168.387447 
L 235.679431 168.2331 
L 236.10116 168.174396 
L 236.29073 167.609023 
L 235.859252 166.938302 
L 236.713508 166.518366 
L 236.088702 166.129819 
L 235.729713 166.102367 
L 236.688357 165.739056 
L 235.780371 165.59852 
L 236.176701 165.236057 
L 235.731575 164.836456 
L 236.53781 164.801814 
L 235.871943 164.141423 
L 236.259775 163.939265 
L 236.719601 163.504514 
L 236.177718 163.498256 
L 235.862764 162.970236 
L 236.233346 162.961599 
L 236.555369 162.815701 
L 235.811591 162.656021 
L 236.040715 162.278341 
L 235.982053 161.78926 
L 236.328995 161.630009 
L 236.286925 160.925535 
L 236.097476 160.842369 
L 236.51493 160.635766 
L 236.583274 160.353191 
L 236.134761 160.227736 
L 235.981937 159.786224 
L 236.642595 159.421589 
L 236.071446 159.189982 
L 236.027165 158.925266 
L 236.663221 158.45116 
L 236.259085 157.636479 
L 236.715236 157.319214 
L 236.508191 157.255224 
L 236.425055 156.928528 
L 236.614778 156.577504 
L 236.883629 156.571931 
L 236.602163 156.116934 
L 237.283586 155.900389 
L 236.842093 155.261054 
L 237.213839 155.130032 
L 237.789819 154.463426 
L 237.053876 154.4192 
L 237.042742 154.181592 
L 237.870994 153.680182 
L 237.128292 153.587013 
L 237.65233 153.339076 
L 237.419189 153.008946 
L 238.106054 152.94061 
L 237.989918 152.654369 
L 237.078721 152.461611 
L 238.372365 152.28622 
L 237.779325 151.584425 
L 237.106712 151.323451 
L 238.185155 150.799003 
L 237.277833 150.794778 
L 237.403475 150.280467 
L 236.906224 149.632715 
L 238.108875 149.573861 
L 237.23064 149.538363 
L 238.396707 148.854895 
L 237.684298 148.809342 
L 237.879455 148.368793 
L 237.115131 148.314848 
L 237.450946 148.031556 
L 238.639992 147.76682 
L 238.112481 147.677332 
L 238.447351 146.986029 
L 239.117306 146.908097 
L 238.788389 146.466916 
L 238.046818 146.454639 
L 239.482935 146.324493 
L 238.50889 146.0287 
L 239.383209 145.899189 
L 239.141232 145.068368 
L 239.785673 145.029344 
L 240.042827 144.723967 
L 239.742389 144.177741 
L 239.46308 143.993711 
L 239.685302 143.358715 
L 239.326507 143.306596 
L 240.187702 142.666119 
L 239.403713 142.157305 
L 239.906949 142.114249 
L 239.80089 141.583816 
L 240.382902 141.495246 
L 239.689924 141.232859 
L 240.118165 140.649222 
L 240.571362 140.623331 
L 239.940238 140.266009 
L 240.535696 139.674494 
L 240.912556 139.670362 
L 240.257082 139.35195 
L 241.183289 139.025028 
L 240.767736 138.923832 
L 240.475497 138.324115 
L 240.052857 138.272963 
L 240.284182 137.771044 
L 241.117413 137.540622 
L 240.375169 137.209365 
L 239.965384 136.80426 
L 240.987128 136.671264 
L 240.968997 136.051386 
L 240.350119 135.998219 
L 240.460484 135.498115 
L 241.508044 134.799668 
L 240.68264 134.364502 
L 241.067551 134.069751 
L 240.475453 134.000523 
L 241.642716 133.465491 
L 241.199498 133.134249 
L 241.162454 132.522947 
L 241.963993 132.384673 
L 241.536274 132.141861 
L 241.836356 131.393076 
L 242.467331 131.131442 
L 241.626817 130.96594 
L 242.483346 130.394859 
L 241.718603 129.997994 
L 242.88542 129.959904 
L 242.614979 129.364448 
L 241.870678 129.306509 
L 242.993383 129.238876 
L 241.637108 129.0662 
L 242.515428 128.499288 
L 243.089898 128.291922 
L 241.822085 128.13181 
L 243.161322 127.748037 
L 242.743608 127.467533 
L 241.81165 127.440183 
L 243.308576 127.121214 
L 242.025092 126.937417 
L 242.648343 126.891734 
L 243.025177 126.599597 
L 242.178681 126.0848 
L 241.924889 125.797166 
L 242.786519 125.717027 
L 243.122287 125.425325 
L 242.200381 125.158764 
L 242.610303 125.114295 
L 241.245124 124.668952 
L 241.853323 124.599779 
L 242.383897 123.755783 
L 242.071951 123.654702 
L 240.605925 123.542149 
L 241.394297 123.352096 
L 240.944473 122.952206 
L 242.026958 122.737554 
L 240.594966 122.735505 
L 241.554985 122.601279 
L 241.232602 122.371618 
L 241.028955 122.032506 
L 242.150893 121.699533 
L 240.775208 121.622583 
L 242.129295 121.152738 
L 241.140396 121.066135 
L 242.249519 120.687986 
L 241.925103 120.438102 
L 241.804277 119.949384 
L 242.943374 119.681918 
L 242.456212 119.594362 
L 243.806331 118.76232 
L 242.356309 118.701634 
L 243.512557 118.346096 
L 243.19669 117.578415 
L 244.747153 117.151336 
L 243.449157 116.897637 
L 244.2917 116.677068 
L 244.079606 116.28596 
L 245.739893 116.264182 
L 245.592426 116.125357 
L 244.948406 116.070378 
L 245.470514 115.664487 
L 244.615628 115.381424 
L 245.551754 115.116353 
L 247.19357 115.047196 
L 245.261727 114.851087 
L 246.670268 114.760215 
L 245.943772 114.361015 
L 248.079547 114.242517 
L 247.33107 114.092518 
L 245.951131 113.638838 
L 248.498267 113.595951 
L 248.251415 113.53144 
L 246.104776 113.129835 
L 248.082609 113.00425 
L 246.865197 112.909128 
L 247.236487 112.840106 
L 248.408129 112.721735 
L 246.497891 112.652249 
L 246.84911 112.512641 
L 247.892171 112.35258 
L 248.975327 112.319117 
L 247.711111 112.06787 
L 248.999102 111.651173 
L 247.687628 111.496814 
L 248.25701 111.427748 
L 248.05914 111.128912 
L 249.054545 110.977777 
L 247.995047 110.899487 
L 248.225485 110.833526 
L 248.744844 110.68852 
L 246.817452 110.505849 
L 247.270613 110.4159 
L 234.21658 110.006832 
L 231.928118 110.004395 
L 232.912403 109.991748 
L 180.293399 109.016283 
L 101.233265 107.500838 
L 102.632485 107.49324 
L 65.310243 106.812548 
L 69.291595 106.809773 
L 55.095691 106.809594 
L 59.67757 106.70747 
L 46.145455 106.616529 
L 46.145455 106.616529 
" style="fill:none;stroke:#000000;stroke-linecap:square;stroke-width:1.5;"/>
   </g>
   <g id="patch_3">
    <path d="M 36 531.163636 
L 36 86.4 
" style="fill:none;stroke:#000000;stroke-linecap:square;stroke-linejoin:miter;stroke-width:0.8;"/>
   </g>
   <g id="patch_4">
    <path d="M 259.2 531.163636 
L 259.2 86.4 
" style="fill:none;stroke:#000000;stroke-linecap:square;stroke-linejoin:miter;stroke-width:0.8;"/>
   </g>
   <g id="patch_5">
    <path d="M 36 531.163636 
L 259.2 531.163636 
" style="fill:none;stroke:#000000;stroke-linecap:square;stroke-linejoin:miter;stroke-width:0.8;"/>
   </g>
   <g id="patch_6">
    <path d="M 36 86.4 
L 259.2 86.4 
" style="fill:none;stroke:#000000;stroke-linecap:square;stroke-linejoin:miter;stroke-width:0.8;"/>
   </g>
   <g id="text_17">
    <!-- at180 ° -->
    <defs>
     <path d="M 34.28125 27.484375 
Q 23.390625 27.484375 19.1875 25 
Q 14.984375 22.515625 14.984375 16.5 
Q 14.984375 11.71875 18.140625 8.90625 
Q 21.296875 6.109375 26.703125 6.109375 
Q 34.1875 6.109375 38.703125 11.40625 
Q 43.21875 16.703125 43.21875 25.484375 
L 43.21875 27.484375 
z
M 52.203125 31.203125 
L 52.203125 0 
L 43.21875 0 
L 43.21875 8.296875 
Q 40.140625 3.328125 35.546875 0.953125 
Q 30.953125 -1.421875 24.3125 -1.421875 
Q 15.921875 -1.421875 10.953125 3.296875 
Q 6 8.015625 6 15.921875 
Q 6 25.140625 12.171875 29.828125 
Q 18.359375 34.515625 30.609375 34.515625 
L 43.21875 34.515625 
L 43.21875 35.40625 
Q 43.21875 41.609375 39.140625 45 
Q 35.0625 48.390625 27.6875 48.390625 
Q 23 48.390625 18.546875 47.265625 
Q 14.109375 46.140625 10.015625 43.890625 
L 10.015625 52.203125 
Q 14.9375 54.109375 19.578125 55.046875 
Q 24.21875 56 28.609375 56 
Q 40.484375 56 46.34375 49.84375 
Q 52.203125 43.703125 52.203125 31.203125 
z
" id="DejaVuSans-97"/>
     <path d="M 18.3125 70.21875 
L 18.3125 54.6875 
L 36.8125 54.6875 
L 36.8125 47.703125 
L 18.3125 47.703125 
L 18.3125 18.015625 
Q 18.3125 11.328125 20.140625 9.421875 
Q 21.96875 7.515625 27.59375 7.515625 
L 36.8125 7.515625 
L 36.8125 0 
L 27.59375 0 
Q 17.1875 0 13.234375 3.875 
Q 9.28125 7.765625 9.28125 18.015625 
L 9.28125 47.703125 
L 2.6875 47.703125 
L 2.6875 54.6875 
L 9.28125 54.6875 
L 9.28125 70.21875 
z
" id="DejaVuSans-116"/>
     <path d="M 25 67.921875 
Q 21.09375 67.921875 18.40625 65.203125 
Q 15.71875 62.5 15.71875 58.59375 
Q 15.71875 54.734375 18.40625 52.078125 
Q 21.09375 49.421875 25 49.421875 
Q 28.90625 49.421875 31.59375 52.078125 
Q 34.28125 54.734375 34.28125 58.59375 
Q 34.28125 62.453125 31.5625 65.1875 
Q 28.859375 67.921875 25 67.921875 
z
M 25 74.21875 
Q 28.125 74.21875 31 73.015625 
Q 33.890625 71.828125 35.984375 69.578125 
Q 38.234375 67.390625 39.359375 64.59375 
Q 40.484375 61.8125 40.484375 58.59375 
Q 40.484375 52.15625 35.96875 47.6875 
Q 31.453125 43.21875 24.90625 43.21875 
Q 18.3125 43.21875 13.90625 47.609375 
Q 9.515625 52 9.515625 58.59375 
Q 9.515625 65.140625 14 69.671875 
Q 18.5 74.21875 25 74.21875 
z
" id="DejaVuSans-176"/>
    </defs>
    <g transform="translate(125.211562 80.4)scale(0.12 -0.12)">
     <use xlink:href="#DejaVuSans-97"/>
     <use x="61.279297" xlink:href="#DejaVuSans-116"/>
     <use x="100.488281" xlink:href="#DejaVuSans-49"/>
     <use x="164.111328" xlink:href="#DejaVuSans-56"/>
     <use x="227.734375" xlink:href="#DejaVuSans-48"/>
     <use x="291.357422" xlink:href="#DejaVuSans-32"/>
     <use x="323.144531" xlink:href="#DejaVuSans-176"/>
    </g>
   </g>
  </g>
  <g id="axes_2">
   <g id="patch_7">
    <path d="M 36 630 
L 259.2 630 
L 259.2 580.581818 
L 36 580.581818 
z
" style="fill:#ffffff;"/>
   </g>
   <g id="matplotlib.axis_3"/>
   <g id="matplotlib.axis_4"/>
   <g id="patch_8">
    <path d="M 36 630 
L 36 580.581818 
" style="fill:none;"/>
   </g>
   <g id="patch_9">
    <path d="M 259.2 630 
L 259.2 580.581818 
" style="fill:none;"/>
   </g>
   <g id="patch_10">
    <path d="M 36 630 
L 259.2 630 
" style="fill:none;"/>
   </g>
   <g id="patch_11">
    <path d="M 36 580.581818 
L 259.2 580.581818 
" style="fill:none;"/>
   </g>
   <g id="text_18">
    <g id="patch_12">
     <path d="M 100.5 639.810327 
L 194.7 639.810327 
Q 197.7 639.810327 197.7 636.810327 
L 197.7 593.538764 
Q 197.7 590.538764 194.7 590.538764 
L 100.5 590.538764 
Q 97.5 590.538764 97.5 593.538764 
L 97.5 636.810327 
Q 97.5 639.810327 100.5 639.810327 
z
" style="fill:#ffffff;stroke:#000000;stroke-linejoin:miter;"/>
    </g>
    <!-- $L_{chord} = 732.2~mm $  -->
    <defs>
     <path d="M 16.796875 72.90625 
L 26.703125 72.90625 
L 14.203125 8.203125 
L 49.703125 8.203125 
L 48.09375 0 
L 2.6875 0 
z
" id="DejaVuSans-Oblique-76"/>
     <path d="M 53.609375 52.59375 
L 51.8125 43.703125 
Q 48.578125 46.046875 44.9375 47.21875 
Q 41.3125 48.390625 37.40625 48.390625 
Q 33.109375 48.390625 29.21875 46.875 
Q 25.34375 45.359375 22.703125 42.578125 
Q 18.5 38.328125 16.203125 32.609375 
Q 13.921875 26.90625 13.921875 20.796875 
Q 13.921875 13.421875 17.609375 9.8125 
Q 21.296875 6.203125 28.8125 6.203125 
Q 32.515625 6.203125 36.6875 7.328125 
Q 40.875 8.453125 45.40625 10.6875 
L 43.703125 1.8125 
Q 39.796875 0.203125 35.671875 -0.609375 
Q 31.546875 -1.421875 27.203125 -1.421875 
Q 16.3125 -1.421875 10.453125 4.015625 
Q 4.59375 9.46875 4.59375 19.578125 
Q 4.59375 28.078125 7.640625 35.234375 
Q 10.6875 42.390625 16.703125 48.09375 
Q 20.796875 52 26.3125 54 
Q 31.84375 56 38.375 56 
Q 42.1875 56 45.9375 55.140625 
Q 49.703125 54.296875 53.609375 52.59375 
z
" id="DejaVuSans-Oblique-99"/>
     <path d="M 55.71875 33.015625 
L 49.3125 0 
L 40.28125 0 
L 46.6875 32.671875 
Q 47.125 34.96875 47.359375 36.71875 
Q 47.609375 38.484375 47.609375 39.5 
Q 47.609375 43.609375 45.015625 45.890625 
Q 42.4375 48.1875 37.796875 48.1875 
Q 30.5625 48.1875 25.265625 43.296875 
Q 19.96875 38.421875 18.40625 30.328125 
L 12.5 0 
L 3.515625 0 
L 18.3125 75.984375 
L 27.296875 75.984375 
L 21.484375 46.09375 
Q 24.90625 50.6875 30.21875 53.34375 
Q 35.546875 56 41.40625 56 
Q 48.640625 56 52.609375 52.09375 
Q 56.59375 48.1875 56.59375 41.109375 
Q 56.59375 39.359375 56.375 37.359375 
Q 56.15625 35.359375 55.71875 33.015625 
z
" id="DejaVuSans-Oblique-104"/>
     <path d="M 25.390625 -1.421875 
Q 15.765625 -1.421875 10.171875 4.515625 
Q 4.59375 10.453125 4.59375 20.703125 
Q 4.59375 26.65625 6.515625 32.828125 
Q 8.453125 39.015625 11.53125 43.21875 
Q 16.359375 49.75 22.3125 52.875 
Q 28.265625 56 35.796875 56 
Q 45.125 56 50.859375 50.1875 
Q 56.59375 44.390625 56.59375 35.015625 
Q 56.59375 28.515625 54.6875 22.0625 
Q 52.78125 15.625 49.703125 11.375 
Q 44.921875 4.828125 38.96875 1.703125 
Q 33.015625 -1.421875 25.390625 -1.421875 
z
M 13.921875 21 
Q 13.921875 13.578125 17.015625 9.890625 
Q 20.125 6.203125 26.421875 6.203125 
Q 35.453125 6.203125 41.375 14.078125 
Q 47.3125 21.96875 47.3125 34.078125 
Q 47.3125 41.15625 44.140625 44.765625 
Q 40.96875 48.390625 34.8125 48.390625 
Q 29.734375 48.390625 25.78125 46.015625 
Q 21.828125 43.65625 18.703125 38.8125 
Q 16.40625 35.203125 15.15625 30.5625 
Q 13.921875 25.921875 13.921875 21 
z
" id="DejaVuSans-Oblique-111"/>
     <path d="M 41.796875 8.203125 
Q 38.1875 3.46875 33.25 1.015625 
Q 28.328125 -1.421875 22.3125 -1.421875 
Q 14.109375 -1.421875 9.34375 4.171875 
Q 4.59375 9.765625 4.59375 19.484375 
Q 4.59375 27.59375 7.46875 34.9375 
Q 10.359375 42.28125 15.828125 48.09375 
Q 19.4375 51.953125 23.96875 53.96875 
Q 28.515625 56 33.5 56 
Q 38.765625 56 42.796875 53.453125 
Q 46.828125 50.921875 49.03125 46.1875 
L 54.890625 75.984375 
L 63.921875 75.984375 
L 49.125 0 
L 40.09375 0 
z
M 13.921875 21.09375 
Q 13.921875 14.015625 17.109375 10.0625 
Q 20.3125 6.109375 25.984375 6.109375 
Q 30.171875 6.109375 33.765625 8.125 
Q 37.359375 10.15625 40.09375 14.109375 
Q 42.96875 18.21875 44.625 23.578125 
Q 46.296875 28.953125 46.296875 34.1875 
Q 46.296875 40.96875 43.09375 44.765625 
Q 39.890625 48.578125 34.28125 48.578125 
Q 30.03125 48.578125 26.359375 46.578125 
Q 22.703125 44.578125 20.125 40.828125 
Q 17.28125 36.765625 15.59375 31.390625 
Q 13.921875 26.03125 13.921875 21.09375 
z
" id="DejaVuSans-Oblique-100"/>
     <path d="M 10.59375 45.40625 
L 73.1875 45.40625 
L 73.1875 37.203125 
L 10.59375 37.203125 
z
M 10.59375 25.484375 
L 73.1875 25.484375 
L 73.1875 17.1875 
L 10.59375 17.1875 
z
" id="DejaVuSans-61"/>
     <path d="M 40.578125 39.3125 
Q 47.65625 37.796875 51.625 33 
Q 55.609375 28.21875 55.609375 21.1875 
Q 55.609375 10.40625 48.1875 4.484375 
Q 40.765625 -1.421875 27.09375 -1.421875 
Q 22.515625 -1.421875 17.65625 -0.515625 
Q 12.796875 0.390625 7.625 2.203125 
L 7.625 11.71875 
Q 11.71875 9.328125 16.59375 8.109375 
Q 21.484375 6.890625 26.8125 6.890625 
Q 36.078125 6.890625 40.9375 10.546875 
Q 45.796875 14.203125 45.796875 21.1875 
Q 45.796875 27.640625 41.28125 31.265625 
Q 36.765625 34.90625 28.71875 34.90625 
L 20.21875 34.90625 
L 20.21875 43.015625 
L 29.109375 43.015625 
Q 36.375 43.015625 40.234375 45.921875 
Q 44.09375 48.828125 44.09375 54.296875 
Q 44.09375 59.90625 40.109375 62.90625 
Q 36.140625 65.921875 28.71875 65.921875 
Q 24.65625 65.921875 20.015625 65.03125 
Q 15.375 64.15625 9.8125 62.3125 
L 9.8125 71.09375 
Q 15.4375 72.65625 20.34375 73.4375 
Q 25.25 74.21875 29.59375 74.21875 
Q 40.828125 74.21875 47.359375 69.109375 
Q 53.90625 64.015625 53.90625 55.328125 
Q 53.90625 49.265625 50.4375 45.09375 
Q 46.96875 40.921875 40.578125 39.3125 
z
" id="DejaVuSans-51"/>
     <path d="M 10.6875 12.40625 
L 21 12.40625 
L 21 0 
L 10.6875 0 
z
" id="DejaVuSans-46"/>
    </defs>
    <g transform="translate(101.6 601.137202)scale(0.1 -0.1)">
     <use transform="translate(0 0.78125)" xlink:href="#DejaVuSans-Oblique-76"/>
     <use transform="translate(55.712891 -15.625)scale(0.7)" xlink:href="#DejaVuSans-Oblique-99"/>
     <use transform="translate(94.199219 -15.625)scale(0.7)" xlink:href="#DejaVuSans-Oblique-104"/>
     <use transform="translate(138.564453 -15.625)scale(0.7)" xlink:href="#DejaVuSans-Oblique-111"/>
     <use transform="translate(181.391602 -15.625)scale(0.7)" xlink:href="#DejaVuSans-Oblique-114"/>
     <use transform="translate(210.170898 -15.625)scale(0.7)" xlink:href="#DejaVuSans-Oblique-100"/>
     <use transform="translate(276.821289 0.78125)" xlink:href="#DejaVuSans-61"/>
     <use transform="translate(380.092773 0.78125)" xlink:href="#DejaVuSans-55"/>
     <use transform="translate(443.71582 0.78125)" xlink:href="#DejaVuSans-51"/>
     <use transform="translate(507.338867 0.78125)" xlink:href="#DejaVuSans-50"/>
     <use transform="translate(570.961914 0.78125)" xlink:href="#DejaVuSans-46"/>
     <use transform="translate(597.249023 0.78125)" xlink:href="#DejaVuSans-50"/>
     <use transform="translate(693.342449 0.78125)" xlink:href="#DejaVuSans-Oblique-109"/>
     <use transform="translate(790.754558 0.78125)" xlink:href="#DejaVuSans-Oblique-109"/>
     <use transform="translate(888.166667 0.78125)" xlink:href="#DejaVuSans-32"/>
    </g>
    <!-- $\Delta w_{max} = 11.6~mm $   -->
    <defs>
     <path d="M 8.5 54.6875 
L 17.390625 54.6875 
L 19.671875 10.6875 
L 40.09375 54.6875 
L 50.484375 54.6875 
L 53.515625 10.6875 
L 72.90625 54.6875 
L 81.890625 54.6875 
L 56.890625 0 
L 46.390625 0 
L 43.703125 45.3125 
L 22.796875 0 
L 12.203125 0 
z
" id="DejaVuSans-Oblique-119"/>
     <path d="M 53.71875 31.203125 
L 47.609375 0 
L 38.625 0 
L 40.28125 8.296875 
Q 36.328125 3.421875 31.265625 1 
Q 26.21875 -1.421875 20.015625 -1.421875 
Q 13.03125 -1.421875 8.5625 2.84375 
Q 4.109375 7.125 4.109375 13.8125 
Q 4.109375 23.390625 11.75 28.953125 
Q 19.390625 34.515625 32.8125 34.515625 
L 45.3125 34.515625 
L 45.796875 36.921875 
Q 45.90625 37.3125 45.953125 37.765625 
Q 46 38.234375 46 39.203125 
Q 46 43.5625 42.453125 45.96875 
Q 38.921875 48.390625 32.515625 48.390625 
Q 28.125 48.390625 23.5 47.265625 
Q 18.890625 46.140625 14.015625 43.890625 
L 15.578125 52.203125 
Q 20.65625 54.109375 25.515625 55.046875 
Q 30.375 56 34.90625 56 
Q 44.578125 56 49.625 51.796875 
Q 54.6875 47.609375 54.6875 39.59375 
Q 54.6875 37.984375 54.4375 35.8125 
Q 54.203125 33.640625 53.71875 31.203125 
z
M 44 27.484375 
L 35.015625 27.484375 
Q 23.96875 27.484375 18.671875 24.53125 
Q 13.375 21.578125 13.375 15.375 
Q 13.375 11.078125 16.078125 8.640625 
Q 18.796875 6.203125 23.578125 6.203125 
Q 30.90625 6.203125 36.375 11.453125 
Q 41.84375 16.703125 43.609375 25.484375 
z
" id="DejaVuSans-Oblique-97"/>
     <path d="M 60.015625 54.6875 
L 34.90625 27.875 
L 50.296875 0 
L 39.984375 0 
L 28.421875 21.6875 
L 8.296875 0 
L -2.59375 0 
L 24.3125 28.8125 
L 10.015625 54.6875 
L 20.3125 54.6875 
L 30.8125 34.90625 
L 49.125 54.6875 
z
" id="DejaVuSans-Oblique-120"/>
    </defs>
    <g transform="translate(100.5 612.335014)scale(0.1 -0.1)">
     <use transform="translate(0 0.78125)" xlink:href="#DejaVuSans-916"/>
     <use transform="translate(68.408203 0.78125)" xlink:href="#DejaVuSans-Oblique-119"/>
     <use transform="translate(150.195312 -15.625)scale(0.7)" xlink:href="#DejaVuSans-Oblique-109"/>
     <use transform="translate(218.383789 -15.625)scale(0.7)" xlink:href="#DejaVuSans-Oblique-97"/>
     <use transform="translate(261.279297 -15.625)scale(0.7)" xlink:href="#DejaVuSans-Oblique-120"/>
     <use transform="translate(324.921875 0.78125)" xlink:href="#DejaVuSans-61"/>
     <use transform="translate(428.193359 0.78125)" xlink:href="#DejaVuSans-49"/>
     <use transform="translate(491.816406 0.78125)" xlink:href="#DejaVuSans-49"/>
     <use transform="translate(555.439453 0.78125)" xlink:href="#DejaVuSans-46"/>
     <use transform="translate(587.226562 0.78125)" xlink:href="#DejaVuSans-54"/>
     <use transform="translate(683.319988 0.78125)" xlink:href="#DejaVuSans-Oblique-109"/>
     <use transform="translate(780.732097 0.78125)" xlink:href="#DejaVuSans-Oblique-109"/>
     <use transform="translate(878.144207 0.78125)" xlink:href="#DejaVuSans-32"/>
     <use transform="translate(909.931316 0.78125)" xlink:href="#DejaVuSans-32"/>
    </g>
    <!--  -->
    <g transform="translate(147.6 623.532827)scale(0.1 -0.1)"/>
    <!--  $U_{x} = 0.016$ -->
    <defs>
     <path d="M 15.484375 72.90625 
L 25.390625 72.90625 
L 16.796875 28.609375 
Q 16.265625 25.640625 16.046875 23.703125 
Q 15.828125 21.78125 15.828125 20.3125 
Q 15.828125 13.578125 19.578125 10.078125 
Q 23.34375 6.59375 30.609375 6.59375 
Q 40.046875 6.59375 45.28125 11.765625 
Q 50.53125 16.9375 52.78125 28.609375 
L 61.375 72.90625 
L 71.296875 72.90625 
L 62.5 27.390625 
Q 59.625 12.640625 51.5625 5.609375 
Q 43.5 -1.421875 29.5 -1.421875 
Q 18.5625 -1.421875 12.1875 4.078125 
Q 5.8125 9.578125 5.8125 19 
Q 5.8125 20.703125 6.046875 22.828125 
Q 6.296875 24.953125 6.78125 27.390625 
z
" id="DejaVuSans-Oblique-85"/>
    </defs>
    <g transform="translate(119.65 634.730639)scale(0.1 -0.1)">
     <use transform="translate(0 0.78125)" xlink:href="#DejaVuSans-32"/>
     <use transform="translate(31.787109 0.78125)" xlink:href="#DejaVuSans-Oblique-85"/>
     <use transform="translate(104.980469 -15.625)scale(0.7)" xlink:href="#DejaVuSans-Oblique-120"/>
     <use transform="translate(168.623047 0.78125)" xlink:href="#DejaVuSans-61"/>
     <use transform="translate(271.894531 0.78125)" xlink:href="#DejaVuSans-48"/>
     <use transform="translate(335.517578 0.78125)" xlink:href="#DejaVuSans-46"/>
     <use transform="translate(367.304688 0.78125)" xlink:href="#DejaVuSans-48"/>
     <use transform="translate(430.927734 0.78125)" xlink:href="#DejaVuSans-49"/>
     <use transform="translate(494.550781 0.78125)" xlink:href="#DejaVuSans-54"/>
    </g>
   </g>
  </g>
 </g>
 <defs>
  <clipPath id="p1b61454345">
   <rect height="444.763636" width="223.2" x="36" y="86.4"/>
  </clipPath>
 </defs>
</svg>
