<?xml version="1.0" encoding="utf-8" standalone="no"?>
<!DOCTYPE svg PUBLIC "-//W3C//DTD SVG 1.1//EN"
  "http://www.w3.org/Graphics/SVG/1.1/DTD/svg11.dtd">
<!-- Created with matplotlib (https://matplotlib.org/) -->
<svg height="576pt" version="1.1" viewBox="0 0 864 576" width="864pt" xmlns="http://www.w3.org/2000/svg" xmlns:xlink="http://www.w3.org/1999/xlink">
 <defs>
  <style type="text/css">
*{stroke-linecap:butt;stroke-linejoin:round;}
  </style>
 </defs>
 <g id="figure_1">
  <g id="patch_1">
   <path d="M 0 576 
L 864 576 
L 864 0 
L 0 0 
z
" style="fill:#ffffff;"/>
  </g>
  <g id="axes_1">
   <g id="patch_2">
    <path d="M 108 489.327567 
L 513.818182 489.327567 
L 513.818182 83.792433 
L 108 83.792433 
z
" style="fill:#ffffff;"/>
   </g>
   <g id="matplotlib.axis_1">
    <g id="xtick_1">
     <g id="line2d_1">
      <path clip-path="url(#p60cc239a36)" d="M 129.247445 489.327567 
L 129.247445 83.792433 
" style="fill:none;stroke:#b0b0b0;stroke-linecap:square;stroke-width:0.8;"/>
     </g>
     <g id="line2d_2">
      <defs>
       <path d="M 0 0 
L 0 3.5 
" id="m1c39c7d62d" style="stroke:#000000;stroke-width:0.8;"/>
      </defs>
      <g>
       <use style="stroke:#000000;stroke-width:0.8;" x="129.247445" xlink:href="#m1c39c7d62d" y="489.327567"/>
      </g>
     </g>
     <g id="text_1">
      <!-- −400 -->
      <defs>
       <path d="M 10.59375 35.5 
L 73.1875 35.5 
L 73.1875 27.203125 
L 10.59375 27.203125 
z
" id="DejaVuSans-8722"/>
       <path d="M 37.796875 64.3125 
L 12.890625 25.390625 
L 37.796875 25.390625 
z
M 35.203125 72.90625 
L 47.609375 72.90625 
L 47.609375 25.390625 
L 58.015625 25.390625 
L 58.015625 17.1875 
L 47.609375 17.1875 
L 47.609375 0 
L 37.796875 0 
L 37.796875 17.1875 
L 4.890625 17.1875 
L 4.890625 26.703125 
z
" id="DejaVuSans-52"/>
       <path d="M 31.78125 66.40625 
Q 24.171875 66.40625 20.328125 58.90625 
Q 16.5 51.421875 16.5 36.375 
Q 16.5 21.390625 20.328125 13.890625 
Q 24.171875 6.390625 31.78125 6.390625 
Q 39.453125 6.390625 43.28125 13.890625 
Q 47.125 21.390625 47.125 36.375 
Q 47.125 51.421875 43.28125 58.90625 
Q 39.453125 66.40625 31.78125 66.40625 
z
M 31.78125 74.21875 
Q 44.046875 74.21875 50.515625 64.515625 
Q 56.984375 54.828125 56.984375 36.375 
Q 56.984375 17.96875 50.515625 8.265625 
Q 44.046875 -1.421875 31.78125 -1.421875 
Q 19.53125 -1.421875 13.0625 8.265625 
Q 6.59375 17.96875 6.59375 36.375 
Q 6.59375 54.828125 13.0625 64.515625 
Q 19.53125 74.21875 31.78125 74.21875 
z
" id="DejaVuSans-48"/>
      </defs>
      <g transform="translate(115.513851 503.926004)scale(0.1 -0.1)">
       <use xlink:href="#DejaVuSans-8722"/>
       <use x="83.789062" xlink:href="#DejaVuSans-52"/>
       <use x="147.412109" xlink:href="#DejaVuSans-48"/>
       <use x="211.035156" xlink:href="#DejaVuSans-48"/>
      </g>
     </g>
    </g>
    <g id="xtick_2">
     <g id="line2d_3">
      <path clip-path="url(#p60cc239a36)" d="M 174.561288 489.327567 
L 174.561288 83.792433 
" style="fill:none;stroke:#b0b0b0;stroke-linecap:square;stroke-width:0.8;"/>
     </g>
     <g id="line2d_4">
      <g>
       <use style="stroke:#000000;stroke-width:0.8;" x="174.561288" xlink:href="#m1c39c7d62d" y="489.327567"/>
      </g>
     </g>
     <g id="text_2">
      <!-- −300 -->
      <defs>
       <path d="M 40.578125 39.3125 
Q 47.65625 37.796875 51.625 33 
Q 55.609375 28.21875 55.609375 21.1875 
Q 55.609375 10.40625 48.1875 4.484375 
Q 40.765625 -1.421875 27.09375 -1.421875 
Q 22.515625 -1.421875 17.65625 -0.515625 
Q 12.796875 0.390625 7.625 2.203125 
L 7.625 11.71875 
Q 11.71875 9.328125 16.59375 8.109375 
Q 21.484375 6.890625 26.8125 6.890625 
Q 36.078125 6.890625 40.9375 10.546875 
Q 45.796875 14.203125 45.796875 21.1875 
Q 45.796875 27.640625 41.28125 31.265625 
Q 36.765625 34.90625 28.71875 34.90625 
L 20.21875 34.90625 
L 20.21875 43.015625 
L 29.109375 43.015625 
Q 36.375 43.015625 40.234375 45.921875 
Q 44.09375 48.828125 44.09375 54.296875 
Q 44.09375 59.90625 40.109375 62.90625 
Q 36.140625 65.921875 28.71875 65.921875 
Q 24.65625 65.921875 20.015625 65.03125 
Q 15.375 64.15625 9.8125 62.3125 
L 9.8125 71.09375 
Q 15.4375 72.65625 20.34375 73.4375 
Q 25.25 74.21875 29.59375 74.21875 
Q 40.828125 74.21875 47.359375 69.109375 
Q 53.90625 64.015625 53.90625 55.328125 
Q 53.90625 49.265625 50.4375 45.09375 
Q 46.96875 40.921875 40.578125 39.3125 
z
" id="DejaVuSans-51"/>
      </defs>
      <g transform="translate(160.827695 503.926004)scale(0.1 -0.1)">
       <use xlink:href="#DejaVuSans-8722"/>
       <use x="83.789062" xlink:href="#DejaVuSans-51"/>
       <use x="147.412109" xlink:href="#DejaVuSans-48"/>
       <use x="211.035156" xlink:href="#DejaVuSans-48"/>
      </g>
     </g>
    </g>
    <g id="xtick_3">
     <g id="line2d_5">
      <path clip-path="url(#p60cc239a36)" d="M 219.875132 489.327567 
L 219.875132 83.792433 
" style="fill:none;stroke:#b0b0b0;stroke-linecap:square;stroke-width:0.8;"/>
     </g>
     <g id="line2d_6">
      <g>
       <use style="stroke:#000000;stroke-width:0.8;" x="219.875132" xlink:href="#m1c39c7d62d" y="489.327567"/>
      </g>
     </g>
     <g id="text_3">
      <!-- −200 -->
      <defs>
       <path d="M 19.1875 8.296875 
L 53.609375 8.296875 
L 53.609375 0 
L 7.328125 0 
L 7.328125 8.296875 
Q 12.9375 14.109375 22.625 23.890625 
Q 32.328125 33.6875 34.8125 36.53125 
Q 39.546875 41.84375 41.421875 45.53125 
Q 43.3125 49.21875 43.3125 52.78125 
Q 43.3125 58.59375 39.234375 62.25 
Q 35.15625 65.921875 28.609375 65.921875 
Q 23.96875 65.921875 18.8125 64.3125 
Q 13.671875 62.703125 7.8125 59.421875 
L 7.8125 69.390625 
Q 13.765625 71.78125 18.9375 73 
Q 24.125 74.21875 28.421875 74.21875 
Q 39.75 74.21875 46.484375 68.546875 
Q 53.21875 62.890625 53.21875 53.421875 
Q 53.21875 48.921875 51.53125 44.890625 
Q 49.859375 40.875 45.40625 35.40625 
Q 44.1875 33.984375 37.640625 27.21875 
Q 31.109375 20.453125 19.1875 8.296875 
z
" id="DejaVuSans-50"/>
      </defs>
      <g transform="translate(206.141538 503.926004)scale(0.1 -0.1)">
       <use xlink:href="#DejaVuSans-8722"/>
       <use x="83.789062" xlink:href="#DejaVuSans-50"/>
       <use x="147.412109" xlink:href="#DejaVuSans-48"/>
       <use x="211.035156" xlink:href="#DejaVuSans-48"/>
      </g>
     </g>
    </g>
    <g id="xtick_4">
     <g id="line2d_7">
      <path clip-path="url(#p60cc239a36)" d="M 265.188976 489.327567 
L 265.188976 83.792433 
" style="fill:none;stroke:#b0b0b0;stroke-linecap:square;stroke-width:0.8;"/>
     </g>
     <g id="line2d_8">
      <g>
       <use style="stroke:#000000;stroke-width:0.8;" x="265.188976" xlink:href="#m1c39c7d62d" y="489.327567"/>
      </g>
     </g>
     <g id="text_4">
      <!-- −100 -->
      <defs>
       <path d="M 12.40625 8.296875 
L 28.515625 8.296875 
L 28.515625 63.921875 
L 10.984375 60.40625 
L 10.984375 69.390625 
L 28.421875 72.90625 
L 38.28125 72.90625 
L 38.28125 8.296875 
L 54.390625 8.296875 
L 54.390625 0 
L 12.40625 0 
z
" id="DejaVuSans-49"/>
      </defs>
      <g transform="translate(251.455382 503.926004)scale(0.1 -0.1)">
       <use xlink:href="#DejaVuSans-8722"/>
       <use x="83.789062" xlink:href="#DejaVuSans-49"/>
       <use x="147.412109" xlink:href="#DejaVuSans-48"/>
       <use x="211.035156" xlink:href="#DejaVuSans-48"/>
      </g>
     </g>
    </g>
    <g id="xtick_5">
     <g id="line2d_9">
      <path clip-path="url(#p60cc239a36)" d="M 310.502819 489.327567 
L 310.502819 83.792433 
" style="fill:none;stroke:#b0b0b0;stroke-linecap:square;stroke-width:0.8;"/>
     </g>
     <g id="line2d_10">
      <g>
       <use style="stroke:#000000;stroke-width:0.8;" x="310.502819" xlink:href="#m1c39c7d62d" y="489.327567"/>
      </g>
     </g>
     <g id="text_5">
      <!-- 0 -->
      <g transform="translate(307.321569 503.926004)scale(0.1 -0.1)">
       <use xlink:href="#DejaVuSans-48"/>
      </g>
     </g>
    </g>
    <g id="xtick_6">
     <g id="line2d_11">
      <path clip-path="url(#p60cc239a36)" d="M 355.816663 489.327567 
L 355.816663 83.792433 
" style="fill:none;stroke:#b0b0b0;stroke-linecap:square;stroke-width:0.8;"/>
     </g>
     <g id="line2d_12">
      <g>
       <use style="stroke:#000000;stroke-width:0.8;" x="355.816663" xlink:href="#m1c39c7d62d" y="489.327567"/>
      </g>
     </g>
     <g id="text_6">
      <!-- 100 -->
      <g transform="translate(346.272913 503.926004)scale(0.1 -0.1)">
       <use xlink:href="#DejaVuSans-49"/>
       <use x="63.623047" xlink:href="#DejaVuSans-48"/>
       <use x="127.246094" xlink:href="#DejaVuSans-48"/>
      </g>
     </g>
    </g>
    <g id="xtick_7">
     <g id="line2d_13">
      <path clip-path="url(#p60cc239a36)" d="M 401.130506 489.327567 
L 401.130506 83.792433 
" style="fill:none;stroke:#b0b0b0;stroke-linecap:square;stroke-width:0.8;"/>
     </g>
     <g id="line2d_14">
      <g>
       <use style="stroke:#000000;stroke-width:0.8;" x="401.130506" xlink:href="#m1c39c7d62d" y="489.327567"/>
      </g>
     </g>
     <g id="text_7">
      <!-- 200 -->
      <g transform="translate(391.586756 503.926004)scale(0.1 -0.1)">
       <use xlink:href="#DejaVuSans-50"/>
       <use x="63.623047" xlink:href="#DejaVuSans-48"/>
       <use x="127.246094" xlink:href="#DejaVuSans-48"/>
      </g>
     </g>
    </g>
    <g id="xtick_8">
     <g id="line2d_15">
      <path clip-path="url(#p60cc239a36)" d="M 446.44435 489.327567 
L 446.44435 83.792433 
" style="fill:none;stroke:#b0b0b0;stroke-linecap:square;stroke-width:0.8;"/>
     </g>
     <g id="line2d_16">
      <g>
       <use style="stroke:#000000;stroke-width:0.8;" x="446.44435" xlink:href="#m1c39c7d62d" y="489.327567"/>
      </g>
     </g>
     <g id="text_8">
      <!-- 300 -->
      <g transform="translate(436.9006 503.926004)scale(0.1 -0.1)">
       <use xlink:href="#DejaVuSans-51"/>
       <use x="63.623047" xlink:href="#DejaVuSans-48"/>
       <use x="127.246094" xlink:href="#DejaVuSans-48"/>
      </g>
     </g>
    </g>
    <g id="xtick_9">
     <g id="line2d_17">
      <path clip-path="url(#p60cc239a36)" d="M 491.758193 489.327567 
L 491.758193 83.792433 
" style="fill:none;stroke:#b0b0b0;stroke-linecap:square;stroke-width:0.8;"/>
     </g>
     <g id="line2d_18">
      <g>
       <use style="stroke:#000000;stroke-width:0.8;" x="491.758193" xlink:href="#m1c39c7d62d" y="489.327567"/>
      </g>
     </g>
     <g id="text_9">
      <!-- 400 -->
      <g transform="translate(482.214443 503.926004)scale(0.1 -0.1)">
       <use xlink:href="#DejaVuSans-52"/>
       <use x="63.623047" xlink:href="#DejaVuSans-48"/>
       <use x="127.246094" xlink:href="#DejaVuSans-48"/>
      </g>
     </g>
    </g>
    <g id="text_10">
     <!-- x [mm] -->
     <defs>
      <path d="M 54.890625 54.6875 
L 35.109375 28.078125 
L 55.90625 0 
L 45.3125 0 
L 29.390625 21.484375 
L 13.484375 0 
L 2.875 0 
L 24.125 28.609375 
L 4.6875 54.6875 
L 15.28125 54.6875 
L 29.78125 35.203125 
L 44.28125 54.6875 
z
" id="DejaVuSans-120"/>
      <path id="DejaVuSans-32"/>
      <path d="M 8.59375 75.984375 
L 29.296875 75.984375 
L 29.296875 69 
L 17.578125 69 
L 17.578125 -6.203125 
L 29.296875 -6.203125 
L 29.296875 -13.1875 
L 8.59375 -13.1875 
z
" id="DejaVuSans-91"/>
      <path d="M 52 44.1875 
Q 55.375 50.25 60.0625 53.125 
Q 64.75 56 71.09375 56 
Q 79.640625 56 84.28125 50.015625 
Q 88.921875 44.046875 88.921875 33.015625 
L 88.921875 0 
L 79.890625 0 
L 79.890625 32.71875 
Q 79.890625 40.578125 77.09375 44.375 
Q 74.3125 48.1875 68.609375 48.1875 
Q 61.625 48.1875 57.5625 43.546875 
Q 53.515625 38.921875 53.515625 30.90625 
L 53.515625 0 
L 44.484375 0 
L 44.484375 32.71875 
Q 44.484375 40.625 41.703125 44.40625 
Q 38.921875 48.1875 33.109375 48.1875 
Q 26.21875 48.1875 22.15625 43.53125 
Q 18.109375 38.875 18.109375 30.90625 
L 18.109375 0 
L 9.078125 0 
L 9.078125 54.6875 
L 18.109375 54.6875 
L 18.109375 46.1875 
Q 21.1875 51.21875 25.484375 53.609375 
Q 29.78125 56 35.6875 56 
Q 41.65625 56 45.828125 52.96875 
Q 50 49.953125 52 44.1875 
z
" id="DejaVuSans-109"/>
      <path d="M 30.421875 75.984375 
L 30.421875 -13.1875 
L 9.71875 -13.1875 
L 9.71875 -6.203125 
L 21.390625 -6.203125 
L 21.390625 69 
L 9.71875 69 
L 9.71875 75.984375 
z
" id="DejaVuSans-93"/>
     </defs>
     <g transform="translate(292.718466 517.604129)scale(0.1 -0.1)">
      <use xlink:href="#DejaVuSans-120"/>
      <use x="59.179688" xlink:href="#DejaVuSans-32"/>
      <use x="90.966797" xlink:href="#DejaVuSans-91"/>
      <use x="129.980469" xlink:href="#DejaVuSans-109"/>
      <use x="227.392578" xlink:href="#DejaVuSans-109"/>
      <use x="324.804688" xlink:href="#DejaVuSans-93"/>
     </g>
    </g>
   </g>
   <g id="matplotlib.axis_2">
    <g id="ytick_1">
     <g id="line2d_19">
      <path clip-path="url(#p60cc239a36)" d="M 108 467.802886 
L 513.818182 467.802886 
" style="fill:none;stroke:#b0b0b0;stroke-linecap:square;stroke-width:0.8;"/>
     </g>
     <g id="line2d_20">
      <defs>
       <path d="M 0 0 
L -3.5 0 
" id="mcd2a6f0712" style="stroke:#000000;stroke-width:0.8;"/>
      </defs>
      <g>
       <use style="stroke:#000000;stroke-width:0.8;" x="108" xlink:href="#mcd2a6f0712" y="467.802886"/>
      </g>
     </g>
     <g id="text_11">
      <!-- −400 -->
      <g transform="translate(73.532813 471.602105)scale(0.1 -0.1)">
       <use xlink:href="#DejaVuSans-8722"/>
       <use x="83.789062" xlink:href="#DejaVuSans-52"/>
       <use x="147.412109" xlink:href="#DejaVuSans-48"/>
       <use x="211.035156" xlink:href="#DejaVuSans-48"/>
      </g>
     </g>
    </g>
    <g id="ytick_2">
     <g id="line2d_21">
      <path clip-path="url(#p60cc239a36)" d="M 108 422.489043 
L 513.818182 422.489043 
" style="fill:none;stroke:#b0b0b0;stroke-linecap:square;stroke-width:0.8;"/>
     </g>
     <g id="line2d_22">
      <g>
       <use style="stroke:#000000;stroke-width:0.8;" x="108" xlink:href="#mcd2a6f0712" y="422.489043"/>
      </g>
     </g>
     <g id="text_12">
      <!-- −300 -->
      <g transform="translate(73.532813 426.288261)scale(0.1 -0.1)">
       <use xlink:href="#DejaVuSans-8722"/>
       <use x="83.789062" xlink:href="#DejaVuSans-51"/>
       <use x="147.412109" xlink:href="#DejaVuSans-48"/>
       <use x="211.035156" xlink:href="#DejaVuSans-48"/>
      </g>
     </g>
    </g>
    <g id="ytick_3">
     <g id="line2d_23">
      <path clip-path="url(#p60cc239a36)" d="M 108 377.175199 
L 513.818182 377.175199 
" style="fill:none;stroke:#b0b0b0;stroke-linecap:square;stroke-width:0.8;"/>
     </g>
     <g id="line2d_24">
      <g>
       <use style="stroke:#000000;stroke-width:0.8;" x="108" xlink:href="#mcd2a6f0712" y="377.175199"/>
      </g>
     </g>
     <g id="text_13">
      <!-- −200 -->
      <g transform="translate(73.532813 380.974418)scale(0.1 -0.1)">
       <use xlink:href="#DejaVuSans-8722"/>
       <use x="83.789062" xlink:href="#DejaVuSans-50"/>
       <use x="147.412109" xlink:href="#DejaVuSans-48"/>
       <use x="211.035156" xlink:href="#DejaVuSans-48"/>
      </g>
     </g>
    </g>
    <g id="ytick_4">
     <g id="line2d_25">
      <path clip-path="url(#p60cc239a36)" d="M 108 331.861355 
L 513.818182 331.861355 
" style="fill:none;stroke:#b0b0b0;stroke-linecap:square;stroke-width:0.8;"/>
     </g>
     <g id="line2d_26">
      <g>
       <use style="stroke:#000000;stroke-width:0.8;" x="108" xlink:href="#mcd2a6f0712" y="331.861355"/>
      </g>
     </g>
     <g id="text_14">
      <!-- −100 -->
      <g transform="translate(73.532813 335.660574)scale(0.1 -0.1)">
       <use xlink:href="#DejaVuSans-8722"/>
       <use x="83.789062" xlink:href="#DejaVuSans-49"/>
       <use x="147.412109" xlink:href="#DejaVuSans-48"/>
       <use x="211.035156" xlink:href="#DejaVuSans-48"/>
      </g>
     </g>
    </g>
    <g id="ytick_5">
     <g id="line2d_27">
      <path clip-path="url(#p60cc239a36)" d="M 108 286.547512 
L 513.818182 286.547512 
" style="fill:none;stroke:#b0b0b0;stroke-linecap:square;stroke-width:0.8;"/>
     </g>
     <g id="line2d_28">
      <g>
       <use style="stroke:#000000;stroke-width:0.8;" x="108" xlink:href="#mcd2a6f0712" y="286.547512"/>
      </g>
     </g>
     <g id="text_15">
      <!-- 0 -->
      <g transform="translate(94.6375 290.346731)scale(0.1 -0.1)">
       <use xlink:href="#DejaVuSans-48"/>
      </g>
     </g>
    </g>
    <g id="ytick_6">
     <g id="line2d_29">
      <path clip-path="url(#p60cc239a36)" d="M 108 241.233668 
L 513.818182 241.233668 
" style="fill:none;stroke:#b0b0b0;stroke-linecap:square;stroke-width:0.8;"/>
     </g>
     <g id="line2d_30">
      <g>
       <use style="stroke:#000000;stroke-width:0.8;" x="108" xlink:href="#mcd2a6f0712" y="241.233668"/>
      </g>
     </g>
     <g id="text_16">
      <!-- 100 -->
      <g transform="translate(81.9125 245.032887)scale(0.1 -0.1)">
       <use xlink:href="#DejaVuSans-49"/>
       <use x="63.623047" xlink:href="#DejaVuSans-48"/>
       <use x="127.246094" xlink:href="#DejaVuSans-48"/>
      </g>
     </g>
    </g>
    <g id="ytick_7">
     <g id="line2d_31">
      <path clip-path="url(#p60cc239a36)" d="M 108 195.919825 
L 513.818182 195.919825 
" style="fill:none;stroke:#b0b0b0;stroke-linecap:square;stroke-width:0.8;"/>
     </g>
     <g id="line2d_32">
      <g>
       <use style="stroke:#000000;stroke-width:0.8;" x="108" xlink:href="#mcd2a6f0712" y="195.919825"/>
      </g>
     </g>
     <g id="text_17">
      <!-- 200 -->
      <g transform="translate(81.9125 199.719044)scale(0.1 -0.1)">
       <use xlink:href="#DejaVuSans-50"/>
       <use x="63.623047" xlink:href="#DejaVuSans-48"/>
       <use x="127.246094" xlink:href="#DejaVuSans-48"/>
      </g>
     </g>
    </g>
    <g id="ytick_8">
     <g id="line2d_33">
      <path clip-path="url(#p60cc239a36)" d="M 108 150.605981 
L 513.818182 150.605981 
" style="fill:none;stroke:#b0b0b0;stroke-linecap:square;stroke-width:0.8;"/>
     </g>
     <g id="line2d_34">
      <g>
       <use style="stroke:#000000;stroke-width:0.8;" x="108" xlink:href="#mcd2a6f0712" y="150.605981"/>
      </g>
     </g>
     <g id="text_18">
      <!-- 300 -->
      <g transform="translate(81.9125 154.4052)scale(0.1 -0.1)">
       <use xlink:href="#DejaVuSans-51"/>
       <use x="63.623047" xlink:href="#DejaVuSans-48"/>
       <use x="127.246094" xlink:href="#DejaVuSans-48"/>
      </g>
     </g>
    </g>
    <g id="ytick_9">
     <g id="line2d_35">
      <path clip-path="url(#p60cc239a36)" d="M 108 105.292138 
L 513.818182 105.292138 
" style="fill:none;stroke:#b0b0b0;stroke-linecap:square;stroke-width:0.8;"/>
     </g>
     <g id="line2d_36">
      <g>
       <use style="stroke:#000000;stroke-width:0.8;" x="108" xlink:href="#mcd2a6f0712" y="105.292138"/>
      </g>
     </g>
     <g id="text_19">
      <!-- 400 -->
      <g transform="translate(81.9125 109.091357)scale(0.1 -0.1)">
       <use xlink:href="#DejaVuSans-52"/>
       <use x="63.623047" xlink:href="#DejaVuSans-48"/>
       <use x="127.246094" xlink:href="#DejaVuSans-48"/>
      </g>
     </g>
    </g>
    <g id="text_20">
     <!-- x [mm] -->
     <g transform="translate(67.453125 304.750625)rotate(-90)scale(0.1 -0.1)">
      <use xlink:href="#DejaVuSans-120"/>
      <use x="59.179688" xlink:href="#DejaVuSans-32"/>
      <use x="90.966797" xlink:href="#DejaVuSans-91"/>
      <use x="129.980469" xlink:href="#DejaVuSans-109"/>
      <use x="227.392578" xlink:href="#DejaVuSans-109"/>
      <use x="324.804688" xlink:href="#DejaVuSans-93"/>
     </g>
    </g>
   </g>
   <g id="line2d_37">
    <path clip-path="url(#p60cc239a36)" d="M 491.758193 286.547512 
L 490.270089 263.369089 
L 485.830211 240.571255 
L 478.511463 218.528351 
L 468.434017 197.602318 
L 455.763345 178.136764 
L 440.707499 160.451311 
L 423.513696 144.836354 
L 404.464258 131.54829 
L 383.871975 120.80531 
L 362.074973 112.783812 
L 339.431158 107.615508 
L 316.31234 105.385264 
L 293.09813 106.129698 
L 270.169704 109.836588 
L 247.903547 116.445067 
L 226.665268 125.846623 
L 206.8036 137.886883 
L 188.64467 152.368147 
L 172.486647 169.052632 
L 158.594846 187.666379 
L 147.19737 207.903752 
L 138.481365 229.432454 
L 132.589947 251.898983 
L 129.619854 274.93444 
L 129.619854 298.160584 
L 132.589947 321.196041 
L 138.481365 343.66257 
L 147.19737 365.191271 
L 158.594846 385.428645 
L 172.486647 404.042392 
L 188.64467 420.726877 
L 206.8036 435.208141 
L 226.665268 447.248401 
L 247.903547 456.649957 
L 270.169704 463.258435 
L 293.09813 466.965325 
L 316.31234 467.70976 
L 339.431158 465.479515 
L 362.074973 460.311212 
L 383.871975 452.289714 
L 404.464258 441.546733 
L 423.513696 428.25867 
L 440.707499 412.643713 
L 455.763345 394.95826 
L 468.434017 375.492705 
L 478.511463 354.566673 
L 485.830211 332.523768 
L 490.270089 309.725935 
L 491.758193 286.547512 
" style="fill:none;stroke:#000000;stroke-dasharray:5.55,2.4;stroke-dashoffset:0;stroke-width:1.5;"/>
   </g>
   <g id="line2d_38">
    <path clip-path="url(#p60cc239a36)" d="M 309.885592 470.889889 
L 306.905718 470.847899 
L 301.367367 470.555776 
L 293.574352 469.970019 
L 289.359417 469.486639 
L 280.427148 468.161577 
L 275.551495 467.234721 
L 271.819163 466.432588 
L 266.433378 465.209188 
L 257.41139 462.869298 
L 255.586534 462.64467 
L 255.020464 462.405281 
L 253.911578 461.716387 
L 253.473045 461.392534 
L 253.337034 461.44115 
L 253.074792 461.174962 
L 253.010579 461.211332 
L 252.520981 460.898847 
L 252.19809 460.796032 
L 252.098629 460.667831 
L 251.998467 460.701283 
L 251.983993 460.649353 
L 251.736876 460.50934 
L 251.72585 460.540639 
L 249.563942 459.647739 
L 245.985829 458.332591 
L 241.351359 456.454001 
L 234.973791 453.566954 
L 225.699624 448.85962 
L 220.770734 446.108808 
L 220.561303 446.15105 
L 220.623218 446.040121 
L 219.22726 445.225483 
L 213.840008 441.833449 
L 206.531834 437.072868 
L 204.243807 435.611236 
L 202.917001 434.940721 
L 202.261285 434.419968 
L 200.973988 433.186304 
L 196.767377 430.279732 
L 195.751946 429.633883 
L 189.072276 424.187738 
L 187.5185 422.772459 
L 180.040195 415.782492 
L 176.080474 411.792022 
L 171.947909 407.314214 
L 162.582172 396.752912 
L 162.292634 396.539538 
L 161.305607 393.915881 
L 160.859761 393.305732 
L 160.617695 393.106088 
L 160.437014 393.212445 
L 160.420629 392.518922 
L 159.097046 390.348071 
L 158.136277 388.924821 
L 157.9973 388.906258 
L 157.779078 388.351626 
L 155.528071 385.271187 
L 155.243245 385.049645 
L 155.249738 384.939157 
L 155.124777 384.841039 
L 155.135591 384.751333 
L 154.639495 384.09105 
L 154.513968 383.799992 
L 154.369101 383.577605 
L 153.874759 382.703414 
L 153.840149 382.5892 
L 153.69703 382.379399 
L 153.762664 382.294503 
L 153.681338 382.241105 
L 153.683702 382.155238 
L 153.586207 382.149375 
L 153.519341 381.906277 
L 153.472518 381.919362 
L 153.391443 381.804123 
L 153.414532 381.60022 
L 153.345846 381.617497 
L 153.08146 381.118378 
L 151.33194 378.091316 
L 150.670944 377.240591 
L 150.387669 376.4568 
L 149.925223 375.974565 
L 149.963994 375.943498 
L 149.618319 375.144876 
L 149.445929 374.937129 
L 149.416889 374.801483 
L 148.559684 373.930247 
L 148.691665 373.849332 
L 148.592273 373.867999 
L 148.528165 373.614961 
L 148.460551 373.635256 
L 148.374163 373.681427 
L 148.380215 373.621269 
L 148.382461 373.499637 
L 148.49118 373.407292 
L 148.296067 373.475951 
L 148.39528 373.390596 
L 148.211562 373.212043 
L 148.140745 372.945159 
L 147.658628 372.328089 
L 147.189906 371.160457 
L 146.540895 370.281422 
L 146.673571 370.001139 
L 146.571271 369.967666 
L 146.557911 369.703873 
L 146.347077 369.478865 
L 146.225983 369.275383 
L 146.197397 369.284918 
L 145.980285 368.933206 
L 145.833945 368.790707 
L 145.381865 368.03221 
L 145.328654 367.623999 
L 145.25442 367.629593 
L 145.143563 367.069433 
L 145.069509 366.753979 
L 144.770026 366.581064 
L 144.475357 366.384402 
L 144.255135 366.154311 
L 144.471304 365.967512 
L 144.325442 366.013029 
L 144.542462 365.685173 
L 140.291278 360.458775 
L 140.386138 360.406811 
L 139.931231 360.180428 
L 140.369649 359.947985 
L 139.833422 359.85445 
L 139.405918 358.28282 
L 139.528789 358.217911 
L 139.487105 357.925863 
L 139.014612 358.066265 
L 138.005851 357.462326 
L 139.212324 355.838774 
L 139.014311 355.720177 
L 139.291177 355.582229 
L 139.193517 355.358575 
L 138.99095 355.259148 
L 138.477497 353.838984 
L 137.225531 351.588094 
L 137.366999 351.462581 
L 137.253186 351.213072 
L 137.056762 350.674291 
L 136.825167 349.027065 
L 135.310996 343.491718 
L 134.306197 340.003454 
L 133.982466 339.353314 
L 133.734864 338.147632 
L 133.779146 337.810582 
L 133.595184 337.856679 
L 133.58035 337.663802 
L 133.748443 337.485554 
L 133.509107 337.396147 
L 133.699609 337.253283 
L 133.364086 337.065817 
L 131.599577 330.340581 
L 129.218175 318.58152 
L 128.50778 313.807009 
L 127.896914 309.467738 
L 127.480135 305.337675 
L 127.38602 304.304368 
L 127.367424 304.303824 
L 126.982045 300.125368 
L 126.536329 292.350258 
L 126.508131 283.318778 
L 126.708728 276.533966 
L 127.386298 267.843654 
L 128.175514 261.307961 
L 129.155198 254.935352 
L 130.845124 246.517981 
L 133.276407 236.957911 
L 135.841201 228.552246 
L 138.190371 222.195735 
L 140.808959 215.522833 
L 143.86398 208.564461 
L 144.084749 208.057463 
L 144.69674 207.107122 
L 145.035535 205.862332 
L 146.869608 201.423064 
L 150.815305 193.752904 
L 151.415415 193.007673 
L 151.657406 191.884851 
L 151.690445 191.860291 
L 152.38763 190.564281 
L 152.427019 190.54116 
L 153.944413 187.851968 
L 155.835698 184.923432 
L 157.792761 181.923569 
L 159.494432 179.255299 
L 165.824786 168.85219 
L 165.859542 168.75879 
L 167.120645 166.852698 
L 168.288307 165.403003 
L 168.416196 165.259203 
L 182.907462 150.614243 
L 186.51632 147.488042 
L 188.583538 145.923772 
L 188.841524 145.84567 
L 189.018709 145.689039 
L 189.400126 145.477966 
L 189.415076 145.394297 
L 189.545042 145.449722 
L 189.545629 145.382974 
L 189.576909 145.21847 
L 189.703792 145.217882 
L 189.683364 145.158032 
L 190.091483 144.609038 
L 190.384334 144.330844 
L 190.62183 144.32528 
L 190.571878 144.221655 
L 190.860468 144.185425 
L 191.095955 144.270252 
L 191.175809 144.148356 
L 191.676644 144.026073 
L 191.851692 144.094306 
L 191.914901 143.952161 
L 192.094384 143.995219 
L 192.289396 143.839458 
L 192.441691 143.834524 
L 192.662571 143.780821 
L 193.32944 143.465151 
L 194.442721 142.752174 
L 205.394597 134.594937 
L 211.739114 130.413496 
L 222.866617 124.000444 
L 230.66397 120.027488 
L 236.461887 117.448112 
L 242.274142 115.105587 
L 251.322382 111.935964 
L 256.053822 110.481408 
L 263.186213 108.493783 
L 270.265697 106.810346 
L 277.170447 105.437424 
L 280.910663 104.792959 
L 284.906384 104.125326 
L 296.114226 102.829073 
L 301.658041 102.434559 
L 306.366482 102.269407 
L 311.158348 102.239461 
L 317.62868 102.362779 
L 324.645286 102.807231 
L 331.225247 103.494406 
L 338.457655 104.499546 
L 347.440651 106.153393 
L 359.352357 109.120406 
L 366.044578 111.090281 
L 374.469975 114.059089 
L 378.223844 115.538953 
L 382.557946 117.369097 
L 389.80484 120.737503 
L 399.591995 125.68719 
L 399.82328 125.84093 
L 400.169923 125.909332 
L 400.364677 125.829994 
L 400.564861 125.936516 
L 400.94848 125.885295 
L 400.942101 125.914624 
L 401.675517 126.287785 
L 406.484301 129.402202 
L 408.78364 130.699518 
L 413.183405 133.500006 
L 417.141356 136.078729 
L 419.579168 137.567638 
L 429.458346 144.325497 
L 431.178799 145.425221 
L 434.529774 147.673336 
L 437.701608 150.402283 
L 438.723998 151.541433 
L 439.782763 152.37252 
L 443.121465 154.923921 
L 444.221434 156.03825 
L 446.147017 158.580009 
L 448.147078 161.371087 
L 448.978251 162.04011 
L 450.213774 163.536129 
L 452.529405 166.740918 
L 452.407346 167.035199 
L 452.63653 166.987423 
L 452.519013 167.26532 
L 452.650884 167.24656 
L 452.499101 167.504547 
L 452.731221 167.506216 
L 452.627717 167.610578 
L 452.52273 167.868298 
L 452.649029 167.819252 
L 452.666179 168.234299 
L 452.984443 168.869526 
L 453.562274 168.529588 
L 453.310374 168.970002 
L 453.516022 169.21052 
L 453.557134 169.458475 
L 454.324381 170.494973 
L 454.536858 170.664396 
L 454.749202 170.537168 
L 454.978832 171.518162 
L 454.892545 171.719047 
L 455.000753 171.774968 
L 454.73186 172.250361 
L 454.788304 172.247372 
L 455.025633 172.791796 
L 460.898118 180.952389 
L 466.281013 188.892634 
L 469.845394 194.545596 
L 472.307742 198.862207 
L 475.794163 205.617961 
L 477.818225 209.840485 
L 480.596723 216.219672 
L 483.047394 222.348948 
L 485.520307 228.855338 
L 490.108414 242.413271 
L 491.235877 245.930191 
L 492.66678 248.847014 
L 493.233223 250.55148 
L 493.554492 252.314551 
L 493.621094 253.46466 
L 493.448799 255.699483 
L 493.28684 257.593571 
L 493.366966 259.223408 
L 494.171116 266.296857 
L 494.990045 276.112784 
L 495.318808 282.664718 
L 495.365964 287.902193 
L 495.065811 297.373385 
L 494.728128 302.477189 
L 494.004916 310.120503 
L 493.289005 315.405844 
L 491.978438 322.41263 
L 490.407947 329.366085 
L 488.907283 335.132117 
L 487.953439 338.6259 
L 485.919627 345.0485 
L 484.595795 348.814362 
L 482.313234 354.736482 
L 478.402075 363.650148 
L 475.980552 368.499774 
L 472.512661 374.873345 
L 470.319435 378.526111 
L 470.013965 379.060975 
L 468.474021 381.419049 
L 459.673392 396.915922 
L 459.140712 397.460256 
L 459.022186 397.609209 
L 458.337447 398.443596 
L 458.280986 398.685898 
L 454.884334 403.168978 
L 453.857586 404.477556 
L 451.341986 407.791343 
L 449.753379 410.150815 
L 448.341329 411.924515 
L 445.387748 415.308424 
L 441.928889 418.766676 
L 441.643573 419.017717 
L 441.453144 419.24365 
L 441.385257 419.284031 
L 441.232411 419.441055 
L 440.145381 420.127666 
L 438.485635 421.99059 
L 435.056939 425.089634 
L 433.685664 425.610103 
L 433.61315 425.810536 
L 433.392558 425.818766 
L 433.001146 426.293153 
L 431.397193 428.123324 
L 430.536043 429.092924 
L 427.991915 429.442287 
L 427.357823 429.855576 
L 426.518312 430.065949 
L 426.302976 430.285969 
L 425.820306 430.415725 
L 425.48018 430.730955 
L 414.678216 438.535133 
L 412.615093 439.972097 
L 411.819503 440.503256 
L 408.1745 442.961807 
L 405.638546 445.175215 
L 400.798104 448.269789 
L 384.67445 455.645279 
L 381.88338 456.820762 
L 380.666275 457.25727 
L 377.916224 458.30275 
L 372.242866 460.430638 
L 371.662058 460.619566 
L 370.408006 461.057728 
L 370.368124 461.096971 
L 365.876885 462.460427 
L 364.561805 462.887331 
L 361.372895 463.802694 
L 356.547308 465.152064 
L 354.972361 465.543189 
L 349.965914 466.735143 
L 341.543392 468.35616 
L 334.974693 469.301976 
L 323.178722 470.478646 
L 315.309216 470.830846 
L 309.885592 470.889889 
L 309.885592 470.889889 
" style="fill:none;stroke:#000000;stroke-linecap:square;stroke-width:1.5;"/>
   </g>
   <g id="line2d_39">
    <path clip-path="url(#p60cc239a36)" d="M 212.189322 440.786175 
L 394.469634 123.167251 
" style="fill:none;stroke:#000000;stroke-linecap:square;"/>
   </g>
   <g id="line2d_40">
    <path clip-path="url(#p60cc239a36)" d="M 167.614705 166.161327 
L 443.603351 417.221372 
" style="fill:none;stroke:#000000;stroke-linecap:square;"/>
   </g>
   <g id="patch_3">
    <path d="M 108 489.327567 
L 108 83.792433 
" style="fill:none;stroke:#000000;stroke-linecap:square;stroke-linejoin:miter;stroke-width:0.8;"/>
   </g>
   <g id="patch_4">
    <path d="M 513.818182 489.327567 
L 513.818182 83.792433 
" style="fill:none;stroke:#000000;stroke-linecap:square;stroke-linejoin:miter;stroke-width:0.8;"/>
   </g>
   <g id="patch_5">
    <path d="M 108 489.327567 
L 513.818182 489.327567 
" style="fill:none;stroke:#000000;stroke-linecap:square;stroke-linejoin:miter;stroke-width:0.8;"/>
   </g>
   <g id="patch_6">
    <path d="M 108 83.792433 
L 513.818182 83.792433 
" style="fill:none;stroke:#000000;stroke-linecap:square;stroke-linejoin:miter;stroke-width:0.8;"/>
   </g>
   <g id="text_21">
    <g id="patch_7">
     <path d="M 238.761299 249.318403 
L 262.061299 249.318403 
Q 265.061299 249.318403 265.061299 246.318403 
L 265.061299 236.640278 
Q 265.061299 233.640278 262.061299 233.640278 
L 238.761299 233.640278 
Q 235.761299 233.640278 235.761299 236.640278 
L 235.761299 246.318403 
Q 235.761299 249.318403 238.761299 249.318403 
z
" style="fill:#ffffff;stroke:#000000;stroke-linejoin:miter;"/>
    </g>
    <!-- $D_{max}$ -->
    <defs>
     <path d="M 16.890625 72.90625 
L 38.09375 72.90625 
Q 54.984375 72.90625 63.59375 65.75 
Q 72.21875 58.59375 72.21875 44.484375 
Q 72.21875 35.15625 68.9375 26.53125 
Q 65.671875 17.921875 59.90625 12.015625 
Q 54.109375 5.953125 45.171875 2.96875 
Q 36.234375 0 24.03125 0 
L 2.6875 0 
z
M 25.203125 64.796875 
L 14.203125 8.109375 
L 27.09375 8.109375 
Q 43.65625 8.109375 52.734375 17.625 
Q 61.8125 27.15625 61.8125 44.484375 
Q 61.8125 54.984375 55.953125 59.890625 
Q 50.09375 64.796875 37.59375 64.796875 
z
" id="DejaVuSans-Oblique-68"/>
     <path d="M 89.796875 33.015625 
L 83.40625 0 
L 74.421875 0 
L 80.71875 32.71875 
Q 81.109375 34.8125 81.296875 36.328125 
Q 81.5 37.84375 81.5 38.921875 
Q 81.5 43.3125 79.046875 45.75 
Q 76.609375 48.1875 72.21875 48.1875 
Q 65.671875 48.1875 60.546875 43.28125 
Q 55.421875 38.375 53.90625 30.515625 
L 47.90625 0 
L 38.921875 0 
L 45.3125 32.71875 
Q 45.703125 34.515625 45.890625 36.046875 
Q 46.09375 37.59375 46.09375 38.8125 
Q 46.09375 43.265625 43.65625 45.71875 
Q 41.21875 48.1875 36.921875 48.1875 
Q 30.28125 48.1875 25.140625 43.28125 
Q 20.015625 38.375 18.5 30.515625 
L 12.5 0 
L 3.515625 0 
L 14.203125 54.6875 
L 23.1875 54.6875 
L 21.484375 46.1875 
Q 25.140625 50.984375 30.046875 53.484375 
Q 34.96875 56 40.578125 56 
Q 46.53125 56 50.359375 52.875 
Q 54.203125 49.75 54.984375 44.1875 
Q 59.078125 49.953125 64.46875 52.96875 
Q 69.875 56 75.875 56 
Q 82.90625 56 86.734375 51.953125 
Q 90.578125 47.90625 90.578125 40.484375 
Q 90.578125 38.875 90.375 36.9375 
Q 90.1875 35.015625 89.796875 33.015625 
z
" id="DejaVuSans-Oblique-109"/>
     <path d="M 53.71875 31.203125 
L 47.609375 0 
L 38.625 0 
L 40.28125 8.296875 
Q 36.328125 3.421875 31.265625 1 
Q 26.21875 -1.421875 20.015625 -1.421875 
Q 13.03125 -1.421875 8.5625 2.84375 
Q 4.109375 7.125 4.109375 13.8125 
Q 4.109375 23.390625 11.75 28.953125 
Q 19.390625 34.515625 32.8125 34.515625 
L 45.3125 34.515625 
L 45.796875 36.921875 
Q 45.90625 37.3125 45.953125 37.765625 
Q 46 38.234375 46 39.203125 
Q 46 43.5625 42.453125 45.96875 
Q 38.921875 48.390625 32.515625 48.390625 
Q 28.125 48.390625 23.5 47.265625 
Q 18.890625 46.140625 14.015625 43.890625 
L 15.578125 52.203125 
Q 20.65625 54.109375 25.515625 55.046875 
Q 30.375 56 34.90625 56 
Q 44.578125 56 49.625 51.796875 
Q 54.6875 47.609375 54.6875 39.59375 
Q 54.6875 37.984375 54.4375 35.8125 
Q 54.203125 33.640625 53.71875 31.203125 
z
M 44 27.484375 
L 35.015625 27.484375 
Q 23.96875 27.484375 18.671875 24.53125 
Q 13.375 21.578125 13.375 15.375 
Q 13.375 11.078125 16.078125 8.640625 
Q 18.796875 6.203125 23.578125 6.203125 
Q 30.90625 6.203125 36.375 11.453125 
Q 41.84375 16.703125 43.609375 25.484375 
z
" id="DejaVuSans-Oblique-97"/>
     <path d="M 60.015625 54.6875 
L 34.90625 27.875 
L 50.296875 0 
L 39.984375 0 
L 28.421875 21.6875 
L 8.296875 0 
L -2.59375 0 
L 24.3125 28.8125 
L 10.015625 54.6875 
L 20.3125 54.6875 
L 30.8125 34.90625 
L 49.125 54.6875 
z
" id="DejaVuSans-Oblique-120"/>
    </defs>
    <g transform="translate(238.761299 244.238716)scale(0.1 -0.1)">
     <use transform="translate(0 0.09375)" xlink:href="#DejaVuSans-Oblique-68"/>
     <use transform="translate(77.001953 -16.3125)scale(0.7)" xlink:href="#DejaVuSans-Oblique-109"/>
     <use transform="translate(145.19043 -16.3125)scale(0.7)" xlink:href="#DejaVuSans-Oblique-97"/>
     <use transform="translate(188.085938 -16.3125)scale(0.7)" xlink:href="#DejaVuSans-Oblique-120"/>
    </g>
   </g>
   <g id="text_22">
    <g id="patch_8">
     <path d="M 256.273415 353.33956 
L 277.473415 353.33956 
Q 280.473415 353.33956 280.473415 350.33956 
L 280.473415 340.661435 
Q 280.473415 337.661435 277.473415 337.661435 
L 256.273415 337.661435 
Q 253.273415 337.661435 253.273415 340.661435 
L 253.273415 350.33956 
Q 253.273415 353.33956 256.273415 353.33956 
z
" style="fill:#ffffff;stroke:#000000;stroke-linejoin:miter;"/>
    </g>
    <!-- $D_{min}$ -->
    <defs>
     <path d="M 18.3125 75.984375 
L 27.296875 75.984375 
L 25.09375 64.59375 
L 16.109375 64.59375 
z
M 14.203125 54.6875 
L 23.1875 54.6875 
L 12.5 0 
L 3.515625 0 
z
" id="DejaVuSans-Oblique-105"/>
     <path d="M 55.71875 33.015625 
L 49.3125 0 
L 40.28125 0 
L 46.6875 32.671875 
Q 47.125 34.96875 47.359375 36.71875 
Q 47.609375 38.484375 47.609375 39.5 
Q 47.609375 43.609375 45.015625 45.890625 
Q 42.4375 48.1875 37.796875 48.1875 
Q 30.5625 48.1875 25.34375 43.375 
Q 20.125 38.578125 18.5 30.328125 
L 12.5 0 
L 3.515625 0 
L 14.109375 54.6875 
L 23.09375 54.6875 
L 21.296875 46.09375 
Q 25.046875 50.828125 30.3125 53.40625 
Q 35.59375 56 41.40625 56 
Q 48.640625 56 52.609375 52.09375 
Q 56.59375 48.1875 56.59375 41.109375 
Q 56.59375 39.359375 56.375 37.359375 
Q 56.15625 35.359375 55.71875 33.015625 
z
" id="DejaVuSans-Oblique-110"/>
    </defs>
    <g transform="translate(256.273415 348.259873)scale(0.1 -0.1)">
     <use transform="translate(0 0.09375)" xlink:href="#DejaVuSans-Oblique-68"/>
     <use transform="translate(77.001953 -16.3125)scale(0.7)" xlink:href="#DejaVuSans-Oblique-109"/>
     <use transform="translate(145.19043 -16.3125)scale(0.7)" xlink:href="#DejaVuSans-Oblique-105"/>
     <use transform="translate(164.638672 -16.3125)scale(0.7)" xlink:href="#DejaVuSans-Oblique-110"/>
    </g>
   </g>
   <g id="text_23">
    <!-- Cross Section at h = 200mm -->
    <defs>
     <path d="M 64.40625 67.28125 
L 64.40625 56.890625 
Q 59.421875 61.53125 53.78125 63.8125 
Q 48.140625 66.109375 41.796875 66.109375 
Q 29.296875 66.109375 22.65625 58.46875 
Q 16.015625 50.828125 16.015625 36.375 
Q 16.015625 21.96875 22.65625 14.328125 
Q 29.296875 6.6875 41.796875 6.6875 
Q 48.140625 6.6875 53.78125 8.984375 
Q 59.421875 11.28125 64.40625 15.921875 
L 64.40625 5.609375 
Q 59.234375 2.09375 53.4375 0.328125 
Q 47.65625 -1.421875 41.21875 -1.421875 
Q 24.65625 -1.421875 15.125 8.703125 
Q 5.609375 18.84375 5.609375 36.375 
Q 5.609375 53.953125 15.125 64.078125 
Q 24.65625 74.21875 41.21875 74.21875 
Q 47.75 74.21875 53.53125 72.484375 
Q 59.328125 70.75 64.40625 67.28125 
z
" id="DejaVuSans-67"/>
     <path d="M 41.109375 46.296875 
Q 39.59375 47.171875 37.8125 47.578125 
Q 36.03125 48 33.890625 48 
Q 26.265625 48 22.1875 43.046875 
Q 18.109375 38.09375 18.109375 28.8125 
L 18.109375 0 
L 9.078125 0 
L 9.078125 54.6875 
L 18.109375 54.6875 
L 18.109375 46.1875 
Q 20.953125 51.171875 25.484375 53.578125 
Q 30.03125 56 36.53125 56 
Q 37.453125 56 38.578125 55.875 
Q 39.703125 55.765625 41.0625 55.515625 
z
" id="DejaVuSans-114"/>
     <path d="M 30.609375 48.390625 
Q 23.390625 48.390625 19.1875 42.75 
Q 14.984375 37.109375 14.984375 27.296875 
Q 14.984375 17.484375 19.15625 11.84375 
Q 23.34375 6.203125 30.609375 6.203125 
Q 37.796875 6.203125 41.984375 11.859375 
Q 46.1875 17.53125 46.1875 27.296875 
Q 46.1875 37.015625 41.984375 42.703125 
Q 37.796875 48.390625 30.609375 48.390625 
z
M 30.609375 56 
Q 42.328125 56 49.015625 48.375 
Q 55.71875 40.765625 55.71875 27.296875 
Q 55.71875 13.875 49.015625 6.21875 
Q 42.328125 -1.421875 30.609375 -1.421875 
Q 18.84375 -1.421875 12.171875 6.21875 
Q 5.515625 13.875 5.515625 27.296875 
Q 5.515625 40.765625 12.171875 48.375 
Q 18.84375 56 30.609375 56 
z
" id="DejaVuSans-111"/>
     <path d="M 44.28125 53.078125 
L 44.28125 44.578125 
Q 40.484375 46.53125 36.375 47.5 
Q 32.28125 48.484375 27.875 48.484375 
Q 21.1875 48.484375 17.84375 46.4375 
Q 14.5 44.390625 14.5 40.28125 
Q 14.5 37.15625 16.890625 35.375 
Q 19.28125 33.59375 26.515625 31.984375 
L 29.59375 31.296875 
Q 39.15625 29.25 43.1875 25.515625 
Q 47.21875 21.78125 47.21875 15.09375 
Q 47.21875 7.46875 41.1875 3.015625 
Q 35.15625 -1.421875 24.609375 -1.421875 
Q 20.21875 -1.421875 15.453125 -0.5625 
Q 10.6875 0.296875 5.421875 2 
L 5.421875 11.28125 
Q 10.40625 8.6875 15.234375 7.390625 
Q 20.0625 6.109375 24.8125 6.109375 
Q 31.15625 6.109375 34.5625 8.28125 
Q 37.984375 10.453125 37.984375 14.40625 
Q 37.984375 18.0625 35.515625 20.015625 
Q 33.0625 21.96875 24.703125 23.78125 
L 21.578125 24.515625 
Q 13.234375 26.265625 9.515625 29.90625 
Q 5.8125 33.546875 5.8125 39.890625 
Q 5.8125 47.609375 11.28125 51.796875 
Q 16.75 56 26.8125 56 
Q 31.78125 56 36.171875 55.265625 
Q 40.578125 54.546875 44.28125 53.078125 
z
" id="DejaVuSans-115"/>
     <path d="M 53.515625 70.515625 
L 53.515625 60.890625 
Q 47.90625 63.578125 42.921875 64.890625 
Q 37.9375 66.21875 33.296875 66.21875 
Q 25.25 66.21875 20.875 63.09375 
Q 16.5 59.96875 16.5 54.203125 
Q 16.5 49.359375 19.40625 46.890625 
Q 22.3125 44.4375 30.421875 42.921875 
L 36.375 41.703125 
Q 47.40625 39.59375 52.65625 34.296875 
Q 57.90625 29 57.90625 20.125 
Q 57.90625 9.515625 50.796875 4.046875 
Q 43.703125 -1.421875 29.984375 -1.421875 
Q 24.8125 -1.421875 18.96875 -0.25 
Q 13.140625 0.921875 6.890625 3.21875 
L 6.890625 13.375 
Q 12.890625 10.015625 18.65625 8.296875 
Q 24.421875 6.59375 29.984375 6.59375 
Q 38.421875 6.59375 43.015625 9.90625 
Q 47.609375 13.234375 47.609375 19.390625 
Q 47.609375 24.75 44.3125 27.78125 
Q 41.015625 30.8125 33.5 32.328125 
L 27.484375 33.5 
Q 16.453125 35.6875 11.515625 40.375 
Q 6.59375 45.0625 6.59375 53.421875 
Q 6.59375 63.09375 13.40625 68.65625 
Q 20.21875 74.21875 32.171875 74.21875 
Q 37.3125 74.21875 42.625 73.28125 
Q 47.953125 72.359375 53.515625 70.515625 
z
" id="DejaVuSans-83"/>
     <path d="M 56.203125 29.59375 
L 56.203125 25.203125 
L 14.890625 25.203125 
Q 15.484375 15.921875 20.484375 11.0625 
Q 25.484375 6.203125 34.421875 6.203125 
Q 39.59375 6.203125 44.453125 7.46875 
Q 49.3125 8.734375 54.109375 11.28125 
L 54.109375 2.78125 
Q 49.265625 0.734375 44.1875 -0.34375 
Q 39.109375 -1.421875 33.890625 -1.421875 
Q 20.796875 -1.421875 13.15625 6.1875 
Q 5.515625 13.8125 5.515625 26.8125 
Q 5.515625 40.234375 12.765625 48.109375 
Q 20.015625 56 32.328125 56 
Q 43.359375 56 49.78125 48.890625 
Q 56.203125 41.796875 56.203125 29.59375 
z
M 47.21875 32.234375 
Q 47.125 39.59375 43.09375 43.984375 
Q 39.0625 48.390625 32.421875 48.390625 
Q 24.90625 48.390625 20.390625 44.140625 
Q 15.875 39.890625 15.1875 32.171875 
z
" id="DejaVuSans-101"/>
     <path d="M 48.78125 52.59375 
L 48.78125 44.1875 
Q 44.96875 46.296875 41.140625 47.34375 
Q 37.3125 48.390625 33.40625 48.390625 
Q 24.65625 48.390625 19.8125 42.84375 
Q 14.984375 37.3125 14.984375 27.296875 
Q 14.984375 17.28125 19.8125 11.734375 
Q 24.65625 6.203125 33.40625 6.203125 
Q 37.3125 6.203125 41.140625 7.25 
Q 44.96875 8.296875 48.78125 10.40625 
L 48.78125 2.09375 
Q 45.015625 0.34375 40.984375 -0.53125 
Q 36.96875 -1.421875 32.421875 -1.421875 
Q 20.0625 -1.421875 12.78125 6.34375 
Q 5.515625 14.109375 5.515625 27.296875 
Q 5.515625 40.671875 12.859375 48.328125 
Q 20.21875 56 33.015625 56 
Q 37.15625 56 41.109375 55.140625 
Q 45.0625 54.296875 48.78125 52.59375 
z
" id="DejaVuSans-99"/>
     <path d="M 18.3125 70.21875 
L 18.3125 54.6875 
L 36.8125 54.6875 
L 36.8125 47.703125 
L 18.3125 47.703125 
L 18.3125 18.015625 
Q 18.3125 11.328125 20.140625 9.421875 
Q 21.96875 7.515625 27.59375 7.515625 
L 36.8125 7.515625 
L 36.8125 0 
L 27.59375 0 
Q 17.1875 0 13.234375 3.875 
Q 9.28125 7.765625 9.28125 18.015625 
L 9.28125 47.703125 
L 2.6875 47.703125 
L 2.6875 54.6875 
L 9.28125 54.6875 
L 9.28125 70.21875 
z
" id="DejaVuSans-116"/>
     <path d="M 9.421875 54.6875 
L 18.40625 54.6875 
L 18.40625 0 
L 9.421875 0 
z
M 9.421875 75.984375 
L 18.40625 75.984375 
L 18.40625 64.59375 
L 9.421875 64.59375 
z
" id="DejaVuSans-105"/>
     <path d="M 54.890625 33.015625 
L 54.890625 0 
L 45.90625 0 
L 45.90625 32.71875 
Q 45.90625 40.484375 42.875 44.328125 
Q 39.84375 48.1875 33.796875 48.1875 
Q 26.515625 48.1875 22.3125 43.546875 
Q 18.109375 38.921875 18.109375 30.90625 
L 18.109375 0 
L 9.078125 0 
L 9.078125 54.6875 
L 18.109375 54.6875 
L 18.109375 46.1875 
Q 21.34375 51.125 25.703125 53.5625 
Q 30.078125 56 35.796875 56 
Q 45.21875 56 50.046875 50.171875 
Q 54.890625 44.34375 54.890625 33.015625 
z
" id="DejaVuSans-110"/>
     <path d="M 34.28125 27.484375 
Q 23.390625 27.484375 19.1875 25 
Q 14.984375 22.515625 14.984375 16.5 
Q 14.984375 11.71875 18.140625 8.90625 
Q 21.296875 6.109375 26.703125 6.109375 
Q 34.1875 6.109375 38.703125 11.40625 
Q 43.21875 16.703125 43.21875 25.484375 
L 43.21875 27.484375 
z
M 52.203125 31.203125 
L 52.203125 0 
L 43.21875 0 
L 43.21875 8.296875 
Q 40.140625 3.328125 35.546875 0.953125 
Q 30.953125 -1.421875 24.3125 -1.421875 
Q 15.921875 -1.421875 10.953125 3.296875 
Q 6 8.015625 6 15.921875 
Q 6 25.140625 12.171875 29.828125 
Q 18.359375 34.515625 30.609375 34.515625 
L 43.21875 34.515625 
L 43.21875 35.40625 
Q 43.21875 41.609375 39.140625 45 
Q 35.0625 48.390625 27.6875 48.390625 
Q 23 48.390625 18.546875 47.265625 
Q 14.109375 46.140625 10.015625 43.890625 
L 10.015625 52.203125 
Q 14.9375 54.109375 19.578125 55.046875 
Q 24.21875 56 28.609375 56 
Q 40.484375 56 46.34375 49.84375 
Q 52.203125 43.703125 52.203125 31.203125 
z
" id="DejaVuSans-97"/>
     <path d="M 54.890625 33.015625 
L 54.890625 0 
L 45.90625 0 
L 45.90625 32.71875 
Q 45.90625 40.484375 42.875 44.328125 
Q 39.84375 48.1875 33.796875 48.1875 
Q 26.515625 48.1875 22.3125 43.546875 
Q 18.109375 38.921875 18.109375 30.90625 
L 18.109375 0 
L 9.078125 0 
L 9.078125 75.984375 
L 18.109375 75.984375 
L 18.109375 46.1875 
Q 21.34375 51.125 25.703125 53.5625 
Q 30.078125 56 35.796875 56 
Q 45.21875 56 50.046875 50.171875 
Q 54.890625 44.34375 54.890625 33.015625 
z
" id="DejaVuSans-104"/>
     <path d="M 10.59375 45.40625 
L 73.1875 45.40625 
L 73.1875 37.203125 
L 10.59375 37.203125 
z
M 10.59375 25.484375 
L 73.1875 25.484375 
L 73.1875 17.1875 
L 10.59375 17.1875 
z
" id="DejaVuSans-61"/>
    </defs>
    <g transform="translate(224.637528 77.792433)scale(0.12 -0.12)">
     <use xlink:href="#DejaVuSans-67"/>
     <use x="69.824219" xlink:href="#DejaVuSans-114"/>
     <use x="108.6875" xlink:href="#DejaVuSans-111"/>
     <use x="169.869141" xlink:href="#DejaVuSans-115"/>
     <use x="221.96875" xlink:href="#DejaVuSans-115"/>
     <use x="274.068359" xlink:href="#DejaVuSans-32"/>
     <use x="305.855469" xlink:href="#DejaVuSans-83"/>
     <use x="369.332031" xlink:href="#DejaVuSans-101"/>
     <use x="430.855469" xlink:href="#DejaVuSans-99"/>
     <use x="485.835938" xlink:href="#DejaVuSans-116"/>
     <use x="525.044922" xlink:href="#DejaVuSans-105"/>
     <use x="552.828125" xlink:href="#DejaVuSans-111"/>
     <use x="614.009766" xlink:href="#DejaVuSans-110"/>
     <use x="677.388672" xlink:href="#DejaVuSans-32"/>
     <use x="709.175781" xlink:href="#DejaVuSans-97"/>
     <use x="770.455078" xlink:href="#DejaVuSans-116"/>
     <use x="809.664062" xlink:href="#DejaVuSans-32"/>
     <use x="841.451172" xlink:href="#DejaVuSans-104"/>
     <use x="904.830078" xlink:href="#DejaVuSans-32"/>
     <use x="936.617188" xlink:href="#DejaVuSans-61"/>
     <use x="1020.40625" xlink:href="#DejaVuSans-32"/>
     <use x="1052.193359" xlink:href="#DejaVuSans-50"/>
     <use x="1115.816406" xlink:href="#DejaVuSans-48"/>
     <use x="1179.439453" xlink:href="#DejaVuSans-48"/>
     <use x="1243.0625" xlink:href="#DejaVuSans-109"/>
     <use x="1340.474609" xlink:href="#DejaVuSans-109"/>
    </g>
   </g>
  </g>
  <g id="axes_2">
   <g id="patch_9">
    <path d="M 574.690909 504 
L 777.6 504 
L 777.6 69.12 
L 574.690909 69.12 
z
" style="fill:#ffffff;"/>
   </g>
   <g id="matplotlib.axis_3"/>
   <g id="matplotlib.axis_4"/>
   <g id="patch_10">
    <path d="M 574.690909 504 
L 574.690909 69.12 
" style="fill:none;"/>
   </g>
   <g id="patch_11">
    <path d="M 777.6 504 
L 777.6 69.12 
" style="fill:none;"/>
   </g>
   <g id="patch_12">
    <path d="M 574.690909 504 
L 777.6 504 
" style="fill:none;"/>
   </g>
   <g id="patch_13">
    <path d="M 574.690909 69.12 
L 777.6 69.12 
" style="fill:none;"/>
   </g>
   <g id="text_24">
    <g id="patch_14">
     <path d="M 531.290909 186.330688 
L 618.090909 186.330688 
Q 621.090909 186.330688 621.090909 183.330688 
L 621.090909 128.861312 
Q 621.090909 125.861313 618.090909 125.861313 
L 531.290909 125.861313 
Q 528.290909 125.861313 528.290909 128.861312 
L 528.290909 183.330688 
Q 528.290909 186.330688 531.290909 186.330688 
z
" style="fill:#ffffff;stroke:#000000;stroke-linejoin:miter;"/>
    </g>
    <!-- $D_{nom} = $800 mm -->
    <defs>
     <path d="M 25.390625 -1.421875 
Q 15.765625 -1.421875 10.171875 4.515625 
Q 4.59375 10.453125 4.59375 20.703125 
Q 4.59375 26.65625 6.515625 32.828125 
Q 8.453125 39.015625 11.53125 43.21875 
Q 16.359375 49.75 22.3125 52.875 
Q 28.265625 56 35.796875 56 
Q 45.125 56 50.859375 50.1875 
Q 56.59375 44.390625 56.59375 35.015625 
Q 56.59375 28.515625 54.6875 22.0625 
Q 52.78125 15.625 49.703125 11.375 
Q 44.921875 4.828125 38.96875 1.703125 
Q 33.015625 -1.421875 25.390625 -1.421875 
z
M 13.921875 21 
Q 13.921875 13.578125 17.015625 9.890625 
Q 20.125 6.203125 26.421875 6.203125 
Q 35.453125 6.203125 41.375 14.078125 
Q 47.3125 21.96875 47.3125 34.078125 
Q 47.3125 41.15625 44.140625 44.765625 
Q 40.96875 48.390625 34.8125 48.390625 
Q 29.734375 48.390625 25.78125 46.015625 
Q 21.828125 43.65625 18.703125 38.8125 
Q 16.40625 35.203125 15.15625 30.5625 
Q 13.921875 25.921875 13.921875 21 
z
" id="DejaVuSans-Oblique-111"/>
     <path d="M 31.78125 34.625 
Q 24.75 34.625 20.71875 30.859375 
Q 16.703125 27.09375 16.703125 20.515625 
Q 16.703125 13.921875 20.71875 10.15625 
Q 24.75 6.390625 31.78125 6.390625 
Q 38.8125 6.390625 42.859375 10.171875 
Q 46.921875 13.96875 46.921875 20.515625 
Q 46.921875 27.09375 42.890625 30.859375 
Q 38.875 34.625 31.78125 34.625 
z
M 21.921875 38.8125 
Q 15.578125 40.375 12.03125 44.71875 
Q 8.5 49.078125 8.5 55.328125 
Q 8.5 64.0625 14.71875 69.140625 
Q 20.953125 74.21875 31.78125 74.21875 
Q 42.671875 74.21875 48.875 69.140625 
Q 55.078125 64.0625 55.078125 55.328125 
Q 55.078125 49.078125 51.53125 44.71875 
Q 48 40.375 41.703125 38.8125 
Q 48.828125 37.15625 52.796875 32.3125 
Q 56.78125 27.484375 56.78125 20.515625 
Q 56.78125 9.90625 50.3125 4.234375 
Q 43.84375 -1.421875 31.78125 -1.421875 
Q 19.734375 -1.421875 13.25 4.234375 
Q 6.78125 9.90625 6.78125 20.515625 
Q 6.78125 27.484375 10.78125 32.3125 
Q 14.796875 37.15625 21.921875 38.8125 
z
M 18.3125 54.390625 
Q 18.3125 48.734375 21.84375 45.5625 
Q 25.390625 42.390625 31.78125 42.390625 
Q 38.140625 42.390625 41.71875 45.5625 
Q 45.3125 48.734375 45.3125 54.390625 
Q 45.3125 60.0625 41.71875 63.234375 
Q 38.140625 66.40625 31.78125 66.40625 
Q 25.390625 66.40625 21.84375 63.234375 
Q 18.3125 60.0625 18.3125 54.390625 
z
" id="DejaVuSans-56"/>
    </defs>
    <g transform="translate(535.890909 136.45975)scale(0.1 -0.1)">
     <use transform="translate(0 0.78125)" xlink:href="#DejaVuSans-Oblique-68"/>
     <use transform="translate(77.001953 -15.625)scale(0.7)" xlink:href="#DejaVuSans-Oblique-110"/>
     <use transform="translate(121.367188 -15.625)scale(0.7)" xlink:href="#DejaVuSans-Oblique-111"/>
     <use transform="translate(164.194336 -15.625)scale(0.7)" xlink:href="#DejaVuSans-Oblique-109"/>
     <use transform="translate(254.599609 0.78125)" xlink:href="#DejaVuSans-61"/>
     <use transform="translate(357.871094 0.78125)" xlink:href="#DejaVuSans-56"/>
     <use transform="translate(421.494141 0.78125)" xlink:href="#DejaVuSans-48"/>
     <use transform="translate(485.117188 0.78125)" xlink:href="#DejaVuSans-48"/>
     <use transform="translate(548.740234 0.78125)" xlink:href="#DejaVuSans-32"/>
     <use transform="translate(580.527344 0.78125)" xlink:href="#DejaVuSans-109"/>
     <use transform="translate(677.939453 0.78125)" xlink:href="#DejaVuSans-109"/>
    </g>
    <!-- $D_{min} = $813.1 mm -->
    <defs>
     <path d="M 10.6875 12.40625 
L 21 12.40625 
L 21 0 
L 10.6875 0 
z
" id="DejaVuSans-46"/>
    </defs>
    <g transform="translate(532.290909 147.657562)scale(0.1 -0.1)">
     <use transform="translate(0 0.78125)" xlink:href="#DejaVuSans-Oblique-68"/>
     <use transform="translate(77.001953 -15.625)scale(0.7)" xlink:href="#DejaVuSans-Oblique-109"/>
     <use transform="translate(145.19043 -15.625)scale(0.7)" xlink:href="#DejaVuSans-Oblique-105"/>
     <use transform="translate(164.638672 -15.625)scale(0.7)" xlink:href="#DejaVuSans-Oblique-110"/>
     <use transform="translate(231.220703 0.78125)" xlink:href="#DejaVuSans-61"/>
     <use transform="translate(334.492188 0.78125)" xlink:href="#DejaVuSans-56"/>
     <use transform="translate(398.115234 0.78125)" xlink:href="#DejaVuSans-49"/>
     <use transform="translate(461.738281 0.78125)" xlink:href="#DejaVuSans-51"/>
     <use transform="translate(525.361328 0.78125)" xlink:href="#DejaVuSans-46"/>
     <use transform="translate(557.148438 0.78125)" xlink:href="#DejaVuSans-49"/>
     <use transform="translate(620.771484 0.78125)" xlink:href="#DejaVuSans-32"/>
     <use transform="translate(652.558594 0.78125)" xlink:href="#DejaVuSans-109"/>
     <use transform="translate(749.970703 0.78125)" xlink:href="#DejaVuSans-109"/>
    </g>
    <!-- $D_{max} = $814.0 mm -->
    <g transform="translate(531.290909 158.855375)scale(0.1 -0.1)">
     <use transform="translate(0 0.78125)" xlink:href="#DejaVuSans-Oblique-68"/>
     <use transform="translate(77.001953 -15.625)scale(0.7)" xlink:href="#DejaVuSans-Oblique-109"/>
     <use transform="translate(145.19043 -15.625)scale(0.7)" xlink:href="#DejaVuSans-Oblique-97"/>
     <use transform="translate(188.085938 -15.625)scale(0.7)" xlink:href="#DejaVuSans-Oblique-120"/>
     <use transform="translate(251.728516 0.78125)" xlink:href="#DejaVuSans-61"/>
     <use transform="translate(355 0.78125)" xlink:href="#DejaVuSans-56"/>
     <use transform="translate(418.623047 0.78125)" xlink:href="#DejaVuSans-49"/>
     <use transform="translate(482.246094 0.78125)" xlink:href="#DejaVuSans-52"/>
     <use transform="translate(545.869141 0.78125)" xlink:href="#DejaVuSans-46"/>
     <use transform="translate(577.65625 0.78125)" xlink:href="#DejaVuSans-48"/>
     <use transform="translate(641.279297 0.78125)" xlink:href="#DejaVuSans-32"/>
     <use transform="translate(673.066406 0.78125)" xlink:href="#DejaVuSans-109"/>
     <use transform="translate(770.478516 0.78125)" xlink:href="#DejaVuSans-109"/>
    </g>
    <!--   -->
    <g transform="translate(573.101847 170.053187)scale(0.1 -0.1)">
     <use xlink:href="#DejaVuSans-32"/>
    </g>
    <!-- $U_{r}$ = 0.001 -->
    <defs>
     <path d="M 15.484375 72.90625 
L 25.390625 72.90625 
L 16.796875 28.609375 
Q 16.265625 25.640625 16.046875 23.703125 
Q 15.828125 21.78125 15.828125 20.3125 
Q 15.828125 13.578125 19.578125 10.078125 
Q 23.34375 6.59375 30.609375 6.59375 
Q 40.046875 6.59375 45.28125 11.765625 
Q 50.53125 16.9375 52.78125 28.609375 
L 61.375 72.90625 
L 71.296875 72.90625 
L 62.5 27.390625 
Q 59.625 12.640625 51.5625 5.609375 
Q 43.5 -1.421875 29.5 -1.421875 
Q 18.5625 -1.421875 12.1875 4.078125 
Q 5.8125 9.578125 5.8125 19 
Q 5.8125 20.703125 6.046875 22.828125 
Q 6.296875 24.953125 6.78125 27.390625 
z
" id="DejaVuSans-Oblique-85"/>
     <path d="M 44.578125 46.390625 
Q 43.21875 47.125 41.453125 47.515625 
Q 39.703125 47.90625 37.703125 47.90625 
Q 30.515625 47.90625 25.140625 42.453125 
Q 19.78125 37.015625 18.015625 27.875 
L 12.5 0 
L 3.515625 0 
L 14.203125 54.6875 
L 23.1875 54.6875 
L 21.484375 46.1875 
Q 25.046875 50.921875 30 53.453125 
Q 34.96875 56 40.578125 56 
Q 42.046875 56 43.453125 55.828125 
Q 44.875 55.671875 46.296875 55.28125 
z
" id="DejaVuSans-Oblique-114"/>
    </defs>
    <g transform="translate(547.740909 181.251)scale(0.1 -0.1)">
     <use transform="translate(0 0.78125)" xlink:href="#DejaVuSans-Oblique-85"/>
     <use transform="translate(73.193359 -15.625)scale(0.7)" xlink:href="#DejaVuSans-Oblique-114"/>
     <use transform="translate(104.707031 0.78125)" xlink:href="#DejaVuSans-32"/>
     <use transform="translate(136.494141 0.78125)" xlink:href="#DejaVuSans-61"/>
     <use transform="translate(220.283203 0.78125)" xlink:href="#DejaVuSans-32"/>
     <use transform="translate(252.070312 0.78125)" xlink:href="#DejaVuSans-48"/>
     <use transform="translate(315.693359 0.78125)" xlink:href="#DejaVuSans-46"/>
     <use transform="translate(347.480469 0.78125)" xlink:href="#DejaVuSans-48"/>
     <use transform="translate(411.103516 0.78125)" xlink:href="#DejaVuSans-48"/>
     <use transform="translate(474.726562 0.78125)" xlink:href="#DejaVuSans-49"/>
    </g>
   </g>
  </g>
 </g>
 <defs>
  <clipPath id="p60cc239a36">
   <rect height="405.535134" width="405.818182" x="108" y="83.792433"/>
  </clipPath>
 </defs>
</svg>
